<?xml version="1.0" standalone="no"?>
<!DOCTYPE svg PUBLIC "-//W3C//DTD SVG 1.1//EN" "http://www.w3.org/Graphics/SVG/1.1/DTD/svg11.dtd" >
<svg xmlns="http://www.w3.org/2000/svg">
<metadata>
Copyright   : Copyright 2011 Lucas de Groot. All rights reserved. Published by LucasFonts.
Designer    : Lucas de Groot
Foundry     : LucasFonts
Foundry URL : http://lucasfonts.com
</metadata>
<defs>
<font id="TheMixBasic_TT6i" horiz-adv-x="550" >
<font-face units-per-em="1000" ascent="740" descent="-260" />
<missing-glyph horiz-adv-x="218" />
<glyph unicode="fb" horiz-adv-x="862" d="M836 354q0 -69 -18.5 -134.5t-57 -116t-98 -81t-141.5 -30.5q-47 0 -87.5 4.5t-77.5 12.5l121 635q-20 4 -39 5.5t-36 1.5q-60 0 -93.5 -25.5t-44.5 -81.5l-9 -47h120l-17 -83h-119l-83 -436q-23 -121 -81 -175.5t-150 -54.5q-21 0 -43.5 2t-42.5 7l25 90 q16 -5 33.5 -7.5t32.5 -2.5q24 0 42.5 6.5t33.5 23t26 43.5t19 68l83 436h-93l17 83h92l10 53q18 93 81.5 140.5t173.5 47.5q47 0 93 -4.5t88 -11.5l-41 -220q-3 -15 -7.5 -32t-11 -38.5l-15.5 -49.5l-21 -66l2 -1q19 41 42 76.5t51 61.5t59.5 40.5t67.5 14.5q56 0 85 -37 t29 -117zM728 335q0 43 -12 62t-33 19q-31 0 -63.5 -30.5t-60 -75t-48.5 -95.5t-29 -93l-7 -38q14 -4 29.5 -6.5t34.5 -2.5q50 0 85.5 24.5t58.5 62.5t34 84t11 89z" />
<glyph unicode="fh" horiz-adv-x="883" d="M763 0h-105l61 315q10 54 0.5 77.5t-38.5 23.5q-30 0 -62 -29.5t-59.5 -74.5t-48.5 -97t-30 -97l-22 -118h-105l123 644q-20 4 -39 5.5t-36 1.5q-60 0 -93.5 -25.5t-44.5 -81.5l-9 -47h120l-17 -83h-119l-83 -436q-23 -121 -81 -175.5t-150 -54.5q-21 0 -43.5 2t-42.5 7 l25 90q16 -5 33.5 -7.5t32.5 -2.5q24 0 42.5 6.5t33.5 23t26 43.5t19 68l83 436h-93l17 83h92l10 53q18 93 81.5 140.5t173.5 47.5q47 0 93 -4.5t88 -11.5l-40 -215q-3 -15 -7.5 -32.5t-11 -40t-15.5 -50.5l-21 -64l2 -1q17 37 39.5 71t50 60.5t60.5 42t70 15.5q71 0 95 -46 t10 -122z" />
<glyph unicode="fj" horiz-adv-x="587" d="M533 631q-26 8 -57 13.5t-57 5.5q-72 0 -110 -32t-49 -92l-5 -29h309l-106 -550q-18 -96 -66.5 -147.5t-147.5 -51.5q-18 0 -35 2.5t-31 6.5l22 92q14 -5 29 -8t27 -3q23 0 39 6t27 20.5t19 38.5t15 60l87 451h-204l-83 -436q-23 -121 -81 -175.5t-150 -54.5 q-21 0 -43.5 2t-42.5 7l25 90q16 -5 33.5 -7.5t32.5 -2.5q24 0 42.5 6.5t33.5 23t26 43.5t19 68l83 436h-93l17 83h93l3 20q35 221 271 221q42 0 76.5 -5t67.5 -14z" />
<glyph unicode="fk" horiz-adv-x="809" d="M613 268l142 -268h-127l-120 257l-49 -257h-105l123 644q-20 4 -39 5.5t-36 1.5q-60 0 -94 -25.5t-45 -81.5l-9 -47h121l-17 -83h-120l-82 -436q-23 -121 -81 -175.5t-150 -54.5q-46 0 -86 9l25 90q16 -5 33.5 -7.5t31.5 -2.5q24 0 43 6.5t34 23t26 43.5t19 68l83 436 h-94l17 83h93l10 53q17 93 81 140.5t174 47.5q47 0 93 -4.5t88 -11.5l-82 -433l225 235l80 -58z" />
<glyph unicode="&#xfb00;" horiz-adv-x="641" d="M742 641q-16 5 -33.5 7t-32.5 2q-50 0 -77.5 -27.5t-38.5 -92.5l-6 -33h125l-16 -83h-125l-82 -434q-12 -63 -35 -106.5t-56 -70.5t-76 -38.5t-94 -11.5q-77 0 -146 29q-27 -18 -57 -26t-67 -8q-21 0 -43.5 2t-42.5 7l25 90q16 -5 33.5 -7.5t32.5 -2.5q24 0 42.5 6.5 t33.5 23t26 43.5t19 68l82 436h-93l17 83h93l6 32q17 100 81 152t174 52q78 0 147 -27q49 31 126 31q41 0 83 -9zM492 628q-23 10 -46 14t-44 4q-63 0 -97.5 -30t-44.5 -87l-6 -32h195l7 36q5 29 14 52.5t22 42.5zM238 414l-82 -436q-13 -71 -42 -117q20 -10 45.5 -15 t49.5 -5q60 0 93 30t47 102l84 441h-195z" />
<glyph unicode="&#xfb01;" horiz-adv-x="579" d="M532 630q-25 9 -56 14t-57 5q-72 0 -110 -31t-49 -92l-6 -29h299l-95 -497h-104l78 414h-194l-82 -436q-23 -122 -81 -176t-150 -54q-21 0 -43.5 2t-42.5 7l25 90q16 -5 33.5 -7.5t32.5 -2.5q24 0 42.5 6.5t33.5 23t26 43.5t19 68l83 436h-94l17 83h93l3 20 q17 106 83 163t189 57q42 0 76.5 -5t67.5 -14z" />
<glyph unicode="&#xfb02;" horiz-adv-x="577" d="M459 0h-105l123 643q-20 4 -39 5.5t-36 1.5q-60 0 -94 -25t-45 -81l-9 -47h121l-17 -83h-120l-82 -436q-23 -122 -81 -176t-150 -54q-21 0 -43.5 2t-42.5 7l25 90q16 -5 33.5 -7.5t32.5 -2.5q24 0 42.5 6.5t33.5 23t26 43.5t19 68l83 436h-94l17 83h93l10 53 q35 187 255 187q47 0 93 -4t88 -12z" />
<glyph unicode="&#xfb03;" horiz-adv-x="878" d="M831 631q-25 8 -56 13.5t-57 5.5q-69 0 -108.5 -30.5t-51.5 -96.5l-4 -26h298l-95 -497h-104l79 414h-194l-82 -434q-12 -63 -35 -106.5t-56 -70.5t-76 -38.5t-94 -11.5q-77 0 -146 29q-27 -18 -57 -26t-67 -8q-21 0 -43.5 2t-42.5 7l25 90q16 -5 33.5 -7.5t32.5 -2.5 q24 0 42.5 6.5t33.5 23t26 43.5t19 68l82 436h-93l17 83h93l6 32q17 100 81 152t174 52q39 0 79.5 -7.5t77.5 -23.5q62 36 156 36q42 0 76.5 -5t67.5 -14zM496 626q-24 11 -48 15.5t-46 4.5q-63 0 -97.5 -30t-44.5 -87l-6 -32h195l4 23q5 31 16 58.5t27 47.5zM238 414 l-82 -436q-13 -71 -42 -117q20 -10 45.5 -15t49.5 -5q60 0 93 30t47 102l84 441h-195z" />
<glyph unicode="&#xfb04;" horiz-adv-x="878" d="M758 0h-104l122 644q-19 4 -38.5 5.5t-36.5 1.5q-60 0 -94 -25.5t-44 -81.5l-9 -47h126l-17 -83h-125l-82 -434q-12 -63 -35 -106.5t-56 -70.5t-76 -38.5t-94 -11.5q-77 0 -146 29q-27 -18 -57 -26t-67 -8q-21 0 -43.5 2t-42.5 7l25 90q16 -5 33.5 -7.5t32.5 -2.5 q24 0 42.5 6.5t33.5 23t26 43.5t19 68l83 436h-94l17 83h93l6 32q18 100 81.5 152t173.5 52q39 0 79.5 -7.5t73.5 -20.5q29 16 66.5 24.5t83.5 8.5q48 0 93.5 -4.5t87.5 -11.5zM491 628q-23 11 -45.5 14.5t-42.5 3.5q-63 0 -97.5 -30t-45.5 -87l-5 -32h194l10 53q9 46 32 78 zM239 414l-83 -436q-13 -71 -42 -117q20 -10 45.5 -15t49.5 -5q60 0 93 30t47 102l84 441h-194z" />
<glyph horiz-adv-x="500" />
<glyph horiz-adv-x="500" />
<glyph unicode="&#xd;" horiz-adv-x="500" />
<glyph unicode=" "  horiz-adv-x="218" />
<glyph unicode="&#x09;" horiz-adv-x="218" />
<glyph unicode="&#xa0;" horiz-adv-x="218" />
<glyph unicode="!" horiz-adv-x="314" d="M201 60q0 -31 -20.5 -50.5t-49.5 -19.5t-47 18.5t-18 44.5q0 31 21 50.5t50 19.5t46.5 -18.5t17.5 -44.5zM201 177h-89l83 528h123z" />
<glyph unicode="&#x22;" horiz-adv-x="375" d="M183 460h-77l31 241h107zM357 460h-77l30 241h107z" />
<glyph unicode="#" d="M247 405l-45 -154h137l46 154h-138zM553 405h-89l-45 -154h81l-14 -74h-89l-53 -177h-79l53 177h-138l-53 -177h-79l53 177h-83l14 74h91l45 154h-83l14 73h91l50 172h79l-50 -172h138l50 172h79l-50 -172h81z" />
<glyph unicode="$" d="M472 535q-27 9 -56.5 13t-55.5 4q-61 0 -92.5 -24.5t-31.5 -59.5q0 -26 16.5 -42.5t41.5 -30.5t53.5 -27.5t53.5 -32.5t41.5 -46.5t16.5 -69.5q0 -36 -14.5 -69t-41 -59.5t-63.5 -45t-82 -25.5l-20 -105h-78l19 101q-29 0 -59 4t-56 10l20 97q21 -8 56 -15t71 -7 q31 0 55.5 7.5t41.5 20.5t26.5 29t9.5 34q0 28 -16.5 46.5t-40.5 32.5t-53 27.5t-53 32.5t-40.5 46t-16.5 69q0 34 14 65.5t39 56t60 41t78 22.5l18 95h78l-17 -90q54 -3 97 -12z" />
<glyph unicode="%" horiz-adv-x="740" d="M607 184q0 52 -47 52q-18 0 -34.5 -9.5t-28.5 -26.5t-19 -40t-7 -49q0 -52 47 -52q18 0 34.5 9.5t28.5 26.5t19 39.5t7 49.5zM304 539q0 52 -46 52q-18 0 -34.5 -9.5t-28.5 -26.5t-19 -39.5t-7 -48.5q0 -53 47 -53q18 0 34 9.5t28 26.5t19 39.5t7 49.5zM689 193 q0 -49 -16 -86.5t-41.5 -63.5t-57.5 -39.5t-64 -13.5q-61 0 -91 29.5t-30 83.5q0 48 16 86t41.5 63.5t57 39t63.5 13.5q60 0 91 -29t31 -83zM109 -21l-57 51l611 639l58 -51zM387 549q0 -49 -16 -87t-41.5 -64t-57.5 -39.5t-64 -13.5q-61 0 -91 29.5t-30 83.5q0 48 16 86 t41.5 63.5t57 39t63.5 13.5q60 0 91 -28.5t31 -82.5z" />
<glyph unicode="&#x26;" horiz-adv-x="784" d="M436 143q-44 43 -88.5 92t-82.5 98q-23 -17 -43.5 -34t-36 -36t-25 -40t-9.5 -46q0 -19 6 -36t19 -30.5t33 -21.5t48 -8q42 0 88 15t91 47zM404 599q0 26 -14.5 41.5t-44.5 15.5q-39 0 -62.5 -25t-23.5 -62q0 -21 10 -47.5t29 -58.5q22 16 41 31.5t33.5 32t23 34 t8.5 38.5zM730 452q-8 -88 -45 -166.5t-95 -138.5q30 -27 59.5 -51l56.5 -46l-73 -73l-63 50t-62 53q-62 -45 -132.5 -67.5t-141.5 -22.5q-51 0 -88 13t-60.5 35.5t-35 52t-11.5 63.5q0 43 14.5 78.5t39 65.5t56 55.5t64.5 49.5q-28 44 -44 83t-16 72q0 35 14.5 67.5 t41.5 57.5t64.5 40t82.5 15q81 0 117.5 -35t36.5 -89q0 -35 -13.5 -64.5t-35.5 -56.5t-51.5 -51l-60.5 -47q35 -47 79.5 -95t92.5 -94q28 29 52 71.5t36 95.5q-16 3 -37 5.5l-38 4.5l11 62q42 5 91 7t94 0z" />
<glyph unicode="'" horiz-adv-x="202" d="M183 460h-77l31 241h107z" />
<glyph unicode="(" horiz-adv-x="298" d="M381 746q-48 -60 -89 -134.5t-71 -155t-47.5 -163t-17.5 -158.5q0 -88 11.5 -163.5t39.5 -146.5l-85 -36q-35 81 -52 164.5t-17 175.5q0 81 17 165.5t49.5 168.5t80 165t109.5 156l72 -38v0z" />
<glyph unicode=")" horiz-adv-x="298" d="M269 444q0 -82 -17 -166.5t-49 -168t-80 -164.5t-109 -156l-72 37q47 60 88 134.5t71.5 155t48 163t17.5 159.5q0 88 -12 163t-39 146l84 37q35 -82 52 -165.5t17 -174.5z" />
<glyph unicode="*" horiz-adv-x="371" d="M300 573l91 -49l-50 -64l-75 72l-10 -112l-77 10l36 104l-95 -61l-27 70l108 37l-91 50l50 62l74 -71l10 113l77 -10l-36 -105l97 61l27 -70z" />
<glyph unicode="+" d="M512 253h-184l-37 -195h-101l37 195h-183l17 89h183l37 194h101l-36 -194h184z" />
<glyph unicode="," horiz-adv-x="237" d="M91 129q29 0 48.5 -21.5t19.5 -56.5q0 -42 -34.5 -97.5t-119.5 -115.5l-39 45q42 35 60.5 62t18.5 50q0 18 -10 33.5t-10 33.5q0 26 18 46.5t48 20.5z" />
<glyph unicode="-" horiz-adv-x="329" d="M285 240h-238l16 86h238z" />
<glyph unicode="." horiz-adv-x="239" d="M161 64q0 -32 -21.5 -53t-50.5 -21t-48.5 20.5t-19.5 47.5q0 32 21.5 53t50.5 21t48.5 -20.5t19.5 -47.5z" />
<glyph unicode="/" horiz-adv-x="440" d="M20 -161h-106l520 918h105z" />
<glyph unicode="0" d="M426 457q0 57 -18 85t-66 28q-33 0 -60 -21t-47.5 -54t-35 -75t-23.5 -83.5t-13.5 -79.5t-4.5 -63q0 -56 18.5 -84.5t67.5 -28.5q33 0 59.5 21t47 54.5t34.5 75t23.5 83.5t13.5 79.5t4 62.5zM539 463q0 -46 -7 -98.5t-22.5 -105.5t-40 -101.5t-59 -85.5t-79.5 -59.5 t-102 -22.5q-92 0 -137.5 48t-45.5 149q0 46 7 98.5t22.5 105.5t40 101.5t59 85.5t80 59.5t102.5 22.5q182 0 182 -197z" />
<glyph unicode="1" d="M455 0h-429l18 96h170l84 443l-163 -59l-2 101l211 69h86l-106 -554h149z" />
<glyph unicode="2" d="M512 502q0 -33 -8 -64.5t-31.5 -67t-64.5 -77.5t-107 -95l-121 -96v-2q32 2 83.5 2.5t112.5 0.5h87l-20 -103h-433l17 88l156 129q64 52 104 89.5t63 67t31.5 54.5t8.5 51q0 36 -24 60t-75 24q-42 0 -82.5 -14.5t-69.5 -33.5l-10 95q38 20 87.5 35t109.5 15 q47 0 82 -12.5t58 -33.5t34.5 -50t11.5 -62z" />
<glyph unicode="3" d="M515 524q0 -60 -39.5 -106t-108.5 -65l-1 -2q53 -8 80.5 -41.5t27.5 -84.5q0 -37 -17 -78.5t-55.5 -76t-100 -57.5t-149.5 -23q-38 0 -69.5 4t-52.5 11l25 94q23 -8 52.5 -13.5t61.5 -5.5q49 0 84 11.5t58 30.5t34 42t11 47q0 38 -32 61t-98 23q-31 0 -55.5 -1.5 t-50.5 -3.5l16 84h26q63 0 108 11t73.5 29t42 41.5t13.5 48.5q0 31 -24.5 49.5t-73.5 18.5q-39 0 -76 -10t-71 -25l-2 91q39 14 84 23t91 9q97 0 142.5 -37t45.5 -99z" />
<glyph unicode="4" d="M383 541l-249 -301q20 1 47.5 1.5t55.5 0.5h90l57 299h-1zM430 242h100l-19 -96h-99l-28 -146h-105l27 146h-293l8 89l341 415h41h105z" />
<glyph unicode="5" d="M515 549h-261l-29 -151q14 1 26 1h21q54 0 93 -12t64.5 -32.5t37.5 -48.5t12 -60q0 -56 -24 -102.5t-66 -81t-100 -53.5t-126 -19q-40 0 -69 3t-56 9l19 98q27 -8 57.5 -13t59.5 -5q42 0 76.5 10.5t59 30t37.5 46.5t13 59q1 86 -150 86q-24 0 -53.5 -2t-49.5 -6l66 344 h100h262z" />
<glyph unicode="6" d="M398 235q0 41 -23.5 64.5t-72.5 23.5q-34 0 -61 -12.5t-46.5 -32.5t-30 -46t-10.5 -54q0 -45 24.5 -73t75.5 -28q30 0 56 12t45.5 33t31 50t11.5 63zM512 563l-33 4t-37 2q-91 0 -150.5 -47.5t-96.5 -134.5q-5 -10 -10.5 -23t-10.5 -27h1q27 35 70 54.5t91 19.5 q86 0 129.5 -43.5t43.5 -111.5q0 -57 -21 -105.5t-57.5 -84.5t-87 -56t-109.5 -20q-92 0 -140 50t-48 147q0 40 8.5 90.5t28 103t51.5 102.5t77.5 89t107 63t140.5 24q22 0 40.5 -1t29.5 -3z" />
<glyph unicode="7" d="M558 557l-96.5 -140.5l-91 -144.5l-82 -141l-70.5 -131h-127l77 138l84.5 142l88.5 139.5t89 128.5q-9 0 -33.5 -0.5t-56 -1t-67.5 -1t-68 -0.5h-93l20 105h444z" />
<glyph unicode="8" d="M379 185q0 18 -8 32.5t-21.5 26.5t-31 22.5t-36.5 19.5q-42 -20 -69 -38.5t-42.5 -36t-21 -33.5t-5.5 -32q0 -30 25 -50t76 -20q26 0 50 7t43 20.5t30 34t11 47.5zM427 510q0 31 -22 48.5t-64 17.5q-29 0 -51.5 -8.5t-38 -22.5t-23.5 -32.5t-8 -38.5q0 -32 24.5 -52.5 t59.5 -39.5q34 17 57.5 32t38 30t21 31t6.5 35zM538 526q0 -64 -38 -107t-111 -81q20 -12 38.5 -25.5t32.5 -30t22.5 -37t8.5 -46.5q0 -49 -22 -87.5t-58.5 -65.5t-83.5 -41.5t-96 -14.5q-97 0 -148.5 37t-51.5 103q0 36 12 65t34 53t52.5 44t66.5 38q-35 22 -61 51t-26 76 q0 41 18.5 78t51.5 64.5t78 44t97 16.5q91 0 137.5 -36.5t46.5 -97.5z" />
<glyph unicode="9" d="M426 474q0 44 -24.5 71.5t-72.5 27.5q-33 0 -59.5 -13.5t-45 -35.5t-29 -50.5t-10.5 -58.5q0 -43 24 -66t69 -23q30 0 56.5 11t47 30.5t32.5 47t12 59.5zM536 467q0 -34 -7 -82.5t-24.5 -101.5t-47 -105.5t-75 -94t-109 -67t-147.5 -25.5q-29 0 -50.5 1.5t-41.5 5.5 l18 95q18 -5 42 -8t46 -3q90 0 151.5 47t93.5 130q5 13 8 22t7 17h-1q-29 -29 -68 -45t-84 -16q-81 0 -126.5 40.5t-45.5 117.5q0 50 18.5 97.5t53.5 85t85 60t113 22.5q87 0 139 -45.5t52 -147.5z" />
<glyph unicode=":" horiz-adv-x="289" d="M197 63q0 -31 -21.5 -52t-50.5 -21t-49 20.5t-20 47.5q0 32 21.5 53t50.5 21t49 -20.5t20 -48.5zM252 352q0 -32 -21.5 -53t-50.5 -21t-49 20.5t-20 48.5q0 31 21.5 52t50.5 21t49 -20.5t20 -47.5z" />
<glyph unicode=";" horiz-adv-x="289" d="M128 129q29 0 48.5 -21t19.5 -56q0 -42 -34.5 -97.5t-119.5 -116.5l-39 45q42 35 60.5 62t18.5 50q0 18 -10 33.5t-10 33.5q0 26 17 46.5t49 20.5zM252 352q0 -32 -21.5 -53t-50.5 -21t-49 20.5t-20 48.5q0 31 21.5 52t50.5 21t49 -20.5t20 -47.5z" />
<glyph unicode="&#x3c;" d="M218 301l210 -220l-77 -68l-270 296l364 281l62 -74z" />
<glyph unicode="=" d="M482 164h-441l17 87h440zM516 343h-440l16 87h440z" />
<glyph unicode="&#x3e;" d="M131 13l-62 74l288 215l-210 220l78 68l270 -295z" />
<glyph unicode="?" horiz-adv-x="439" d="M223 60q0 -31 -20.5 -50.5t-49.5 -19.5t-47 18.5t-18 44.5q0 31 20.5 50.5t49.5 19.5t47 -18.5t18 -44.5zM436 530q0 -44 -17 -75t-42 -55.5t-53.5 -46.5t-51.5 -46.5t-36.5 -55.5t-7.5 -74h-103q-7 51 4.5 88t33 65t48.5 49.5l50.5 41.5t40 42t16.5 50q0 22 -13 39.5 t-35.5 30t-53.5 21t-67 12.5l31 97q64 -5 112 -21t80 -40.5t48 -56t16 -65.5z" />
<glyph unicode="@" horiz-adv-x="963" d="M574 456q-10 4 -22 5.5t-25 1.5q-28 0 -53 -17.5t-44.5 -46t-31 -64.5t-11.5 -74q0 -46 30 -46q34 0 74.5 46.5t69.5 146.5l13 48v0zM897 446q0 -66 -18 -124t-52 -101t-81.5 -67.5t-106.5 -24.5q-30 0 -50 8.5t-31.5 23t-15 33t0.5 39.5h-4q-8 -16 -23.5 -34t-36 -33.5 t-44 -26t-48.5 -10.5q-88 0 -88 110q0 45 13.5 97t43.5 96.5t78.5 74t118.5 29.5q36 0 68 -5t54 -12l-58 -206q-14 -51 -3.5 -74.5t43.5 -23.5q31 0 57.5 16t45.5 45.5t30 70t11 89.5q0 42 -13 80.5t-41.5 68t-74.5 47t-112 17.5q-82 0 -150 -34t-117.5 -90t-77 -129 t-27.5 -152q0 -55 16.5 -99.5t49.5 -75.5t83 -48t117 -17q44 0 86.5 7t86.5 20l7 -84q-48 -16 -102.5 -23.5t-98.5 -7.5q-84 0 -148 22t-107.5 62.5t-65.5 99t-22 131.5q0 101 37 192.5t102 160.5t153 110t191 41q83 0 144 -22.5t101 -61.5t59.5 -92t19.5 -113z" />
<glyph unicode="A" horiz-adv-x="609" d="M443 0l-22 149h-268l-79 -149h-113l364 675h123l110 -675h-115zM374 464q-3 23 -5.5 47.5l-4.5 45.5h-1l-20 -44.5t-24 -46.5l-123 -230h214z" />
<glyph unicode="B" horiz-adv-x="562" d="M400 224q0 41 -31.5 62t-97.5 21h-38t-35 -1l-41 -215q12 -2 31.5 -3.5t43.5 -1.5q41 0 72.5 11t52.5 30t32 44t11 53zM438 521q0 16 -5 29t-17 22t-32 14t-51 5q-22 0 -42 -0.5t-39 -1.5l-39 -200q16 -1 27.5 -1h25.5q78 0 125 35t47 98zM553 545q0 -37 -10.5 -67 t-29 -53.5t-43 -40.5t-51.5 -27v-1q45 -11 70 -45.5t25 -78.5q0 -48 -20 -90.5t-58 -74.5t-93.5 -51t-126.5 -19q-20 0 -76 1l-107 2l128 675q45 1 71.5 1.5t35.5 0.5q53 1 92 1q98 0 145.5 -34.5t47.5 -98.5z" />
<glyph unicode="C" horiz-adv-x="556" d="M560 562q-66 23 -130 23q-71 0 -120.5 -31.5t-80.5 -81t-45 -109.5t-14 -118q0 -35 8 -63.5t26.5 -48.5t49 -31.5t75.5 -11.5q39 0 76.5 8.5t69.5 22.5l1 -97q-39 -14 -86.5 -23t-92.5 -9q-75 0 -122.5 20.5t-75.5 53.5t-38.5 75t-10.5 85q0 88 25 170t74.5 145.5 t122.5 101.5t170 38q82 0 147 -20z" />
<glyph unicode="D" horiz-adv-x="660" d="M535 423q0 36 -9.5 66.5t-31 52.5t-58 34t-90.5 12q-28 0 -53 -0.5t-42 -2.5l-94 -491q17 -2 37.5 -3.5t34.5 -1.5q84 0 142 31.5t94.5 80.5t53 108t16.5 114zM650 434q0 -84 -26.5 -163t-80.5 -140t-136 -98t-193 -37q-43 0 -75 1q-22 1 -47.5 1.5t-58.5 1.5l128 674 l52 1.5t55 1.5l95 1q75 0 129 -17t89.5 -48.5t52 -76.5t16.5 -102z" />
<glyph unicode="E" horiz-adv-x="487" d="M492 584h-242l-36 -192h231l-18 -89h-230l-40 -210h242l-17 -93h-242h-107l128 675h107h242z" />
<glyph unicode="F" horiz-adv-x="457" d="M488 583h-238l-37 -198h225l-17 -89h-225l-56 -296h-107l128 675h107h238z" />
<glyph unicode="G" horiz-adv-x="665" d="M633 553q-40 17 -83.5 26.5t-84.5 9.5q-68 0 -123 -26.5t-94 -71.5t-60.5 -104.5t-21.5 -125.5q0 -33 9.5 -64.5t31 -55.5t56 -39t84.5 -15q32 0 60 4.5t54 12.5l47 244h107l-62 -319q-53 -20 -112 -29.5t-113 -9.5q-71 0 -123 19t-86.5 53.5t-51.5 82t-17 104.5 q0 95 32.5 175t89.5 137.5t135 90t169 32.5q102 0 189 -27z" />
<glyph unicode="H" horiz-adv-x="679" d="M558 0h-106l58 303h-312l-58 -303h-107l128 675h107l-53 -279h312l53 279h107z" />
<glyph unicode="I" horiz-adv-x="260" d="M140 0h-107l128 675h107z" />
<glyph unicode="J" horiz-adv-x="324" d="M238 174q-8 -40 -22.5 -73.5t-39.5 -57.5t-60 -37.5t-83 -13.5q-24 0 -43 2.5t-34 5.5l18 95q12 -5 27 -8t31 -3q39 0 64.5 21.5t36.5 78.5l94 491h106z" />
<glyph unicode="K" horiz-adv-x="561" d="M312 340l185 -340h-27h-107l-161 330l-63 -330h-106l128 675h106l-59 -313l276 313h107h31z" />
<glyph unicode="L" horiz-adv-x="418" d="M366 0h-226h-107l128 675h107l-110 -580h227z" />
<glyph unicode="M" horiz-adv-x="866" d="M783 0h-111l16 356q2 48 4.5 89t5.5 79h-1q-11 -29 -25.5 -61.5t-34.5 -70.5l-199 -392h-109l-48 365q-5 42 -8.5 82t-3.5 77h-1q-11 -42 -24 -84.5l-27 -90.5l-109 -349h-112l227 675h125l52 -390q5 -36 7 -70.5t3 -67.5h2q13 32 28.5 65.5t33.5 68.5l203 394h132z" />
<glyph unicode="N" horiz-adv-x="673" d="M552 0h-102h-23l-149 379q-14 38 -26 75t-21 70q-7 -54 -17 -111l-20 -114l-56 -299h-105l128 675h104h23l146 -367q14 -37 27 -76t24 -76l17 110t20 113l54 296h105z" />
<glyph unicode="O" horiz-adv-x="690" d="M568 427q0 74 -36 118t-112 44q-57 0 -104.5 -27.5t-81.5 -74t-52.5 -107.5t-18.5 -127q0 -78 36.5 -122t107.5 -44q55 0 102.5 26.5t82.5 73t55.5 108t20.5 132.5zM683 439q0 -97 -31 -179t-84 -142t-124 -94t-152 -34q-125 0 -185 65t-60 181q0 91 30 173t82.5 143 t123.5 97t154 36q121 0 183.5 -64t62.5 -182z" />
<glyph unicode="P" horiz-adv-x="516" d="M427 497q0 43 -26.5 68t-87.5 25h-28.5t-32.5 -2l-47 -246q18 -4 46 -4q35 0 67.5 12t56.5 33.5t38 50.5t14 63zM539 512q0 -57 -24 -105.5t-65.5 -84t-96.5 -55.5t-116 -20q-11 0 -24.5 0.5t-25.5 2.5l-47 -250h-107l128 675q38 2 63.5 3t43.5 1q-36 0 -1 0h65 q100 0 153.5 -44.5t53.5 -122.5z" />
<glyph unicode="Q" horiz-adv-x="691" d="M568 427q0 74 -36 118t-112 44q-57 0 -104.5 -27.5t-81.5 -74t-52.5 -107.5t-18.5 -127q0 -78 36.5 -122t107.5 -44q55 0 102.5 26.5t82.5 73t55.5 108t20.5 132.5zM469 53q21 -1 40 -6.5l39 -11t44.5 -9t57.5 0.5l-17 -93q-57 -8 -94 0t-69 20.5t-67 24t-90 11.5h-21 q-125 0 -185 65t-60 181q0 91 29.5 173t81.5 143t123 97t155 36q121 0 184 -64t63 -182q0 -68 -16 -129t-44.5 -111.5t-68 -88t-85.5 -57.5z" />
<glyph unicode="R" horiz-adv-x="548" d="M426 510q0 41 -25.5 60.5t-84.5 19.5q-20 0 -36.5 -0.5t-28.5 -1.5l-40 -214q8 -1 20 -1.5t29 -0.5q35 0 65.5 9.5t53 27.5t35 43.5t12.5 57.5zM539 528q0 -47 -17.5 -85t-47.5 -66.5t-70.5 -47t-86.5 -25.5q11 -18 19.5 -36t18.5 -37l123 -231h-127l-144 292h-12 l-55 -292h-107l128 675q37 2 107 4h66q107 0 156 -39.5t49 -111.5z" />
<glyph unicode="S" horiz-adv-x="457" d="M435 579q-25 8 -49.5 12t-44.5 4q-36 0 -61.5 -9t-42 -23t-24 -32t-7.5 -37q0 -28 15 -48.5t37 -38t48.5 -34t48.5 -38t37 -50t15 -68.5q0 -48 -20 -89.5t-56.5 -72t-86.5 -48t-110 -17.5q-29 0 -60 3t-57 11l20 104q23 -10 51 -16t54 -6q72 0 110.5 30.5t38.5 82.5 q0 27 -14.5 46.5t-37 36t-48 32.5t-48 37t-37 49.5t-14.5 68.5q0 44 16.5 83t48.5 68.5t80 47t111 17.5q27 0 52 -2t54 -7z" />
<glyph unicode="T" horiz-adv-x="503" d="M554 583h-182l-111 -583h-107l111 583h-182l17 92h183h107h181z" />
<glyph unicode="U" horiz-adv-x="673" d="M599 247q-26 -133 -105 -195t-207 -62q-75 0 -121 19.5t-69 53.5t-26.5 79.5t6.5 97.5l83 435h107l-85 -441q-14 -76 12 -115t108 -39q41 0 73 9.5t55.5 30.5t39.5 55t25 83l80 417h105z" />
<glyph unicode="V" horiz-adv-x="610" d="M320 0h-122l-106 675h113l61 -416q4 -30 8 -67.5t6 -69.5h2q15 35 33 72t37 72l220 409h114z" />
<glyph unicode="W" horiz-adv-x="935" d="M689 0h-132l-33 417q-2 31 -2.5 63t1.5 64h-1q-10 -32 -22 -62.5t-26 -62.5l-191 -419h-127l-42 675h109l25 -411q2 -34 1.5 -66.5t-2.5 -65.5h1l24.5 64.5t26.5 64.5l191 414h118l38 -415q2 -29 3 -61t-1 -65h1q20 61 45 119l184 422h112z" />
<glyph unicode="X" horiz-adv-x="599" d="M384 345l155 -345h-20h-108l-107 265l-206 -265h-108h-22l283 350l-139 325h11h108l101 -246l190 246h108h18z" />
<glyph unicode="Y" horiz-adv-x="536" d="M321 241l-46 -241h-106l45 241l-124 434h112l57 -213q8 -30 14.5 -58.5t11.5 -55.5h2q17 30 37 62l42 65l129 200h108h11z" />
<glyph unicode="Z" horiz-adv-x="519" d="M540 589l-345 -437l-21.5 -27t-23.5 -27q21 2 53 2h248l-20 -100h-431l16 83l327 423q16 20 31.5 37.5l32.5 35.5q-21 -1 -47 -1h-241l19 97h418z" />
<glyph unicode="[" horiz-adv-x="318" d="M368 690h-104l-154 -806h105l-16 -85h-105h-98l186 975h97h106z" />
<glyph unicode="\" horiz-adv-x="449" d="M284 -161l-173 918h94l175 -918h-96z" />
<glyph unicode="]" horiz-adv-x="318" d="M158 -201h-98h-106l16 85h105l154 806h-105l16 84h105h99z" />
<glyph unicode="^" d="M422 340l-86 257l-179 -257l-66 38l218 297h82l111 -295z" />
<glyph unicode="_" d="M486 -248h-550l16 86h550z" />
<glyph unicode="`" horiz-adv-x="355" d="M293 566l-153 114l58 68l142 -126z" />
<glyph unicode="a" horiz-adv-x="562" d="M394 413q-14 4 -29.5 6.5t-34.5 2.5q-50 0 -85.5 -24.5t-58.5 -62.5t-34 -84t-11 -89t12 -62t33 -19t42.5 14t42 37.5t39 54t34 63.5t26.5 66t17 61zM435 83q17 -3 39.5 -5.5t43.5 -4.5l-12 -66q-42 -5 -92.5 -7t-95.5 0q6 32 19 76t33 106l-2 1q-14 -28 -35 -62 t-48.5 -63t-62 -49t-76.5 -20q-55 0 -84 37t-29 117q0 69 18.5 134.5t57 116t98 81t141.5 30.5q88 0 165 -15z" />
<glyph unicode="b" horiz-adv-x="546" d="M406 335q0 43 -12 62t-32 19q-32 0 -64 -30.5t-60 -75t-48.5 -95.5t-28.5 -93l-8 -38q15 -4 30 -6.5t35 -2.5q50 0 85.5 24.5t58.5 62.5t33.5 84t10.5 89zM515 354q0 -69 -18.5 -134.5t-57.5 -116t-98.5 -81t-141.5 -30.5q-47 0 -87 4.5t-77 12.5l122 638q-17 3 -40 5.5 t-44 4.5l12 66q42 5 93 7t99 0l-44 -228q-3 -15 -7 -32t-10.5 -38.5l-15.5 -49.5l-22 -66l2 -1q19 41 42.5 76.5t51.5 61.5t59.5 40.5t67.5 14.5q56 0 85 -37t29 -117z" />
<glyph unicode="c" horiz-adv-x="408" d="M400 399q-18 8 -39 13t-46 5q-44 0 -75.5 -22t-52.5 -56t-31 -75.5t-10 -80.5q0 -19 4 -37t14.5 -31.5t29.5 -21.5t48 -8q27 0 53.5 5.5t47.5 14.5l-3 -90q-26 -11 -59.5 -17.5t-68.5 -6.5q-49 0 -83 12.5t-55 34.5t-30.5 53t-9.5 68q0 71 20 134t57 110.5t90.5 75 t120.5 27.5q29 0 54 -3.5t49 -10.5z" />
<glyph unicode="d" horiz-adv-x="568" d="M394 413q-14 4 -29.5 6.5t-34.5 2.5q-50 0 -85.5 -24.5t-58.5 -62.5t-34 -84t-11 -89t12 -62t33 -19t42.5 14t42 37.5t39 54t34 63.5t26.5 66t17 61zM435 83q17 -3 39.5 -5.5t43.5 -4.5l-12 -66q-42 -5 -92 -7t-95 0q5 31 18 75.5t33 106.5l-2 1q-14 -28 -35 -62 t-48.5 -63t-62 -49t-76.5 -20q-55 0 -84 37t-29 117q0 69 18.5 134.5t57 116t98 81t141.5 30.5q16 0 30.5 -1t31.5 -3l29 146q-17 3 -39.5 5.5t-44.5 4.5l12 66q42 5 93 7t99 0z" />
<glyph unicode="e" horiz-adv-x="480" d="M359 376q0 25 -16 38t-44 13q-27 0 -49.5 -11.5t-40 -30.5t-30.5 -45t-20 -54q103 4 151.5 25.5t48.5 64.5zM464 390q0 -85 -81.5 -129t-236.5 -49q-2 -10 -3 -24.5t-1 -25.5q0 -51 22 -68.5t78 -17.5q35 0 71.5 7.5t69.5 21.5l3 -83q-40 -15 -85 -23.5t-94 -8.5 q-91 0 -131.5 40t-40.5 125q0 75 20.5 139t57.5 111.5t87.5 74.5t110.5 27q43 0 72 -10t47 -26.5t26 -37.5t8 -43z" />
<glyph unicode="f" horiz-adv-x="342" d="M442 641q-16 5 -33.5 7t-32.5 2q-49 0 -76.5 -27.5t-39.5 -92.5l-6 -33h126l-17 -83h-125l-83 -436q-23 -121 -80.5 -175.5t-149.5 -54.5q-45 0 -87 9l26 90q16 -5 33.5 -7.5t31.5 -2.5q24 0 43 6.5t33.5 23t25.5 43.5t19 68l83 436h-93l17 83h93l6 36q18 102 73 153 t156 51q40 0 82 -9z" />
<glyph unicode="g" horiz-adv-x="538" d="M394 413q-14 4 -29.5 6.5t-34.5 2.5q-50 0 -85.5 -24.5t-58.5 -62.5t-34 -84t-11 -89t12 -62t33 -19t42.5 14t42 37.5t39 54t34 63.5t26.5 66t17 61l7 36v0zM411 -39q-9 -48 -29.5 -87t-55.5 -67.5t-87 -44t-124 -15.5q-42 0 -76 5.5t-63 14.5l25 101q29 -14 64.5 -21.5 t69.5 -7.5q75 0 118.5 31.5t58.5 108.5q5 25 10 46.5t11.5 44l14.5 48.5t20 61h-2q-14 -27 -34 -60t-47.5 -62t-62 -48.5t-76.5 -19.5q-55 0 -84 37t-29 117q0 69 18.5 134.5t57.5 116t98.5 81t140.5 30.5q88 0 165 -15z" />
<glyph unicode="h" horiz-adv-x="567" d="M447 0h-104l60 315q10 54 0.5 77.5t-38.5 23.5q-30 0 -62 -29.5t-59.5 -74.5t-48.5 -97t-30 -97l-22 -118h-105l124 647q-17 3 -40 5.5t-44 4.5l12 66q42 5 93 7t99 0l-42 -223q-3 -15 -7.5 -32.5t-11 -40t-15.5 -50.5l-21 -64l2 -1q17 37 39.5 71t50 60t60 42t70.5 16 q71 0 95 -46t10 -122z" />
<glyph unicode="i" horiz-adv-x="286" d="M165 0h-105l80 414q-17 3 -39.5 5.5t-44.5 4.5l12 66q42 5 93 7t99 0zM303 658q0 -32 -22 -52.5t-51 -20.5t-46 18.5t-17 42.5q0 32 21.5 52.5t50.5 20.5q28 0 46 -19t18 -42z" />
<glyph unicode="j" horiz-adv-x="286" d="M155 -53q-9 -48 -25.5 -85t-42 -62.5t-62 -38.5t-85.5 -13q-18 0 -35 2.5t-31 6.5l22 92q14 -5 28.5 -8t26.5 -3q23 0 39 6.5t27.5 21t20 38.5t15.5 59l87 451q-17 3 -39.5 5.5t-44.5 4.5l12 66q42 5 93 7t99 0zM303 658q0 -32 -22 -52.5t-51 -20.5t-46 18.5t-17 42.5 q0 32 21.5 52.5t50.5 20.5q28 0 46 -19t18 -42z" />
<glyph unicode="k" horiz-adv-x="494" d="M297 270l142 -270h-127l-120 257l-49 -257h-105l124 647q-17 3 -40 5.5t-44 4.5l12 66q42 5 93 7t99 0l-84 -441l225 235l80 -58z" />
<glyph unicode="l" horiz-adv-x="263" d="M143 0h-105l124 647q-17 3 -40 5.5t-44 4.5l12 66q42 5 93 7t99 0z" />
<glyph unicode="m" horiz-adv-x="884" d="M764 0h-105l60 315q11 54 2 77.5t-37 23.5q-26 0 -56.5 -26.5t-58.5 -69t-50.5 -96t-32.5 -106.5l-22 -118h-104l60 315q11 54 2 77.5t-37 23.5q-26 0 -56.5 -26.5t-58.5 -69t-50.5 -96t-32.5 -106.5l-22 -118h-105l80 414q-17 3 -39.5 5.5t-44.5 4.5l12 66q42 5 93 7 t96 0q-8 -44 -21 -88t-29 -89l2 -1q17 37 39 71t49 60t59.5 42t69.5 16q47 0 73.5 -25t26.5 -73q0 -20 -4.5 -40.5t-15.5 -52.5h2q17 37 39.5 72t50 61t59.5 42t69 16q69 0 93 -46t10 -122z" />
<glyph unicode="n" horiz-adv-x="589" d="M469 0h-104l60 315q10 54 1 77.5t-38 23.5q-30 0 -62 -29.5t-60 -74.5t-49 -97t-30 -97l-22 -118h-105l80 414q-17 3 -39.5 5.5t-44.5 4.5l12 66q42 5 93 7t96 0q-5 -23 -16 -65t-34 -112l2 -1q17 37 39.5 71t50 60t60 42t70.5 16q71 0 95 -46t10 -122z" />
<glyph unicode="o" horiz-adv-x="542" d="M406 314q0 50 -22.5 76t-72.5 26q-38 0 -69 -20t-53 -52.5t-33.5 -74t-11.5 -84.5q0 -49 21 -76t72 -27q35 0 66 18t54 49.5t36 73.5t13 91zM517 326q0 -77 -24.5 -139t-66 -105.5t-94.5 -67.5t-110 -24q-99 0 -143.5 46.5t-44.5 131.5q0 76 23 138.5t63 107t93.5 69 t113.5 24.5q51 0 87 -13.5t59 -37.5t33.5 -57t10.5 -73z" />
<glyph unicode="p" horiz-adv-x="568" d="M434 335q0 43 -12 62t-32 19q-32 0 -64 -30.5t-60 -75t-48.5 -95.5t-28.5 -93l-7 -35q14 -5 32 -8t32 -3q49 0 85 24.5t58.5 62t33.5 83.5t11 89zM543 354q0 -69 -18.5 -134.5t-57.5 -116t-98.5 -81t-141.5 -30.5q-17 0 -31.5 1.5t-31.5 3.5l-45 -241h-105l126 658 q-17 3 -39.5 5.5t-44.5 4.5l12 66q42 5 93 7t96 0q-3 -15 -7 -32t-10 -38l-14 -48l-19 -62l2 -1q19 41 42 76t50.5 61t59.5 40.5t68 14.5q56 0 85 -37t29 -117z" />
<glyph unicode="q" horiz-adv-x="540" d="M394 413q-14 4 -29.5 6.5t-34.5 2.5q-50 0 -85.5 -24.5t-58.5 -62.5t-34 -84t-11 -89t12 -62t33 -19t42.5 14t42 37.5t39 54t34 63.5t26.5 66t17 61zM389 -161q17 -3 39.5 -5.5t44.5 -4.5l-12 -66q-42 -5 -93 -7.5t-99 -0.5l41 219q4 23 9.5 45t12.5 46l16 52.5t22 64.5 l-2 1q-14 -28 -35 -62t-48.5 -63t-62 -49t-76.5 -20q-55 0 -84 37t-29 117q0 69 18.5 134.5t57 116t98 81t141.5 30.5q88 0 165 -15z" />
<glyph unicode="r" horiz-adv-x="386" d="M400 402q-24 9 -47 1t-44.5 -28.5t-41 -50.5t-35 -65.5t-27.5 -74t-19 -74.5l-21 -110h-105l80 414q-17 3 -39.5 5.5t-44.5 4.5l12 66q42 5 92.5 7t95.5 0q-6 -31 -17 -70t-31 -98l2 -1q21 43 42.5 79t46.5 60.5t55 35t68 2.5z" />
<glyph unicode="s" horiz-adv-x="379" d="M337 415q-17 6 -35 8.5t-36 2.5q-45 0 -67 -17.5t-22 -46.5q0 -27 22 -47t48.5 -41.5t48.5 -49t22 -68.5q0 -31 -13.5 -61t-41 -53t-69 -37.5t-96.5 -14.5q-25 0 -45.5 2t-39.5 6l18 93q39 -14 79 -14q45 0 71.5 17t26.5 51q0 18 -10.5 32t-26 27t-33.5 26.5t-33.5 30.5 t-26 38.5t-10.5 51.5q0 33 13 61.5t38.5 49.5t63.5 33t89 12q25 0 45.5 -2t39.5 -6z" />
<glyph unicode="t" horiz-adv-x="366" d="M363 414h-127l-46 -244q-10 -52 -1 -70t43 -18q20 0 36 2t30 5l-8 -87q-23 -5 -49 -8t-48 -3q-78 0 -102.5 39t-7.5 126l49 258h-94l17 83h93l30 158l109 23l-35 -181h128z" />
<glyph unicode="u" horiz-adv-x="612" d="M484 83q17 -3 40 -5.5t44 -4.5l-13 -66q-42 -5 -92 -7t-95 0q4 23 15 65t35 112l-2 1q-18 -37 -40.5 -71t-50 -60.5t-60.5 -42t-70 -15.5q-70 0 -94.5 46t-10.5 122l50 257q-17 3 -39.5 5.5t-44.5 4.5l12 66q43 5 95 7t97 0l-61 -315q-10 -54 -0.5 -77.5t38.5 -23.5 q30 0 62 29.5t60 74.5t49 97t29 97l22 118h105z" />
<glyph unicode="v" horiz-adv-x="481" d="M254 0h-109l-88 497h112l41 -258q5 -26 7 -53l4 -53h2l194 385l101 -32z" />
<glyph unicode="w" horiz-adv-x="777" d="M566 0h-119l-33 252q-3 24 -5 50t-3 55h-1l-85 -178.5l-88 -178.5h-112l-54 497h111l20 -231q3 -35 5.5 -69.5t3.5 -63.5h1l86 182.5l89 181.5h106l30 -230q5 -39 7.5 -74t3.5 -61h1l89.5 192.5l90.5 192.5l100 -30z" />
<glyph unicode="x" horiz-adv-x="517" d="M328 244l124 -244h-124l-82 177l-184 -205l-85 55l221 230l-119 240h119l80 -175l181 202l83 -53z" />
<glyph unicode="y" horiz-adv-x="497" d="M524 489q-102 -239 -194 -399t-183 -251q-92 -91 -184 -91q-40 0 -72 8l18 94q27 -10 61 -10q26 0 53 13t50 37q26 27 38.5 60.5t12.5 84.5q0 103 -20.5 221.5t-53.5 240.5h117q12 -45 21.5 -94.5t17 -98.5t11.5 -95.5t4 -86.5q0 -11 -2 -25l-4 -27h1q55 98 105 205.5 t105 241.5l98 -28v0z" />
<glyph unicode="z" horiz-adv-x="433" d="M417 422l-263 -326q18 1 52.5 1.5t65.5 0.5h88l-19 -98h-340l15 76l266 327q-19 -1 -46.5 -1.5t-65.5 -0.5h-87l19 96h330z" />
<glyph unicode="{" horiz-adv-x="344" d="M401 690q-25 0 -42.5 -5.5t-30.5 -19t-21.5 -36.5t-15.5 -59l-19 -103q-15 -77 -45.5 -112t-75.5 -40v-2q41 -6 58.5 -43t3.5 -110l-30 -156q-7 -36 -7.5 -59t6.5 -36.5t22.5 -19t40.5 -5.5l-16 -85h-19q-89 0 -117 52.5t-8 154.5l31 157q12 61 -8.5 84.5t-71.5 26.5 l16 82q27 1 47.5 6.5t35 17.5t24 32.5t15.5 51.5l19 104q9 48 24.5 86t40 65t58.5 41t80 14h21z" />
<glyph unicode="|" horiz-adv-x="280" d="M90 -244h-83l190 1000h84z" />
<glyph unicode="}" horiz-adv-x="344" d="M329 274q-28 -2 -48.5 -7.5t-35 -18.5t-24 -33.5t-15.5 -51.5l-29 -156q-21 -108 -68 -158t-135 -50h-21l16 85q25 0 43 5.5t30.5 19.5t21 37t15.5 59l29 155q15 77 46 113.5t75 41.5v2q-41 6 -58 42t-3 108l20 104q7 36 7 59t-7 36.5t-22.5 19t-40.5 5.5l16 83h18 q45 0 74 -14t44 -40.5t16.5 -64.5t-8.5 -87l-21 -104q-12 -61 8.5 -83t71.5 -25z" />
<glyph unicode="~" d="M563 579q-4 -79 -45 -123t-107 -44q-42 0 -65.5 17t-40 37l-31.5 37t-39 17q-28 0 -43.5 -23.5t-19.5 -61.5h-80q4 79 45 122.5t107 43.5q42 0 65.5 -17t40 -37l31.5 -37t39 -17q28 0 43.5 23.5t19.5 62.5h80v0z" />
<glyph horiz-adv-x="519" d="M540 589l-345 -437l-21.5 -27t-23.5 -27q21 2 53 2h248l-20 -100h-431l16 83l327 423q16 20 31.5 37.5l32.5 35.5q-21 -1 -47 -1h-241l19 97h418zM356 720l-148 84l32 56l123 -61l141 61l22 -54z" />
<glyph unicode="&#x17d;" horiz-adv-x="519" d="M540 589l-345 -437l-21.5 -27t-23.5 -27q21 2 53 2h248l-20 -100h-431l16 83l327 423q16 20 31.5 37.5l32.5 35.5q-21 -1 -47 -1h-241l19 97h418zM356 720l-148 84l32 56l123 -61l141 61l22 -54z" />
<glyph horiz-adv-x="433" d="M417 422l-263 -326q18 1 52.5 1.5t65.5 0.5h88l-19 -98h-340l15 76l266 327q-19 -1 -46.5 -1.5t-65.5 -0.5h-87l19 96h330zM278 566l-120 132l49 50l85 -83l114 83l37 -49z" />
<glyph unicode="&#x17e;" horiz-adv-x="433" d="M417 422l-263 -326q18 1 52.5 1.5t65.5 0.5h88l-19 -98h-340l15 76l266 327q-19 -1 -46.5 -1.5t-65.5 -0.5h-87l19 96h330zM278 566l-120 132l49 50l85 -83l114 83l37 -49z" />
<glyph unicode="&#xa1;" horiz-adv-x="314" d="M126 -208h-123l117 528h89zM255 444q0 -31 -20.5 -50.5t-49.5 -19.5t-47 18.5t-18 44.5q0 31 20.5 50.5t49.5 19.5t47 -18.5t18 -44.5z" />
<glyph unicode="&#xa2;" d="M484 455q-47 24 -103 24q-40 0 -73 -15t-56 -40.5t-36 -60.5t-13 -75q0 -48 28 -73t88 -25q30 0 59.5 6.5t61.5 20.5l14 -84q-29 -13 -61.5 -21.5t-62.5 -10.5l-19 -101h-82l19 101q-75 8 -117 48t-42 120q0 61 18.5 111.5t51.5 88t78.5 61.5t98.5 32l17 88h82l-17 -85 q24 -2 51 -7.5t53 -15.5z" />
<glyph unicode="&#xa3;" d="M502 554q-22 8 -48 13.5t-54 5.5q-41 0 -65.5 -17t-38 -46t-18 -66.5t-5.5 -79.5h157l-16 -83h-145q0 -32 -5.5 -58.5t-17 -49.5t-29 -43t-42.5 -40q16 1 35.5 1.5t40.5 0.5h207l-18 -92h-414l14 73q38 28 61.5 51.5t37 47t18.5 50t5 59.5h-102l16 83h90q1 52 9.5 105 t34.5 95.5t74.5 69t128.5 26.5q27 0 60.5 -4t61.5 -12z" />
<glyph unicode="&#xa4;" d="M392 369q0 32 -17.5 52t-57.5 20q-29 0 -51.5 -12.5t-38 -33.5t-23.5 -47t-8 -53q0 -33 16.5 -55t56.5 -22q29 0 52 14t38.5 36t24 48.5t8.5 52.5zM474 449q14 -22 14 -63q0 -45 -15 -89t-51 -84l62 -102l-89 -57l-59 106q-43 -20 -84 -20q-37 0 -61 11l-89 -96l-73 61 l88 88q-18 27 -18 76q0 45 16 90.5t54 82.5l-57 95l89 56l54 -100q38 16 80 16q18 0 36.5 -3t33.5 -11l92 98l69 -61z" />
<glyph unicode="&#xa5;" d="M367 307h135l-14 -70h-161l-12 -66h161l-13 -70h-161l-19 -101h-108l19 101h-160l14 70h160l12 66h-160l13 70h136l-102 343h115l50 -186q8 -29 13.5 -56.5l10.5 -50.5h1q14 26 32 55.5l36 56.5l119 181h119z" />
<glyph unicode="&#xa6;" horiz-adv-x="280" d="M90 -244h-83l72 378h83zM211 388h-83l69 368h84z" />
<glyph unicode="&#xa7;" horiz-adv-x="514" d="M341 248q0 21 -8 40.5t-22 39.5t-33 42.5l-40 48.5q-30 -19 -43 -44t-13 -52q0 -20 8 -39.5t22 -40t33 -42.5l40 -47q30 20 43 45t13 49zM445 639q-18 6 -33.5 8.5t-31.5 2.5q-30 0 -49 -9t-30.5 -22t-16 -28.5t-4.5 -28.5q0 -20 12 -39t29.5 -39.5l38 -43t38 -49 t29.5 -57.5t12 -68q0 -50 -27.5 -94.5t-76.5 -76.5q9 -14 14.5 -33t5.5 -41q0 -36 -15 -69.5t-43.5 -59.5t-70.5 -42t-96 -16q-23 0 -45.5 2.5t-41.5 7.5l22 91q20 -6 37.5 -9.5t35.5 -3.5q30 0 50 9t32 22.5t17 29t5 28.5q0 21 -11.5 41.5t-29.5 41.5l-38 43t-38 47.5 t-29.5 54.5t-11.5 64q0 105 105 175q-12 21 -17.5 39.5t-5.5 39.5q0 25 11.5 56.5t37 59t67.5 46t104 18.5q43 0 81 -8z" />
<glyph unicode="&#xa8;" horiz-adv-x="500" d="M273 654q0 -27 -18.5 -45t-44.5 -18t-42.5 17.5t-16.5 41.5q0 26 19 44t44 18q26 0 42.5 -17.5t16.5 -40.5zM469 654q0 -27 -18.5 -45t-43.5 -18q-26 0 -42.5 17.5t-16.5 41.5q0 26 18.5 44t44.5 18q25 0 41.5 -17.5t16.5 -40.5z" />
<glyph unicode="&#xa9;" horiz-adv-x="743" d="M490 426q-26 16 -64 16q-30 0 -50.5 -14t-33.5 -35.5t-18.5 -47t-5.5 -48.5q0 -31 15 -48t47 -17q19 0 39 3.5t38 11.5l3 -71q-24 -9 -50.5 -14t-49.5 -5q-66 0 -99 33.5t-33 92.5q0 46 14 88t40.5 73.5t64 50t84.5 18.5q29 0 49 -4t35 -10zM646 347q0 50 -19 94.5 t-52 78t-77.5 53t-96.5 19.5q-53 0 -101.5 -20.5t-85 -56.5t-58 -85.5t-21.5 -107.5q0 -51 19 -95.5t52 -78t78 -53t96 -19.5q53 0 101.5 20.5t85 57t58 86t21.5 107.5zM729 351q0 -76 -29 -141t-77.5 -112t-112.5 -74t-134 -27t-129.5 25t-103 68.5t-68 102t-24.5 125.5 q0 75 29 140t77.5 112.5t112.5 74.5t135 27q69 0 128 -25t102.5 -68.5t68.5 -102t25 -125.5z" />
<glyph unicode="&#xaa;" horiz-adv-x="395" d="M414 341q-33 -4 -71 -6t-73 0q9 38 29 95h-1q-26 -48 -61 -75t-78 -27q-87 0 -87 107q0 49 14.5 93.5t42.5 78.5t69.5 54.5t95.5 20.5q30 0 60.5 -2t62.5 -7q-2 -12 -6.5 -34l-9.5 -48l-10.5 -54.5l-10.5 -54t-8.5 -45.5t-5.5 -30q12 -2 28.5 -3.5t30.5 -3.5zM362 195 h-309l16 84h309zM320 607q-23 6 -43 6q-28 0 -49.5 -14t-36.5 -37t-22.5 -51.5t-7.5 -56.5q0 -27 7 -38.5t22 -11.5q20 0 40 15.5t37 40.5t30 57t19 66z" />
<glyph unicode="&#xab;" horiz-adv-x="506" d="M163 293l66 -147l-87 -39l-82 192l142 182l77 -42zM365 293l74 -143l-86 -40l-91 188l150 180l75 -43z" />
<glyph unicode="&#xac;" d="M460 100h-94l29 153h-351l17 89h352h93z" />
<glyph unicode="&#xad;" horiz-adv-x="329" d="M285 240h-238l16 86h238z" />
<glyph unicode="&#x2010;" horiz-adv-x="329" d="M285 240h-238l16 86h238z" />
<glyph unicode="&#xae;" horiz-adv-x="552" d="M370 585q0 19 -26 19h-20l-11 -57h12q21 0 33 10.5t12 27.5zM428 595q0 -29 -17 -49t-46 -28q3 -5 6.5 -13t6.5 -16l25 -70h-62l-28 90h-8l-17 -90h-52l43 226h79q38 0 54 -13.5t16 -36.5zM487 538q0 31 -11 58.5t-30.5 48.5t-46.5 33.5t-58 12.5q-32 0 -61.5 -13 t-52 -35.5t-36 -53.5t-13.5 -67q0 -31 11 -59t30.5 -49t46.5 -33.5t58 -12.5q32 0 61.5 13t52 35.5t36 54t13.5 67.5zM556 542q0 -51 -19.5 -94.5t-52.5 -75t-75.5 -49.5t-87.5 -18t-84 16t-67.5 44.5t-44.5 67t-16 83.5q0 52 19.5 95.5t52 75t75 49.5t88.5 18 q45 0 83.5 -16t67 -44.5t45 -67.5t16.5 -84z" />
<glyph unicode="&#xaf;" horiz-adv-x="392" d="M393 609h-254l14 78h255z" />
<glyph unicode="&#x2c9;" horiz-adv-x="392" d="M393 609h-254l14 78h255z" />
<glyph unicode="&#xb0;" horiz-adv-x="374" d="M314 609q0 9 -2.5 19.5t-9 19.5t-17 14.5t-25.5 5.5q-26 0 -44.5 -18.5t-18.5 -50.5q0 -27 14.5 -43.5t41.5 -16.5q26 0 43.5 19t17.5 51zM396 616q0 -37 -13.5 -64t-35 -45t-48.5 -27t-55 -9q-63 0 -96 33.5t-33 87.5q0 36 13.5 63t35 45t48 27t53.5 9q34 0 59 -9.5 t41 -26t23.5 -38.5t7.5 -46z" />
<glyph unicode="&#xb1;" d="M462 0h-463l17 89h463zM529 340h-183l-36 -190h-102l36 190h-183l16 89h184l36 189h102l-37 -189h184z" />
<glyph unicode="&#xb2;" horiz-adv-x="313" d="M321 583q0 -35 -19 -62.5t-63 -60.5l-47 -35h111l-14 -70h-222l12 61l76 58q21 16 34.5 28t21.5 22t11 19t3 18q0 13 -8.5 21t-26.5 8q-13 0 -29 -4.5t-29 -12.5l-11 64q22 10 47 16t51 6q54 0 78 -22t24 -54z" />
<glyph unicode="&#xb3;" horiz-adv-x="524" d="M311 592q0 -27 -14 -49t-45 -35q22 -3 33 -17.5t11 -36.5q0 -21 -9.5 -40.5t-29 -34.5t-49.5 -24t-71 -9q-18 0 -37.5 2.5t-30.5 5.5l17 59q10 -3 23.5 -5.5t25.5 -2.5q68 0 68 47q0 17 -21 24t-70 1l10 52h16q46 0 64.5 14t18.5 34q0 10 -8 17t-27 7q-15 0 -29.5 -3.5 t-26.5 -8.5l-7 54q18 7 42.5 11.5t48.5 4.5q52 0 74.5 -19.5t22.5 -47.5z" />
<glyph unicode="&#xb4;" horiz-adv-x="390" d="M185 566l-38 58l166 124l46 -73z" />
<glyph unicode="&#xb5;" horiz-adv-x="597" d="M503 207q-6 -33 -8.5 -56t-2.5 -37q0 -19 6 -26t20 -7h9t11 2l-6 -85q-14 -3 -27 -4.5t-24 -1.5q-45 0 -67 17.5t-22 60.5q0 18 4.5 44.5t18.5 63.5h-1q-17 -38 -38 -72t-46 -59.5t-52.5 -40.5t-56.5 -15q-64 0 -73 57q-1 -17 -1.5 -36t-2.5 -33q-8 -50 -12 -103.5 t-3 -119.5h-105q2 90 11.5 162t22.5 137t28 127.5t29 133.5l18 98q-17 3 -38 5.5t-41 4.5l12 66q42 5 92.5 7t95.5 0l-54 -281q-14 -77 -5 -106t39 -29q29 0 60.5 29.5t59 74.5t48.5 97t30 97l22 118h104z" />
<glyph unicode="&#x3bc;" horiz-adv-x="597" d="M503 207q-6 -33 -8.5 -56t-2.5 -37q0 -19 6 -26t20 -7h9t11 2l-6 -85q-14 -3 -27 -4.5t-24 -1.5q-45 0 -67 17.5t-22 60.5q0 18 4.5 44.5t18.5 63.5h-1q-17 -38 -38 -72t-46 -59.5t-52.5 -40.5t-56.5 -15q-64 0 -73 57q-1 -17 -1.5 -36t-2.5 -33q-8 -50 -12 -103.5 t-3 -119.5h-105q2 90 11.5 162t22.5 137t28 127.5t29 133.5l18 98q-17 3 -38 5.5t-41 4.5l12 66q42 5 92.5 7t95.5 0l-54 -281q-14 -77 -5 -106t39 -29q29 0 60.5 29.5t59 74.5t48.5 97t30 97l22 118h104z" />
<glyph unicode="&#xb6;" horiz-adv-x="573" d="M286 240q-48 0 -83.5 12.5t-59 35.5t-34.5 55t-11 70q0 48 18 95t52.5 84t85 60t115.5 23zM587 591h-67l-131 -687h-93h-69l16 84h70l131 687h93h65z" />
<glyph unicode="&#xb7;" horiz-adv-x="250" d="M210 300q0 -32 -22.5 -53.5t-53.5 -21.5q-29 0 -49.5 20.5t-20.5 49.5q0 32 23 53.5t53 21.5t50 -20.5t20 -49.5z" />
<glyph unicode="&#x2219;" horiz-adv-x="250" d="M210 300q0 -32 -22.5 -53.5t-53.5 -21.5q-29 0 -49.5 20.5t-20.5 49.5q0 32 23 53.5t53 21.5t50 -20.5t20 -49.5z" />
<glyph unicode="&#xb8;" horiz-adv-x="354" d="M199 -40q29 -52 15 -100t-62 -95h-87q44 46 56.5 83.5t-14.5 81.5l92 30v0z" />
<glyph unicode="&#xb9;" horiz-adv-x="306" d="M236 355h-86l41 222l-72 -30l-4 65l98 38h79z" />
<glyph unicode="&#xba;" horiz-adv-x="414" d="M335 546q0 26 -11.5 44t-43.5 18q-28 0 -47.5 -14.5t-31.5 -35.5t-17 -45.5t-5 -45.5q0 -29 12.5 -45.5t41.5 -16.5q23 0 42 11.5t32.5 31t20.5 45t7 53.5zM344 195h-291l16 84h291zM427 558q0 -56 -17.5 -98.5t-46.5 -72t-66.5 -44.5t-77.5 -15q-66 0 -98.5 32t-32.5 92 q0 47 14 89.5t40.5 74.5t64 50.5t84.5 18.5q38 0 64 -9.5t42 -26.5t23 -40.5t7 -50.5z" />
<glyph unicode="&#xbb;" horiz-adv-x="506" d="M126 111l-74 43l122 141l-75 143l86 40l92 -187zM336 108l-76 42l115 145l-66 147l88 40l82 -192z" />
<glyph unicode="&#xbc;" horiz-adv-x="701" d="M428 114h73l25 126zM614 52h-47l-10 -52h-78l10 52h-140l5 58l141 185h118l-35 -180h48zM72 -21l-57 51l611 639l58 -51zM236 355h-87l42 222l-73 -30l-3 65l97 38h80z" />
<glyph unicode="&#xbd;" horiz-adv-x="704" d="M236 355h-87l42 222l-73 -30l-3 65l97 38h80zM72 -21l-57 51l611 639l58 -51zM633 227q0 -34 -18.5 -62t-63.5 -60l-47 -36h111l-13 -69h-223l12 61l77 58q20 16 33.5 28t21.5 22t11 19t3 18q0 12 -8.5 20.5t-26.5 8.5q-12 0 -28 -5t-30 -13l-11 65q23 10 48 16t50 6 q54 0 78 -22t24 -55z" />
<glyph unicode="&#xbe;" horiz-adv-x="703" d="M313 592q0 -27 -14 -49t-45 -35q22 -3 33 -17.5t11 -36.5q0 -21 -9.5 -40.5t-29 -34.5t-49.5 -24t-71 -9q-17 0 -36.5 2.5t-30.5 5.5l16 59q11 -3 24 -5.5t25 -2.5q68 0 68 47q0 17 -20.5 24t-69.5 1l9 52h16q47 0 65 14t18 34q0 10 -7.5 17t-27.5 7q-14 0 -28.5 -3.5 t-26.5 -8.5l-7 54q17 7 41.5 11.5t48.5 4.5q53 0 75 -19.5t22 -47.5zM74 -21l-57 51l611 639l58 -51zM618 52h-48l-10 -52h-77l10 52h-141l6 58l141 185h118l-35 -180h48zM432 114h73l24 126z" />
<glyph unicode="&#xbf;" horiz-adv-x="439" d="M321 320q8 -51 -3.5 -88t-33 -65t-48.5 -49.5l-51 -41.5t-40.5 -42t-16.5 -50q0 -22 13 -39.5t35.5 -30t53.5 -21t68 -12.5l-32 -97q-64 4 -112 20.5t-80 41t-48 55.5t-16 66q0 43 17 74.5t42 56t53.5 46.5t51.5 46.5t36.5 55.5t7.5 74h103v0zM358 444q0 -31 -20.5 -50.5 t-49.5 -19.5t-47 18.5t-18 44.5q0 31 20.5 50.5t49.5 19.5t47 -18.5t18 -44.5z" />
<glyph unicode="&#xc0;" horiz-adv-x="609" d="M443 0l-22 149h-268l-79 -149h-113l364 675h123l110 -675h-115zM374 464q-3 23 -5.5 47.5l-4.5 45.5h-1l-20 -44.5t-24 -46.5l-123 -230h214zM436 721l-198 55l35 79l188 -74z" />
<glyph unicode="&#xc1;" horiz-adv-x="609" d="M443 0l-22 149h-268l-79 -149h-113l364 675h123l110 -675h-115zM374 464q-3 23 -5.5 47.5l-4.5 45.5h-1l-20 -44.5t-24 -46.5l-123 -230h214zM328 721l-14 60l200 74l18 -79z" />
<glyph unicode="&#xc2;" horiz-adv-x="609" d="M443 0l-22 149h-268l-79 -149h-113l364 675h123l110 -675h-115zM374 464q-3 23 -5.5 47.5l-4.5 45.5h-1l-20 -44.5t-24 -46.5l-123 -230h214zM521 720l-123 61l-141 -61l-22 54l170 86l148 -84z" />
<glyph unicode="&#xc3;" horiz-adv-x="609" d="M443 0l-22 149h-268l-79 -149h-113l364 675h123l110 -675h-115zM374 464q-3 23 -5.5 47.5l-4.5 45.5h-1l-20 -44.5t-24 -46.5l-123 -230h214zM576 809q-45 -77 -119 -77q-25 0 -42 8t-30.5 17l-25.5 17t-27 8q-18 0 -33 -11t-29 -33l-51 37q22 38 51.5 58t66.5 20 q25 0 42 -8t30.5 -17l26 -17t27.5 -8q32 0 61 44l52 -38v0z" />
<glyph unicode="&#xc4;" horiz-adv-x="609" d="M443 0l-22 149h-268l-79 -149h-113l364 675h123l110 -675h-115zM374 464q-3 23 -5.5 47.5l-4.5 45.5h-1l-20 -44.5t-24 -46.5l-123 -230h214zM559 784q0 -26 -18 -43t-42 -17t-39.5 16.5t-15.5 39.5q0 26 17.5 43.5t41.5 17.5t40 -17t16 -40zM350 784q0 -26 -18 -43 t-42 -17t-40 16.5t-16 39.5q0 26 18 43.5t42 17.5t40 -17t16 -40z" />
<glyph unicode="&#xc5;" horiz-adv-x="609" d="M443 0l-22 149h-268l-79 -149h-113l364 675h123l110 -675h-115zM374 464q-3 23 -5.5 47.5l-4.5 45.5h-1l-20 -44.5t-24 -46.5l-123 -230h214zM542 890q0 -30 -10.5 -54.5t-30 -42t-46 -27.5t-58.5 -10q-48 0 -76.5 23t-28.5 64q0 29 11 53.5t30.5 42.5t46 28t57.5 10 q48 0 76.5 -23.5t28.5 -63.5zM407 812q28 0 44 19.5t16 48.5q0 18 -10.5 29.5t-29.5 11.5q-28 0 -44 -20t-16 -49q0 -18 10.5 -29t29.5 -11z" />
<glyph unicode="&#xc6;" horiz-adv-x="761" d="M423 585l-39 -65.5t-52 -78.5l-142 -201h169l66 345h-2zM765 584h-237l-37 -192h229l-17 -89h-229l-41 -210h247l-18 -93h-349l29 154h-206l-105 -154h-117l463 675h405z" />
<glyph unicode="&#xc7;" horiz-adv-x="556" d="M560 562q-66 23 -130 23q-71 0 -120.5 -31.5t-80.5 -81t-45 -109.5t-14 -118q0 -35 8 -63.5t26.5 -48.5t49 -31.5t75.5 -11.5q39 0 76.5 8.5t69.5 22.5l1 -97q-39 -14 -86.5 -23t-92.5 -9q-75 0 -122.5 20.5t-75.5 53.5t-38.5 75t-10.5 85q0 88 25 170t74.5 145.5 t122.5 101.5t170 38q82 0 147 -20zM303 -40q29 -52 15 -100t-62 -95h-87q44 46 56.5 83.5t-14.5 81.5l92 30v0z" />
<glyph unicode="&#xc8;" horiz-adv-x="487" d="M492 584h-242l-36 -192h231l-18 -89h-230l-40 -210h242l-17 -93h-242h-107l128 675h107h242zM393 721l-198 55l35 79l188 -74z" />
<glyph unicode="&#xc9;" horiz-adv-x="487" d="M492 584h-242l-36 -192h231l-18 -89h-230l-40 -210h242l-17 -93h-242h-107l128 675h107h242zM277 721l-14 60l200 74l18 -79z" />
<glyph unicode="&#xca;" horiz-adv-x="487" d="M492 584h-242l-36 -192h231l-18 -89h-230l-40 -210h242l-17 -93h-242h-107l128 675h107h242zM472 720l-123 61l-141 -61l-22 54l170 86l148 -84z" />
<glyph unicode="&#xcb;" horiz-adv-x="487" d="M492 584h-242l-36 -192h231l-18 -89h-230l-40 -210h242l-17 -93h-242h-107l128 675h107h242zM508 784q0 -26 -18 -43t-42 -17t-39.5 16.5t-15.5 39.5q0 26 17.5 43.5t41.5 17.5t40 -17t16 -40zM299 784q0 -26 -18 -43t-42 -17t-40 16.5t-16 39.5q0 26 18 43.5t42 17.5 t40 -17t16 -40z" />
<glyph unicode="&#xcc;" horiz-adv-x="260" d="M140 0h-107l128 675h107zM281 721l-198 55l35 79l188 -74z" />
<glyph unicode="&#xcd;" horiz-adv-x="260" d="M140 0h-107l128 675h107zM161 721l-14 60l200 74l18 -79z" />
<glyph unicode="&#xce;" horiz-adv-x="260" d="M140 0h-107l128 675h107zM355 720l-123 61l-141 -61l-22 54l170 86l148 -84z" />
<glyph unicode="&#xcf;" horiz-adv-x="260" d="M140 0h-107l128 675h107zM390 784q0 -26 -18 -43t-42 -17t-39.5 16.5t-15.5 39.5q0 26 17.5 43.5t41.5 17.5t40 -17t16 -40zM181 784q0 -26 -18 -43t-42 -17t-40 16.5t-16 39.5q0 26 18 43.5t42 17.5t40 -17t16 -40z" />
<glyph unicode="&#xd0;" horiz-adv-x="668" d="M542 423q0 36 -9 66.5t-31 52.5t-57 34t-89 12q-31 0 -55.5 -0.5t-41.5 -2.5l-38 -199h132l-16 -82h-132l-40 -210q16 -2 37.5 -3.5t36.5 -1.5q84 0 142 31.5t93 80.5t50.5 108t17.5 114zM658 434q-2 -99 -27.5 -170.5t-79 -132.5t-135.5 -98t-193 -37h-34t-42 1 q-19 0 -46.5 1t-59.5 2l57 304h-81l16 82h81l55 288l58 1.5t49 1.5q10 0 38.5 0.5t55.5 0.5q75 0 129.5 -17t89.5 -48.5t52 -76.5t17 -102z" />
<glyph unicode="&#xd1;" horiz-adv-x="673" d="M552 0h-102h-23l-149 379q-14 38 -26 75t-21 70q-7 -54 -17 -111l-20 -114l-56 -299h-105l128 675h104h23l146 -367q14 -37 27 -76t24 -76l17 110t20 113l54 296h105zM623 809q-45 -77 -119 -77q-25 0 -42 8t-30.5 17l-25.5 17t-27 8q-18 0 -33 -11t-29 -33l-51 37 q22 38 51.5 58t66.5 20q25 0 42 -8t30.5 -17l26 -17t27.5 -8q32 0 61 44l52 -38v0z" />
<glyph unicode="&#xd2;" horiz-adv-x="690" d="M568 427q0 74 -36 118t-112 44q-57 0 -104.5 -27.5t-81.5 -74t-52.5 -107.5t-18.5 -127q0 -78 36.5 -122t107.5 -44q55 0 102.5 26.5t82.5 73t55.5 108t20.5 132.5zM683 439q0 -97 -31 -179t-84 -142t-124 -94t-152 -34q-125 0 -185 65t-60 181q0 91 30 173t82.5 143 t123.5 97t154 36q121 0 183.5 -64t62.5 -182zM496 721l-198 55l35 79l188 -74z" />
<glyph unicode="&#xd3;" horiz-adv-x="690" d="M568 427q0 74 -36 118t-112 44q-57 0 -104.5 -27.5t-81.5 -74t-52.5 -107.5t-18.5 -127q0 -78 36.5 -122t107.5 -44q55 0 102.5 26.5t82.5 73t55.5 108t20.5 132.5zM683 439q0 -97 -31 -179t-84 -142t-124 -94t-152 -34q-125 0 -185 65t-60 181q0 91 30 173t82.5 143 t123.5 97t154 36q121 0 183.5 -64t62.5 -182zM385 721l-14 60l200 74l18 -79z" />
<glyph unicode="&#xd4;" horiz-adv-x="690" d="M568 427q0 74 -36 118t-112 44q-57 0 -104.5 -27.5t-81.5 -74t-52.5 -107.5t-18.5 -127q0 -78 36.5 -122t107.5 -44q55 0 102.5 26.5t82.5 73t55.5 108t20.5 132.5zM683 439q0 -97 -31 -179t-84 -142t-124 -94t-152 -34q-125 0 -185 65t-60 181q0 91 30 173t82.5 143 t123.5 97t154 36q121 0 183.5 -64t62.5 -182zM574 720l-123 61l-141 -61l-22 54l170 86l148 -84z" />
<glyph unicode="&#xd5;" horiz-adv-x="690" d="M568 427q0 74 -36 118t-112 44q-57 0 -104.5 -27.5t-81.5 -74t-52.5 -107.5t-18.5 -127q0 -78 36.5 -122t107.5 -44q55 0 102.5 26.5t82.5 73t55.5 108t20.5 132.5zM683 439q0 -97 -31 -179t-84 -142t-124 -94t-152 -34q-125 0 -185 65t-60 181q0 91 30 173t82.5 143 t123.5 97t154 36q121 0 183.5 -64t62.5 -182zM633 809q-45 -77 -119 -77q-25 0 -42 8t-30.5 17l-25.5 17t-27 8q-18 0 -33 -11t-29 -33l-51 37q22 38 51.5 58t66.5 20q25 0 42 -8t30.5 -17l26 -17t27.5 -8q32 0 61 44l52 -38v0z" />
<glyph unicode="&#xd6;" horiz-adv-x="690" d="M568 427q0 74 -36 118t-112 44q-57 0 -104.5 -27.5t-81.5 -74t-52.5 -107.5t-18.5 -127q0 -78 36.5 -122t107.5 -44q55 0 102.5 26.5t82.5 73t55.5 108t20.5 132.5zM683 439q0 -97 -31 -179t-84 -142t-124 -94t-152 -34q-125 0 -185 65t-60 181q0 91 30 173t82.5 143 t123.5 97t154 36q121 0 183.5 -64t62.5 -182zM617 784q0 -26 -18 -43t-42 -17t-39.5 16.5t-15.5 39.5q0 26 17.5 43.5t41.5 17.5t40 -17t16 -40zM408 784q0 -26 -18 -43t-42 -17t-40 16.5t-16 39.5q0 26 18 43.5t42 17.5t40 -17t16 -40z" />
<glyph unicode="&#xd7;" d="M349 295l132 -164l-72 -58l-131 163l-193 -163l-53 64l194 163l-132 163l72 58l131 -161l191 161l54 -64z" />
<glyph unicode="&#xd8;" horiz-adv-x="690" d="M450 586q-12 2 -25.5 2.5t-27.5 -0.5q-52 -6 -96 -35t-75 -75t-48.5 -104.5t-17.5 -122.5q0 -38 10 -68.5t32 -50.5l248 454v0zM571 428q0 38 -7.5 60.5t-16 35.5t-24.5 27l-252 -460q27 -6 62 -1q50 6 93 34.5t75.5 73.5t51 104t18.5 126zM683 439q0 -97 -31 -179 t-84 -142t-124 -94t-152 -34q-37 0 -71 8l-53 -100l-76 29l52 98q-32 21 -50.5 45t-32.5 65.5t-14 100.5q0 92 29.5 173.5t81.5 142.5t123 97t155 36q34 0 64 -6l50 93l76 -29l-49 -90q35 -20 57 -48t35.5 -68.5t13.5 -97.5z" />
<glyph unicode="&#xd9;" horiz-adv-x="673" d="M599 247q-26 -133 -105 -195t-207 -62q-75 0 -121 19.5t-69 53.5t-26.5 79.5t6.5 97.5l83 435h107l-85 -441q-14 -76 12 -115t108 -39q41 0 73 9.5t55.5 30.5t39.5 55t25 83l80 417h105zM477 721l-198 55l35 79l188 -74z" />
<glyph unicode="&#xda;" horiz-adv-x="673" d="M599 247q-26 -133 -105 -195t-207 -62q-75 0 -121 19.5t-69 53.5t-26.5 79.5t6.5 97.5l83 435h107l-85 -441q-14 -76 12 -115t108 -39q41 0 73 9.5t55.5 30.5t39.5 55t25 83l80 417h105zM380 721l-14 60l200 74l18 -79z" />
<glyph unicode="&#xdb;" horiz-adv-x="673" d="M599 247q-26 -133 -105 -195t-207 -62q-75 0 -121 19.5t-69 53.5t-26.5 79.5t6.5 97.5l83 435h107l-85 -441q-14 -76 12 -115t108 -39q41 0 73 9.5t55.5 30.5t39.5 55t25 83l80 417h105zM556 720l-123 61l-141 -61l-22 54l170 86l148 -84z" />
<glyph unicode="&#xdc;" horiz-adv-x="673" d="M599 247q-26 -133 -105 -195t-207 -62q-75 0 -121 19.5t-69 53.5t-26.5 79.5t6.5 97.5l83 435h107l-85 -441q-14 -76 12 -115t108 -39q41 0 73 9.5t55.5 30.5t39.5 55t25 83l80 417h105zM594 784q0 -26 -18 -43t-42 -17t-39.5 16.5t-15.5 39.5q0 26 17.5 43.5t41.5 17.5 t40 -17t16 -40zM385 784q0 -26 -18 -43t-42 -17t-40 16.5t-16 39.5q0 26 18 43.5t42 17.5t40 -17t16 -40z" />
<glyph unicode="&#xdd;" horiz-adv-x="536" d="M321 241l-46 -241h-106l45 241l-124 434h112l57 -213q8 -30 14.5 -58.5t11.5 -55.5h2q17 30 37 62l42 65l129 200h108h11zM315 721l-14 60l200 74l18 -79z" />
<glyph unicode="&#xde;" horiz-adv-x="525" d="M426 390q0 45 -29 72.5t-96 27.5q-15 0 -34.5 -1.5t-35.5 -3.5l-50 -262q15 -2 29 -3t30 -1q44 0 78.5 14t58.5 37.5t36.5 54.5t12.5 65zM539 408q0 -56 -22 -106t-63 -88.5t-99.5 -61t-131.5 -22.5h-30.5t-28.5 2l-25 -132h-106l128 675h107l-19 -99q37 3 80 3 q106 0 158 -46t52 -125z" />
<glyph unicode="&#xdf;" horiz-adv-x="577" d="M553 611q0 -36 -11.5 -60.5t-29 -43t-38 -32.5t-38 -28.5t-29 -31t-11.5 -40.5q0 -29 18 -51t40 -45.5t40 -52t18 -68.5q0 -33 -14 -63.5t-41.5 -54t-67.5 -37t-92 -13.5q-26 0 -45.5 2t-38.5 6l19 91q18 -6 36.5 -9.5t38.5 -3.5q45 0 69.5 19t24.5 52q0 29 -17.5 51.5 t-39 45.5t-39 50.5t-17.5 67.5q0 34 11.5 57.5t28.5 41.5t37.5 32.5t37.5 30t28.5 33t11.5 42.5q0 23 -17.5 38.5t-51.5 15.5q-53 0 -89.5 -35.5t-51.5 -114.5l-100 -527q-12 -63 -32 -106.5t-49 -70.5t-67 -39t-85 -12q-17 0 -36 2t-36 6l24 87q27 -7 59 -7q24 0 42.5 6.5 t32.5 22.5t24 43t18 69l99 520q24 125 92 182t168 57q78 0 122 -34t44 -91z" />
<glyph unicode="&#xe0;" horiz-adv-x="562" d="M394 413q-14 4 -29.5 6.5t-34.5 2.5q-50 0 -85.5 -24.5t-58.5 -62.5t-34 -84t-11 -89t12 -62t33 -19t42.5 14t42 37.5t39 54t34 63.5t26.5 66t17 61zM435 83q17 -3 39.5 -5.5t43.5 -4.5l-12 -66q-42 -5 -92.5 -7t-95.5 0q6 32 19 76t33 106l-2 1q-14 -28 -35 -62 t-48.5 -63t-62 -49t-76.5 -20q-55 0 -84 37t-29 117q0 69 18.5 134.5t57 116t98 81t141.5 30.5q88 0 165 -15zM397 566l-153 114l58 68l142 -126z" />
<glyph unicode="&#xe1;" horiz-adv-x="562" d="M394 413q-14 4 -29.5 6.5t-34.5 2.5q-50 0 -85.5 -24.5t-58.5 -62.5t-34 -84t-11 -89t12 -62t33 -19t42.5 14t42 37.5t39 54t34 63.5t26.5 66t17 61zM435 83q17 -3 39.5 -5.5t43.5 -4.5l-12 -66q-42 -5 -92.5 -7t-95.5 0q6 32 19 76t33 106l-2 1q-14 -28 -35 -62 t-48.5 -63t-62 -49t-76.5 -20q-55 0 -84 37t-29 117q0 69 18.5 134.5t57 116t98 81t141.5 30.5q88 0 165 -15zM346 566l-38 58l166 124l46 -73z" />
<glyph unicode="&#xe2;" horiz-adv-x="562" d="M394 413q-14 4 -29.5 6.5t-34.5 2.5q-50 0 -85.5 -24.5t-58.5 -62.5t-34 -84t-11 -89t12 -62t33 -19t42.5 14t42 37.5t39 54t34 63.5t26.5 66t17 61zM435 83q17 -3 39.5 -5.5t43.5 -4.5l-12 -66q-42 -5 -92.5 -7t-95.5 0q6 32 19 76t33 106l-2 1q-14 -28 -35 -62 t-48.5 -63t-62 -49t-76.5 -20q-55 0 -84 37t-29 117q0 69 18.5 134.5t57 116t98 81t141.5 30.5q88 0 165 -15zM466 566l-85 83l-113 -83l-38 49l166 133l119 -132z" />
<glyph unicode="&#xe3;" horiz-adv-x="562" d="M394 413q-14 4 -29.5 6.5t-34.5 2.5q-50 0 -85.5 -24.5t-58.5 -62.5t-34 -84t-11 -89t12 -62t33 -19t42.5 14t42 37.5t39 54t34 63.5t26.5 66t17 61zM435 83q17 -3 39.5 -5.5t43.5 -4.5l-12 -66q-42 -5 -92.5 -7t-95.5 0q6 32 19 76t33 106l-2 1q-14 -28 -35 -62 t-48.5 -63t-62 -49t-76.5 -20q-55 0 -84 37t-29 117q0 69 18.5 134.5t57 116t98 81t141.5 30.5q88 0 165 -15zM553 670q-21 -40 -51.5 -61t-65.5 -21q-24 0 -40.5 8t-29 18t-24 18t-26.5 8q-33 0 -60 -46l-51 41q22 40 51.5 61.5t65.5 21.5q24 0 40.5 -8.5t29.5 -18 l24.5 -18t26.5 -8.5q32 0 60 46l50 -41v0z" />
<glyph unicode="&#xe4;" horiz-adv-x="562" d="M394 413q-14 4 -29.5 6.5t-34.5 2.5q-50 0 -85.5 -24.5t-58.5 -62.5t-34 -84t-11 -89t12 -62t33 -19t42.5 14t42 37.5t39 54t34 63.5t26.5 66t17 61zM435 83q17 -3 39.5 -5.5t43.5 -4.5l-12 -66q-42 -5 -92.5 -7t-95.5 0q6 32 19 76t33 106l-2 1q-14 -28 -35 -62 t-48.5 -63t-62 -49t-76.5 -20q-55 0 -84 37t-29 117q0 69 18.5 134.5t57 116t98 81t141.5 30.5q88 0 165 -15zM327 654q0 -27 -18.5 -45t-44.5 -18t-42.5 17.5t-16.5 41.5q0 26 19 44t44 18q26 0 42.5 -17.5t16.5 -40.5zM523 654q0 -27 -18.5 -45t-43.5 -18 q-26 0 -42.5 17.5t-16.5 41.5q0 26 18.5 44t44.5 18q25 0 41.5 -17.5t16.5 -40.5z" />
<glyph unicode="&#xe5;" horiz-adv-x="562" d="M394 413q-14 4 -29.5 6.5t-34.5 2.5q-50 0 -85.5 -24.5t-58.5 -62.5t-34 -84t-11 -89t12 -62t33 -19t42.5 14t42 37.5t39 54t34 63.5t26.5 66t17 61zM435 83q17 -3 39.5 -5.5t43.5 -4.5l-12 -66q-42 -5 -92.5 -7t-95.5 0q6 32 19 76t33 106l-2 1q-14 -28 -35 -62 t-48.5 -63t-62 -49t-76.5 -20q-55 0 -84 37t-29 117q0 69 18.5 134.5t57 116t98 81t141.5 30.5q88 0 165 -15zM487 686q0 -30 -11 -55.5t-30.5 -44t-46.5 -29.5t-59 -11q-48 0 -74.5 24.5t-26.5 65.5q0 30 11 55t30.5 43.5t46.5 29t59 10.5q47 0 74 -23.5t27 -64.5zM352 604 q27 0 43.5 20.5t16.5 47.5q0 20 -9.5 32t-29.5 12q-28 0 -44 -19.5t-16 -47.5q0 -20 9.5 -32.5t29.5 -12.5z" />
<glyph unicode="&#xe6;" horiz-adv-x="763" d="M322 216q-44 -2 -81 -7.5t-63.5 -16t-41.5 -27.5t-15 -43q0 -22 15 -35.5t39 -13.5q28 0 52.5 11.5t44 31.5t32.5 45.5t18 54.5zM642 376q0 25 -17 38.5t-44 13.5t-49 -11t-39.5 -30t-30.5 -44.5t-21 -53.5q45 3 82 8t63.5 14.5t41 25t14.5 39.5zM746 390 q0 -37 -15.5 -67.5t-52.5 -53t-98.5 -36.5t-152.5 -18q-2 -11 -3 -25t-1 -28q0 -51 22.5 -68.5t78.5 -17.5q35 0 72 7.5t70 21.5v-84q-38 -14 -83 -22.5t-94 -8.5q-39 0 -66 8t-45 22t-28.5 33.5t-16.5 42.5q-13 -21 -33 -40.5t-44.5 -34t-52.5 -23t-58 -8.5q-35 0 -59 9 t-39.5 24t-22.5 35t-7 43q0 51 24 85.5t66.5 56t101 32.5t127.5 14l7 30q11 50 -6 77t-75 27q-33 0 -73 -10t-75 -29v90q40 16 84 24.5t86 8.5q34 0 58 -5.5t40.5 -15t26.5 -22t17 -26.5q26 26 70 47.5t97 21.5q43 0 72.5 -10t47.5 -26.5t25.5 -37.5t7.5 -43z" />
<glyph unicode="&#xe7;" horiz-adv-x="408" d="M400 399q-18 8 -39 13t-46 5q-44 0 -75.5 -22t-52.5 -56t-31 -75.5t-10 -80.5q0 -19 4 -37t14.5 -31.5t29.5 -21.5t48 -8q27 0 53.5 5.5t47.5 14.5l-3 -90q-26 -11 -59.5 -17.5t-68.5 -6.5q-49 0 -83 12.5t-55 34.5t-30.5 53t-9.5 68q0 71 20 134t57 110.5t90.5 75 t120.5 27.5q29 0 54 -3.5t49 -10.5zM209 -40q29 -52 15 -100t-62 -95h-87q44 46 56.5 83.5t-14.5 81.5l92 30v0z" />
<glyph unicode="&#xe8;" horiz-adv-x="480" d="M359 376q0 25 -16 38t-44 13q-27 0 -49.5 -11.5t-40 -30.5t-30.5 -45t-20 -54q103 4 151.5 25.5t48.5 64.5zM464 390q0 -85 -81.5 -129t-236.5 -49q-2 -10 -3 -24.5t-1 -25.5q0 -51 22 -68.5t78 -17.5q35 0 71.5 7.5t69.5 21.5l3 -83q-40 -15 -85 -23.5t-94 -8.5 q-91 0 -131.5 40t-40.5 125q0 75 20.5 139t57.5 111.5t87.5 74.5t110.5 27q43 0 72 -10t47 -26.5t26 -37.5t8 -43zM362 566l-153 114l58 68l142 -126z" />
<glyph unicode="&#xe9;" horiz-adv-x="480" d="M359 376q0 25 -16 38t-44 13q-27 0 -49.5 -11.5t-40 -30.5t-30.5 -45t-20 -54q103 4 151.5 25.5t48.5 64.5zM464 390q0 -85 -81.5 -129t-236.5 -49q-2 -10 -3 -24.5t-1 -25.5q0 -51 22 -68.5t78 -17.5q35 0 71.5 7.5t69.5 21.5l3 -83q-40 -15 -85 -23.5t-94 -8.5 q-91 0 -131.5 40t-40.5 125q0 75 20.5 139t57.5 111.5t87.5 74.5t110.5 27q43 0 72 -10t47 -26.5t26 -37.5t8 -43zM291 566l-38 58l166 124l46 -73z" />
<glyph unicode="&#xea;" horiz-adv-x="480" d="M359 376q0 25 -16 38t-44 13q-27 0 -49.5 -11.5t-40 -30.5t-30.5 -45t-20 -54q103 4 151.5 25.5t48.5 64.5zM464 390q0 -85 -81.5 -129t-236.5 -49q-2 -10 -3 -24.5t-1 -25.5q0 -51 22 -68.5t78 -17.5q35 0 71.5 7.5t69.5 21.5l3 -83q-40 -15 -85 -23.5t-94 -8.5 q-91 0 -131.5 40t-40.5 125q0 75 20.5 139t57.5 111.5t87.5 74.5t110.5 27q43 0 72 -10t47 -26.5t26 -37.5t8 -43zM419 566l-85 83l-113 -83l-38 49l166 133l119 -132z" />
<glyph unicode="&#xeb;" horiz-adv-x="480" d="M359 376q0 25 -16 38t-44 13q-27 0 -49.5 -11.5t-40 -30.5t-30.5 -45t-20 -54q103 4 151.5 25.5t48.5 64.5zM464 390q0 -85 -81.5 -129t-236.5 -49q-2 -10 -3 -24.5t-1 -25.5q0 -51 22 -68.5t78 -17.5q35 0 71.5 7.5t69.5 21.5l3 -83q-40 -15 -85 -23.5t-94 -8.5 q-91 0 -131.5 40t-40.5 125q0 75 20.5 139t57.5 111.5t87.5 74.5t110.5 27q43 0 72 -10t47 -26.5t26 -37.5t8 -43zM299 654q0 -27 -18.5 -45t-44.5 -18t-42.5 17.5t-16.5 41.5q0 26 19 44t44 18q26 0 42.5 -17.5t16.5 -40.5zM495 654q0 -27 -18.5 -45t-43.5 -18 q-26 0 -42.5 17.5t-16.5 41.5q0 26 18.5 44t44.5 18q25 0 41.5 -17.5t16.5 -40.5z" />
<glyph unicode="&#xec;" horiz-adv-x="286" d="M165 0h-105l80 414q-17 3 -39.5 5.5t-44.5 4.5l12 66q42 5 93 7t99 0zM228 556l-120 144l72 55l105 -153z" />
<glyph unicode="&#xed;" horiz-adv-x="286" d="M165 0h-105l80 414q-17 3 -39.5 5.5t-44.5 4.5l12 66q42 5 93 7t99 0zM185 556l-50 52l135 147l62 -64z" />
<glyph unicode="&#xee;" horiz-adv-x="286" d="M165 0h-105l80 414q-17 3 -39.5 5.5t-44.5 4.5l12 66q42 5 93 7t99 0zM295 566l-70 83l-99 -83l-38 48l151 134l106 -133z" />
<glyph unicode="&#xef;" horiz-adv-x="286" d="M165 0h-105l80 414q-17 3 -39.5 5.5t-44.5 4.5l12 66q42 5 93 7t99 0zM373 654q0 -27 -18.5 -45t-44.5 -18q-25 0 -41.5 17.5t-16.5 41.5q0 26 18.5 44t44.5 18q25 0 41.5 -17.5t16.5 -40.5zM198 654q0 -27 -18.5 -45t-44.5 -18q-25 0 -41.5 17.5t-16.5 41.5 q0 26 18.5 44t44.5 18q25 0 41.5 -17.5t16.5 -40.5z" />
<glyph unicode="&#xf0;" horiz-adv-x="539" d="M403 316q0 45 -23 73t-70 28q-39 0 -70 -19t-53 -50.5t-33.5 -71.5t-11.5 -82q0 -54 25 -83t70 -29q48 0 80 26.5t51 64t27 77t8 66.5zM443 631q38 -61 55.5 -126t17.5 -132q0 -86 -22 -156.5t-61 -120.5t-92.5 -78t-114.5 -28q-91 0 -142.5 44t-51.5 138q0 69 22 129.5 t59.5 105.5t89.5 71.5t113 26.5q31 0 55.5 -9t35.5 -30q-9 30 -18 47q-10 22 -20 41t-22 37l-107 -45l-33 55l97 41q-14 16 -29.5 30l-32.5 29l103 46q16 -15 31 -31t28 -32l105 43l32 -55z" />
<glyph unicode="&#xf1;" horiz-adv-x="589" d="M469 0h-104l60 315q10 54 1 77.5t-38 23.5q-30 0 -62 -29.5t-60 -74.5t-49 -97t-30 -97l-22 -118h-105l80 414q-17 3 -39.5 5.5t-44.5 4.5l12 66q42 5 93 7t96 0q-5 -23 -16 -65t-34 -112l2 -1q17 37 39.5 71t50 60t60 42t70.5 16q71 0 95 -46t10 -122zM541 670 q-21 -40 -51.5 -61t-65.5 -21q-24 0 -40.5 8t-29 18t-24 18t-26.5 8q-33 0 -60 -46l-51 41q22 40 51.5 61.5t65.5 21.5q24 0 40.5 -8.5t29.5 -18l24.5 -18t26.5 -8.5q32 0 60 46l50 -41v0z" />
<glyph unicode="&#xf2;" horiz-adv-x="542" d="M406 314q0 50 -22.5 76t-72.5 26q-38 0 -69 -20t-53 -52.5t-33.5 -74t-11.5 -84.5q0 -49 21 -76t72 -27q35 0 66 18t54 49.5t36 73.5t13 91zM517 326q0 -77 -24.5 -139t-66 -105.5t-94.5 -67.5t-110 -24q-99 0 -143.5 46.5t-44.5 131.5q0 76 23 138.5t63 107t93.5 69 t113.5 24.5q51 0 87 -13.5t59 -37.5t33.5 -57t10.5 -73zM378 566l-153 114l58 68l142 -126z" />
<glyph unicode="&#xf3;" horiz-adv-x="542" d="M406 314q0 50 -22.5 76t-72.5 26q-38 0 -69 -20t-53 -52.5t-33.5 -74t-11.5 -84.5q0 -49 21 -76t72 -27q35 0 66 18t54 49.5t36 73.5t13 91zM517 326q0 -77 -24.5 -139t-66 -105.5t-94.5 -67.5t-110 -24q-99 0 -143.5 46.5t-44.5 131.5q0 76 23 138.5t63 107t93.5 69 t113.5 24.5q51 0 87 -13.5t59 -37.5t33.5 -57t10.5 -73zM315 566l-38 58l166 124l46 -73z" />
<glyph unicode="&#xf4;" horiz-adv-x="542" d="M406 314q0 50 -22.5 76t-72.5 26q-38 0 -69 -20t-53 -52.5t-33.5 -74t-11.5 -84.5q0 -49 21 -76t72 -27q35 0 66 18t54 49.5t36 73.5t13 91zM517 326q0 -77 -24.5 -139t-66 -105.5t-94.5 -67.5t-110 -24q-99 0 -143.5 46.5t-44.5 131.5q0 76 23 138.5t63 107t93.5 69 t113.5 24.5q51 0 87 -13.5t59 -37.5t33.5 -57t10.5 -73zM445 566l-85 83l-113 -83l-38 49l166 133l119 -132z" />
<glyph unicode="&#xf5;" horiz-adv-x="542" d="M406 314q0 50 -22.5 76t-72.5 26q-38 0 -69 -20t-53 -52.5t-33.5 -74t-11.5 -84.5q0 -49 21 -76t72 -27q35 0 66 18t54 49.5t36 73.5t13 91zM517 326q0 -77 -24.5 -139t-66 -105.5t-94.5 -67.5t-110 -24q-99 0 -143.5 46.5t-44.5 131.5q0 76 23 138.5t63 107t93.5 69 t113.5 24.5q51 0 87 -13.5t59 -37.5t33.5 -57t10.5 -73zM524 670q-21 -40 -51.5 -61t-65.5 -21q-24 0 -40.5 8t-29 18t-24 18t-26.5 8q-33 0 -60 -46l-51 41q22 40 51.5 61.5t65.5 21.5q24 0 40.5 -8.5t29.5 -18l24.5 -18t26.5 -8.5q32 0 60 46l50 -41v0z" />
<glyph unicode="&#xf6;" horiz-adv-x="542" d="M406 314q0 50 -22.5 76t-72.5 26q-38 0 -69 -20t-53 -52.5t-33.5 -74t-11.5 -84.5q0 -49 21 -76t72 -27q35 0 66 18t54 49.5t36 73.5t13 91zM517 326q0 -77 -24.5 -139t-66 -105.5t-94.5 -67.5t-110 -24q-99 0 -143.5 46.5t-44.5 131.5q0 76 23 138.5t63 107t93.5 69 t113.5 24.5q51 0 87 -13.5t59 -37.5t33.5 -57t10.5 -73zM315 654q0 -27 -18.5 -45t-44.5 -18t-42.5 17.5t-16.5 41.5q0 26 19 44t44 18q26 0 42.5 -17.5t16.5 -40.5zM511 654q0 -27 -18.5 -45t-43.5 -18q-26 0 -42.5 17.5t-16.5 41.5q0 26 18.5 44t44.5 18q25 0 41.5 -17.5 t16.5 -40.5z" />
<glyph unicode="&#xf7;" d="M314 98q0 -29 -20.5 -49.5t-48.5 -20.5q-29 0 -47.5 20t-18.5 46q0 30 20 50.5t49 20.5t47.5 -20t18.5 -47zM512 253h-468l17 89h469zM392 501q0 -30 -20.5 -50.5t-49.5 -20.5q-28 0 -47 20t-19 47q0 29 20.5 49.5t49.5 20.5t47.5 -20t18.5 -46z" />
<glyph unicode="&#xf8;" horiz-adv-x="542" d="M330 421q-9 2 -14 2h-14q-36 0 -67.5 -21.5t-53 -53.5t-34 -73.5t-12.5 -86.5q0 -46 21 -75l174 308v0zM415 316q0 50 -30 79l-177 -316q10 -2 20.5 -3.5t22.5 -0.5q35 3 65 24.5t52 54.5t34.5 75t12.5 87zM517 326q0 -76 -24.5 -138.5t-66 -106t-94.5 -67.5t-110 -24 q-16 0 -30.5 2t-27.5 5l-57 -101l-60 30l53 94q-34 22 -50 59.5t-16 88.5q0 72 21.5 134t60 107.5t92.5 71.5t119 26q24 0 47 -5l58 102l59 -29l-53 -93q42 -23 60.5 -63t18.5 -93z" />
<glyph unicode="&#xf9;" horiz-adv-x="612" d="M484 83q17 -3 40 -5.5t44 -4.5l-13 -66q-42 -5 -92 -7t-95 0q4 23 15 65t35 112l-2 1q-18 -37 -40.5 -71t-50 -60.5t-60.5 -42t-70 -15.5q-70 0 -94.5 46t-10.5 122l50 257q-17 3 -39.5 5.5t-44.5 4.5l12 66q43 5 95 7t97 0l-61 -315q-10 -54 -0.5 -77.5t38.5 -23.5 q30 0 62 29.5t60 74.5t49 97t29 97l22 118h105zM387 566l-153 114l58 68l142 -126z" />
<glyph unicode="&#xfa;" horiz-adv-x="612" d="M484 83q17 -3 40 -5.5t44 -4.5l-13 -66q-42 -5 -92 -7t-95 0q4 23 15 65t35 112l-2 1q-18 -37 -40.5 -71t-50 -60.5t-60.5 -42t-70 -15.5q-70 0 -94.5 46t-10.5 122l50 257q-17 3 -39.5 5.5t-44.5 4.5l12 66q43 5 95 7t97 0l-61 -315q-10 -54 -0.5 -77.5t38.5 -23.5 q30 0 62 29.5t60 74.5t49 97t29 97l22 118h105zM345 566l-38 58l166 124l46 -73z" />
<glyph unicode="&#xfb;" horiz-adv-x="612" d="M484 83q17 -3 40 -5.5t44 -4.5l-13 -66q-42 -5 -92 -7t-95 0q4 23 15 65t35 112l-2 1q-18 -37 -40.5 -71t-50 -60.5t-60.5 -42t-70 -15.5q-70 0 -94.5 46t-10.5 122l50 257q-17 3 -39.5 5.5t-44.5 4.5l12 66q43 5 95 7t97 0l-61 -315q-10 -54 -0.5 -77.5t38.5 -23.5 q30 0 62 29.5t60 74.5t49 97t29 97l22 118h105zM461 566l-85 83l-113 -83l-38 49l166 133l119 -132z" />
<glyph unicode="&#xfc;" horiz-adv-x="612" d="M484 83q17 -3 40 -5.5t44 -4.5l-13 -66q-42 -5 -92 -7t-95 0q4 23 15 65t35 112l-2 1q-18 -37 -40.5 -71t-50 -60.5t-60.5 -42t-70 -15.5q-70 0 -94.5 46t-10.5 122l50 257q-17 3 -39.5 5.5t-44.5 4.5l12 66q43 5 95 7t97 0l-61 -315q-10 -54 -0.5 -77.5t38.5 -23.5 q30 0 62 29.5t60 74.5t49 97t29 97l22 118h105zM333 654q0 -27 -18.5 -45t-44.5 -18t-42.5 17.5t-16.5 41.5q0 26 19 44t44 18q26 0 42.5 -17.5t16.5 -40.5zM529 654q0 -27 -18.5 -45t-43.5 -18q-26 0 -42.5 17.5t-16.5 41.5q0 26 18.5 44t44.5 18q25 0 41.5 -17.5 t16.5 -40.5z" />
<glyph unicode="&#xfd;" horiz-adv-x="497" d="M524 489q-102 -239 -194 -399t-183 -251q-92 -91 -184 -91q-40 0 -72 8l18 94q27 -10 61 -10q26 0 53 13t50 37q26 27 38.5 60.5t12.5 84.5q0 103 -20.5 221.5t-53.5 240.5h117q12 -45 21.5 -94.5t17 -98.5t11.5 -95.5t4 -86.5q0 -11 -2 -25l-4 -27h1q55 98 105 205.5 t105 241.5l98 -28v0zM277 566l-38 58l166 124l46 -73z" />
<glyph unicode="&#xfe;" horiz-adv-x="546" d="M412 335q0 43 -12 62t-33 19t-42.5 -14t-42 -37.5t-39 -54t-33.5 -63t-26.5 -65t-16.5 -60.5l-7 -35q14 -5 32 -8t32 -3q49 0 85 24.5t58.5 62t33.5 83.5t11 89zM521 354q0 -69 -18.5 -134.5t-57.5 -116t-98.5 -81t-141.5 -30.5q-17 0 -31.5 1.5t-31.5 3.5l-45 -241h-105 l171 891q-17 3 -40 5.5t-44 4.5l12 66q42 5 93 7t99 0l-36 -184l-10 -49t-12 -50t-16.5 -57l-22.5 -70l2 -1q19 40 42 74.5t51 60t59.5 40t67.5 14.5q56 0 84.5 -37t28.5 -117z" />
<glyph unicode="&#xff;" horiz-adv-x="497" d="M524 489q-102 -239 -194 -399t-183 -251q-92 -91 -184 -91q-40 0 -72 8l18 94q27 -10 61 -10q26 0 53 13t50 37q26 27 38.5 60.5t12.5 84.5q0 103 -20.5 221.5t-53.5 240.5h117q12 -45 21.5 -94.5t17 -98.5t11.5 -95.5t4 -86.5q0 -11 -2 -25l-4 -27h1q55 98 105 205.5 t105 241.5l98 -28v0zM273 654q0 -27 -18.5 -45t-44.5 -18t-42.5 17.5t-16.5 41.5q0 26 19 44t44 18q26 0 42.5 -17.5t16.5 -40.5zM469 654q0 -27 -18.5 -45t-43.5 -18q-26 0 -42.5 17.5t-16.5 41.5q0 26 18.5 44t44.5 18q25 0 41.5 -17.5t16.5 -40.5z" />
<glyph unicode="&#x100;" horiz-adv-x="609" d="M443 0l-22 149h-268l-79 -149h-113l364 675h123l110 -675h-115zM374 464q-3 23 -5.5 47.5l-4.5 45.5h-1l-20 -44.5t-24 -46.5l-123 -230h214zM530 745h-280l14 70h280z" />
<glyph unicode="&#x101;" horiz-adv-x="563" d="M394 413q-14 4 -29.5 6.5t-34.5 2.5q-50 0 -85.5 -24.5t-58.5 -62.5t-34 -84t-11 -89t12 -62t33 -19t42.5 14t42 37.5t39 54t34 63.5t26.5 66t17 61zM435 83q17 -3 39.5 -5.5t43.5 -4.5l-12 -66q-42 -5 -92.5 -7t-95.5 0q6 32 19 76t33 106l-2 1q-14 -28 -35 -62 t-48.5 -63t-62 -49t-76.5 -20q-55 0 -84 37t-29 117q0 69 18.5 134.5t57 116t98 81t141.5 30.5q88 0 165 -15zM481 609h-254l14 78h255z" />
<glyph unicode="&#x102;" horiz-adv-x="609" d="M443 0l-22 149h-268l-79 -149h-113l364 675h123l110 -675h-115zM374 464q-3 23 -5.5 47.5l-4.5 45.5h-1l-20 -44.5t-24 -46.5l-123 -230h214zM545 855q-4 -25 -16.5 -48.5t-32 -41t-47 -28t-62.5 -10.5q-33 0 -56 10.5t-36.5 28.5t-17.5 41t1 48h64q-5 -25 9.5 -42.5 t46.5 -17.5t52 16t25 44h70v0z" />
<glyph unicode="&#x103;" horiz-adv-x="562" d="M394 413q-14 4 -29.5 6.5t-34.5 2.5q-50 0 -85.5 -24.5t-58.5 -62.5t-34 -84t-11 -89t12 -62t33 -19t42.5 14t42 37.5t39 54t34 63.5t26.5 66t17 61zM435 83q17 -3 39.5 -5.5t43.5 -4.5l-12 -66q-42 -5 -92.5 -7t-95.5 0q6 32 19 76t33 106l-2 1q-14 -28 -35 -62 t-48.5 -63t-62 -49t-76.5 -20q-55 0 -84 37t-29 117q0 69 18.5 134.5t57 116t98 81t141.5 30.5q88 0 165 -15zM505 721q-4 -28 -15 -54t-30 -45.5t-45.5 -31t-60.5 -11.5t-56.5 12t-35 31.5t-15.5 45.5t1 53h70q-4 -26 7 -44t40 -18q26 0 44 16t23 46h73v0z" />
<glyph unicode="&#x104;" horiz-adv-x="609" d="M443 0l-22 149h-268l-79 -149h-113l364 675h123l110 -675h-115zM374 464q-3 23 -5.5 47.5l-4.5 45.5h-1l-20 -44.5t-24 -46.5l-123 -230h214zM558 0q-60 -32 -81 -61t-21 -49q0 -10 6.5 -17t20.5 -7q27 0 53 29l40 -48q-26 -31 -59.5 -47.5t-71.5 -16.5q-50 0 -72.5 22.5 t-22.5 56.5q0 35 25.5 73.5t67.5 64.5h115v0z" />
<glyph unicode="&#x105;" horiz-adv-x="562" d="M455 2q-31 -4 -55 -16t-41 -28t-26 -34t-9 -33q0 -11 7.5 -18t22.5 -7q13 0 27 7t27 22l39 -49q-26 -30 -59.5 -46.5t-72.5 -16.5q-50 0 -72.5 23t-22.5 56q0 35 25 72t73 70q7 30 19.5 74t32.5 104l-2 1q-14 -28 -35 -62t-48.5 -63t-62 -49t-76.5 -20q-55 0 -84 37 t-29 117q0 69 18.5 134.5t57 116t98 81t141.5 30.5q88 0 165 -15l-26.5 -138.5l-20.5 -107l-16.5 -86.5l-14.5 -75q17 -3 39.5 -5.5t43.5 -4.5l-12 -66l-25 -2t-26 -3zM186 81q21 0 42.5 14t42 37.5t39 54t34 63.5t26.5 66t17 61l7 36q-14 4 -29.5 6.5t-34.5 2.5 q-50 0 -85.5 -24.5t-58.5 -62.5t-34 -84t-11 -89t12 -62t33 -19z" />
<glyph unicode="&#x106;" horiz-adv-x="556" d="M560 562q-66 23 -130 23q-71 0 -120.5 -31.5t-80.5 -81t-45 -109.5t-14 -118q0 -35 8 -63.5t26.5 -48.5t49 -31.5t75.5 -11.5q39 0 76.5 8.5t69.5 22.5l1 -97q-39 -14 -86.5 -23t-92.5 -9q-75 0 -122.5 20.5t-75.5 53.5t-38.5 75t-10.5 85q0 88 25 170t74.5 145.5 t122.5 101.5t170 38q82 0 147 -20zM374 721l-14 60l200 74l18 -79z" />
<glyph unicode="&#x107;" horiz-adv-x="408" d="M400 399q-18 8 -39 13t-46 5q-44 0 -75.5 -22t-52.5 -56t-31 -75.5t-10 -80.5q0 -19 4 -37t14.5 -31.5t29.5 -21.5t48 -8q27 0 53.5 5.5t47.5 14.5l-3 -90q-26 -11 -59.5 -17.5t-68.5 -6.5q-49 0 -83 12.5t-55 34.5t-30.5 53t-9.5 68q0 71 20 134t57 110.5t90.5 75 t120.5 27.5q29 0 54 -3.5t49 -10.5zM286 566l-38 58l166 124l46 -73z" />
<glyph unicode="&#x10c;" horiz-adv-x="556" d="M560 562q-66 23 -130 23q-71 0 -120.5 -31.5t-80.5 -81t-45 -109.5t-14 -118q0 -35 8 -63.5t26.5 -48.5t49 -31.5t75.5 -11.5q39 0 76.5 8.5t69.5 22.5l1 -97q-39 -14 -86.5 -23t-92.5 -9q-75 0 -122.5 20.5t-75.5 53.5t-38.5 75t-10.5 85q0 88 25 170t74.5 145.5 t122.5 101.5t170 38q82 0 147 -20zM429 720l-148 84l32 56l123 -61l141 61l22 -54z" />
<glyph unicode="&#x10d;" horiz-adv-x="408" d="M400 399q-18 8 -39 13t-46 5q-44 0 -75.5 -22t-52.5 -56t-31 -75.5t-10 -80.5q0 -19 4 -37t14.5 -31.5t29.5 -21.5t48 -8q27 0 53.5 5.5t47.5 14.5l-3 -90q-26 -11 -59.5 -17.5t-68.5 -6.5q-49 0 -83 12.5t-55 34.5t-30.5 53t-9.5 68q0 71 20 134t57 110.5t90.5 75 t120.5 27.5q29 0 54 -3.5t49 -10.5zM313 566l-120 132l49 50l85 -83l114 83l37 -49z" />
<glyph unicode="&#x10e;" horiz-adv-x="660" d="M535 423q0 36 -9.5 66.5t-31 52.5t-58 34t-90.5 12q-28 0 -53 -0.5t-42 -2.5l-94 -491q17 -2 37.5 -3.5t34.5 -1.5q84 0 142 31.5t94.5 80.5t53 108t16.5 114zM650 434q0 -84 -26.5 -163t-80.5 -140t-136 -98t-193 -37q-43 0 -75 1q-22 1 -47.5 1.5t-58.5 1.5l128 674 l52 1.5t55 1.5l95 1q75 0 129 -17t89.5 -48.5t52 -76.5t16.5 -102zM386 720l-148 84l32 56l123 -61l141 61l22 -54z" />
<glyph unicode="&#x10f;" horiz-adv-x="580" d="M394 413q-14 4 -29.5 6.5t-34.5 2.5q-50 0 -85.5 -24.5t-58.5 -62.5t-34 -84t-11 -89t12 -62t33 -19t42.5 14t42 37.5t39 54t34 63.5t26.5 66t17 61zM435 83q17 -3 39.5 -5.5t43.5 -4.5l-12 -66q-42 -5 -92 -7t-95 0q5 31 18 75.5t33 106.5l-2 1q-14 -28 -35 -62 t-48.5 -63t-62 -49t-76.5 -20q-55 0 -84 37t-29 117q0 69 18.5 134.5t57 116t98 81t141.5 30.5q16 0 30.5 -1t31.5 -3l29 146q-17 3 -39.5 5.5t-44.5 4.5l12 66q42 5 93 7t99 0zM732 747l-84 -188l-68 18l69 191z" />
<glyph unicode="&#x110;" horiz-adv-x="668" d="M337 304h-320l16 82h320zM543 423q0 36 -9.5 66.5t-31 52.5t-58 34t-90.5 12q-28 0 -53 -0.5t-42 -2.5l-94 -491q17 -2 37.5 -3.5t34.5 -1.5q84 0 142 31.5t94.5 80.5t53 108t16.5 114zM658 434q0 -84 -26.5 -163t-80.5 -140t-136 -98t-193 -37q-43 0 -75 1 q-22 1 -47.5 1.5t-58.5 1.5l128 674l52 1.5t55 1.5l95 1q75 0 129 -17t89.5 -48.5t52 -76.5t16.5 -102z" />
<glyph unicode="&#x111;" horiz-adv-x="568" d="M435 83q17 -3 39.5 -5.5t43.5 -4.5l-12 -66q-42 -5 -92 -7t-95 0q5 31 18 75.5t33 106.5l-2 1q-14 -28 -35 -62t-48.5 -63t-62 -49t-76.5 -20q-55 0 -84 37t-29 117q0 69 18.5 134.5t57 116t98 81t141.5 30.5q17 0 32 -1t30 -3l10 47h-126l14 70h125l10 51q-17 3 -40 5.5 l-43 4.5l10 57q42 5 93 7.5t99 0.5l-24 -126h64l-14 -70h-64zM394 413q-14 4 -29.5 6.5t-34.5 2.5q-50 0 -85.5 -24.5t-58.5 -62.5t-34 -84t-11 -89t12 -62t33 -19t42.5 14t42 37.5t39 54t34 63.5t26.5 66t17 61z" />
<glyph unicode="&#x112;" horiz-adv-x="487" d="M492 584h-242l-36 -192h231l-18 -89h-230l-40 -210h242l-17 -93h-242h-107l128 675h107h242zM483 745h-280l14 70h280z" />
<glyph unicode="&#x113;" horiz-adv-x="480" d="M359 376q0 25 -16 38t-44 13q-27 0 -49.5 -11.5t-40 -30.5t-30.5 -45t-20 -54q103 4 151.5 25.5t48.5 64.5zM464 390q0 -85 -81.5 -129t-236.5 -49q-2 -10 -3 -24.5t-1 -25.5q0 -51 22 -68.5t78 -17.5q35 0 71.5 7.5t69.5 21.5l3 -83q-40 -15 -85 -23.5t-94 -8.5 q-91 0 -131.5 40t-40.5 125q0 75 20.5 139t57.5 111.5t87.5 74.5t110.5 27q43 0 72 -10t47 -26.5t26 -37.5t8 -43zM451 609h-254l14 78h255z" />
<glyph unicode="&#x116;" horiz-adv-x="487" d="M492 584h-242l-36 -192h231l-18 -89h-230l-40 -210h242l-17 -93h-242h-107l128 675h107h242zM410 788q0 -29 -19 -47t-45 -18t-42 17t-16 40q0 28 19 46t45 18t42 -17t16 -39z" />
<glyph unicode="&#x117;" horiz-adv-x="480" d="M359 376q0 25 -16 38t-44 13q-27 0 -49.5 -11.5t-40 -30.5t-30.5 -45t-20 -54q103 4 151.5 25.5t48.5 64.5zM464 390q0 -85 -81.5 -129t-236.5 -49q-2 -10 -3 -24.5t-1 -25.5q0 -51 22 -68.5t78 -17.5q35 0 71.5 7.5t69.5 21.5l3 -83q-40 -15 -85 -23.5t-94 -8.5 q-91 0 -131.5 40t-40.5 125q0 75 20.5 139t57.5 111.5t87.5 74.5t110.5 27q43 0 72 -10t47 -26.5t26 -37.5t8 -43zM400 657q0 -32 -21.5 -52t-50.5 -20t-46.5 18.5t-17.5 44.5q0 31 21 51t50 20t47 -19t18 -43z" />
<glyph unicode="&#x118;" horiz-adv-x="487" d="M492 584h-242l-36 -192h231l-18 -89h-230l-40 -210h242l-17 -93h-242h-107l128 675h107h242zM382 0q-60 -32 -81 -61t-21 -49q0 -10 6.5 -17t20.5 -7q27 0 53 29l40 -48q-26 -31 -59.5 -47.5t-71.5 -16.5q-50 0 -72.5 22.5t-22.5 56.5q0 35 25.5 73.5t67.5 64.5h115v0z " />
<glyph unicode="&#x119;" horiz-adv-x="480" d="M386 22q-31 -11 -57 -26.5t-45 -33.5t-29.5 -36.5t-10.5 -34.5q0 -11 7 -18t22 -7q13 0 27 7t27 22l40 -49q-26 -30 -59.5 -46.5t-72.5 -16.5q-50 0 -72.5 23t-22.5 56q0 34 22.5 69t59.5 61zM359 376q0 25 -16 38t-44 13q-27 0 -49.5 -11.5t-40 -30.5t-30.5 -45t-20 -54 q103 4 151.5 25.5t48.5 64.5zM464 390q0 -85 -81.5 -129t-236.5 -49q-2 -10 -3 -24.5t-1 -25.5q0 -51 22 -68.5t78 -17.5q35 0 71.5 7.5t69.5 21.5l3 -83q-40 -15 -85 -23.5t-94 -8.5q-91 0 -131.5 40t-40.5 125q0 75 20.5 139t57.5 111.5t87.5 74.5t110.5 27q43 0 72 -10 t47 -26.5t26 -37.5t8 -43z" />
<glyph unicode="&#x11a;" horiz-adv-x="487" d="M492 584h-242l-36 -192h231l-18 -89h-230l-40 -210h242l-17 -93h-242h-107l128 675h107h242zM343 720l-148 84l32 56l123 -61l141 61l22 -54z" />
<glyph unicode="&#x11b;" horiz-adv-x="480" d="M359 376q0 25 -16 38t-44 13q-27 0 -49.5 -11.5t-40 -30.5t-30.5 -45t-20 -54q103 4 151.5 25.5t48.5 64.5zM464 390q0 -85 -81.5 -129t-236.5 -49q-2 -10 -3 -24.5t-1 -25.5q0 -51 22 -68.5t78 -17.5q35 0 71.5 7.5t69.5 21.5l3 -83q-40 -15 -85 -23.5t-94 -8.5 q-91 0 -131.5 40t-40.5 125q0 75 20.5 139t57.5 111.5t87.5 74.5t110.5 27q43 0 72 -10t47 -26.5t26 -37.5t8 -43zM319 566l-120 132l49 50l85 -83l114 83l37 -49z" />
<glyph unicode="&#x11e;" horiz-adv-x="665" d="M633 553q-40 17 -83.5 26.5t-84.5 9.5q-68 0 -123 -26.5t-94 -71.5t-60.5 -104.5t-21.5 -125.5q0 -33 9.5 -64.5t31 -55.5t56 -39t84.5 -15q32 0 60 4.5t54 12.5l47 244h107l-62 -319q-53 -20 -112 -29.5t-113 -9.5q-71 0 -123 19t-86.5 53.5t-51.5 82t-17 104.5 q0 95 32.5 175t89.5 137.5t135 90t169 32.5q102 0 189 -27zM625 855q-4 -25 -16.5 -48.5t-32 -41t-47 -28t-62.5 -10.5q-33 0 -56 10.5t-36.5 28.5t-17.5 41t1 48h64q-5 -25 9.5 -42.5t46.5 -17.5t52 16t25 44h70v0z" />
<glyph unicode="&#x11f;" horiz-adv-x="533" d="M394 413q-14 4 -29.5 6.5t-34.5 2.5q-50 0 -85.5 -24.5t-58.5 -62.5t-34 -84t-11 -89t12 -62t33 -19t42.5 14t42 37.5t39 54t34 63.5t26.5 66t17 61l7 36v0zM411 -39q-9 -48 -29.5 -87t-55.5 -67.5t-87 -44t-124 -15.5q-42 0 -76 5.5t-63 14.5l25 101q29 -14 64.5 -21.5 t69.5 -7.5q75 0 118.5 31.5t58.5 108.5q5 25 10 46.5t11.5 44l14.5 48.5t20 61h-2q-14 -27 -34 -60t-47.5 -62t-62 -48.5t-76.5 -19.5q-55 0 -84 37t-29 117q0 69 18.5 134.5t57.5 116t98.5 81t140.5 30.5q20 0 33 -0.5t30 -1.5q36 -3 55 -5.5t47 -7.5zM487 721 q-4 -28 -15 -54t-30 -45.5t-45.5 -31t-60.5 -11.5t-56.5 12t-35 31.5t-15.5 45.5t1 53h70q-4 -26 7 -44t40 -18q26 0 44 16t23 46h73v0z" />
<glyph unicode="&#x122;" horiz-adv-x="665" d="M633 553q-40 17 -83.5 26.5t-84.5 9.5q-68 0 -123 -26.5t-94 -71.5t-60.5 -104.5t-21.5 -125.5q0 -33 9.5 -64.5t31 -55.5t56 -39t84.5 -15q32 0 60 4.5t54 12.5l47 244h107l-62 -319q-53 -20 -112 -29.5t-113 -9.5q-71 0 -123 19t-86.5 53.5t-51.5 82t-17 104.5 q0 95 32.5 175t89.5 137.5t135 90t169 32.5q102 0 189 -27zM314 -48q28 0 43 -22.5t8.5 -53.5t-39.5 -63.5t-101 -52.5l-17 42q42 20 53.5 42.5t3.5 42.5q-7 25 6.5 45t42.5 20z" />
<glyph unicode="&#x123;" horiz-adv-x="538" d="M394 413q-14 4 -29.5 6.5t-34.5 2.5q-50 0 -85.5 -24.5t-58.5 -62.5t-34 -84t-11 -89t12 -62t33 -19t42.5 14t42 37.5t39 54t34 63.5t26.5 66t17 61l7 36v0zM411 -39q-9 -48 -29.5 -87t-55.5 -67.5t-87 -44t-124 -15.5q-42 0 -76 5.5t-63 14.5l25 101q29 -14 64.5 -21.5 t69.5 -7.5q75 0 118.5 31.5t58.5 108.5q5 25 10 46.5t11.5 44l14.5 48.5t20 61h-2q-14 -27 -34 -60t-47.5 -62t-62 -48.5t-76.5 -19.5q-55 0 -84 37t-29 117q0 69 18.5 134.5t57.5 116t98.5 81t140.5 30.5q20 0 33 -0.5t30 -1.5q36 -3 55 -5.5t47 -7.5zM442 714 q-41 -20 -52.5 -42.5t-4.5 -42.5q8 -25 -6 -45t-43 -20q-18 0 -31.5 10.5t-18.5 27t-1 37.5t20.5 42.5t45.5 41t74 33.5l17 -42v0z" />
<glyph unicode="&#x12a;" horiz-adv-x="260" d="M140 0h-107l128 675h107zM364 745h-280l14 70h280z" />
<glyph unicode="&#x12b;" horiz-adv-x="286" d="M165 0h-105l80 414q-17 3 -39.5 5.5t-44.5 4.5l12 66q42 5 93 7t99 0zM94 609l16 78h240l-16 -78h-240z" />
<glyph unicode="&#x12e;" horiz-adv-x="260" d="M140 0q-48 -22 -73.5 -53t-25.5 -56q0 -11 7.5 -18t22.5 -7q13 0 27 7t27 22l39 -49q-26 -30 -59.5 -46.5t-72.5 -16.5q-50 0 -72 23t-22 56q0 21 8.5 41.5t22 39t30.5 33.5t34 26l128 673h107z" />
<glyph unicode="&#x12f;" horiz-adv-x="286" d="M190 -153q-26 -31 -59.5 -47.5t-72.5 -16.5q-50 0 -72 22.5t-22 56.5q0 35 25.5 73.5t70.5 66.5l80 412q-17 3 -39.5 5.5t-44.5 4.5l12 66q42 5 93 7t99 0l-95 -497q-51 -24 -74.5 -54.5t-23.5 -54.5q0 -11 7.5 -18t22.5 -7q12 0 27 7t27 21zM303 658q0 -32 -22 -52.5 t-51 -20.5t-46 18.5t-17 42.5q0 32 21.5 52.5t50.5 20.5q28 0 46 -19t18 -42z" />
<glyph unicode="&#x130;" horiz-adv-x="260" d="M140 0h-107l128 675h107zM293 788q0 -29 -19 -47t-45 -18t-42 17t-16 40q0 28 19 46t45 18t42 -17t16 -39z" />
<glyph unicode="&#x131;" horiz-adv-x="286" d="M165 0h-105l80 414q-17 3 -39.5 5.5t-44.5 4.5l12 66q42 5 93 7t99 0z" />
<glyph unicode="&#x136;" horiz-adv-x="561" d="M312 340l185 -340h-27h-107l-161 330l-63 -330h-106l128 675h106l-59 -313l276 313h107h31zM238 -48q28 0 43 -22.5t8.5 -53.5t-39.5 -63.5t-101 -52.5l-17 42q42 20 53.5 42.5t3.5 42.5q-7 25 6.5 45t42.5 20z" />
<glyph unicode="&#x137;" horiz-adv-x="494" d="M297 270l142 -270h-127l-120 257l-49 -257h-105l124 647q-17 3 -40 5.5t-44 4.5l12 66q42 5 93 7t99 0l-84 -441l225 235l80 -58zM220 -48q28 0 43 -22.5t8.5 -53.5t-39.5 -63.5t-101 -52.5l-17 42q42 20 53.5 42.5t3.5 42.5q-7 25 6.5 45t42.5 20z" />
<glyph unicode="&#x139;" horiz-adv-x="418" d="M366 0h-226h-107l128 675h107l-110 -580h227zM219 721l-14 60l200 74l18 -79z" />
<glyph unicode="&#x13a;" horiz-adv-x="263" d="M143 0h-105l124 647q-17 3 -40 5.5t-44 4.5l12 66q42 5 93 7t99 0zM140 776l-14 60l200 74l18 -79z" />
<glyph unicode="&#x13b;" horiz-adv-x="418" d="M366 0h-226h-107l128 675h107l-110 -580h227zM190 -48q28 0 43 -22.5t8.5 -53.5t-39.5 -63.5t-101 -52.5l-17 42q42 20 53.5 42.5t3.5 42.5q-7 25 6.5 45t42.5 20z" />
<glyph unicode="&#x13c;" horiz-adv-x="263" d="M143 0h-105l124 647q-17 3 -40 5.5t-44 4.5l12 66q42 5 93 7t99 0zM77 -48q28 0 43 -22.5t8.5 -53.5t-39.5 -63.5t-101 -52.5l-17 42q42 20 53.5 42.5t3.5 42.5q-7 25 6.5 45t42.5 20z" />
<glyph unicode="&#x13d;" horiz-adv-x="423" d="M366 0h-226h-107l128 675h107l-110 -580h227zM514 759l-129 -161l-58 36l114 168z" />
<glyph unicode="&#x13e;" horiz-adv-x="300" d="M143 0h-105l124 647q-17 3 -40 5.5t-44 4.5l12 66q42 5 93 7t99 0zM449 747l-84 -188l-68 18l69 191z" />
<glyph unicode="&#x141;" horiz-adv-x="427" d="M374 0h-227h-106l62 327l-67 -25l-18 82l104 40l47 251h107l-39 -206l104 39l18 -83l-141 -52l-52 -278h227z" />
<glyph unicode="&#x142;" horiz-adv-x="294" d="M236 403l-76 -403h-104l65 346l-62 -32l-8 78l87 45l40 210q-17 3 -39.5 5.5t-44.5 4.5l13 66q42 5 93 7t99 0l-45 -236l67 35l8 -78z" />
<glyph unicode="&#x143;" horiz-adv-x="673" d="M552 0h-102h-23l-149 379q-14 38 -26 75t-21 70q-7 -54 -17 -111l-20 -114l-56 -299h-105l128 675h104h23l146 -367q14 -37 27 -76t24 -76l17 110t20 113l54 296h105zM381 721l-14 60l200 74l18 -79z" />
<glyph unicode="&#x144;" horiz-adv-x="589" d="M469 0h-104l60 315q10 54 1 77.5t-38 23.5q-30 0 -62 -29.5t-60 -74.5t-49 -97t-30 -97l-22 -118h-105l80 414q-17 3 -39.5 5.5t-44.5 4.5l12 66q42 5 93 7t96 0q-5 -23 -16 -65t-34 -112l2 -1q17 37 39.5 71t50 60t60 42t70.5 16q71 0 95 -46t10 -122zM310 566l-38 58 l166 124l46 -73z" />
<glyph unicode="&#x145;" horiz-adv-x="673" d="M552 0h-102h-23l-149 379q-14 38 -26 75t-21 70q-7 -54 -17 -111l-20 -114l-56 -299h-105l128 675h104h23l146 -367q14 -37 27 -76t24 -76l17 110t20 113l54 296h105zM288 -48q28 0 43 -22.5t8.5 -53.5t-39.5 -63.5t-101 -52.5l-17 42q42 20 53.5 42.5t3.5 42.5 q-7 25 6.5 45t42.5 20z" />
<glyph unicode="&#x146;" horiz-adv-x="589" d="M469 0h-104l60 315q10 54 1 77.5t-38 23.5q-30 0 -62 -29.5t-60 -74.5t-49 -97t-30 -97l-22 -118h-105l80 414q-17 3 -39.5 5.5t-44.5 4.5l12 66q42 5 93 7t96 0q-5 -23 -16 -65t-34 -112l2 -1q17 37 39.5 71t50 60t60 42t70.5 16q71 0 95 -46t10 -122zM256 -48 q28 0 43 -22.5t8.5 -53.5t-39.5 -63.5t-101 -52.5l-17 42q42 20 53.5 42.5t3.5 42.5q-7 25 6.5 45t42.5 20z" />
<glyph unicode="&#x147;" horiz-adv-x="673" d="M552 0h-102h-23l-149 379q-14 38 -26 75t-21 70q-7 -54 -17 -111l-20 -114l-56 -299h-105l128 675h104h23l146 -367q14 -37 27 -76t24 -76l17 110t20 113l54 296h105zM428 720l-148 84l32 56l123 -61l141 61l22 -54z" />
<glyph unicode="&#x148;" horiz-adv-x="589" d="M469 0h-104l60 315q10 54 1 77.5t-38 23.5q-30 0 -62 -29.5t-60 -74.5t-49 -97t-30 -97l-22 -118h-105l80 414q-17 3 -39.5 5.5t-44.5 4.5l12 66q42 5 93 7t96 0q-5 -23 -16 -65t-34 -112l2 -1q17 37 39.5 71t50 60t60 42t70.5 16q71 0 95 -46t10 -122zM343 566l-120 132 l49 50l85 -83l114 83l37 -49z" />
<glyph unicode="&#x14c;" horiz-adv-x="690" d="M568 427q0 74 -36 118t-112 44q-57 0 -104.5 -27.5t-81.5 -74t-52.5 -107.5t-18.5 -127q0 -78 36.5 -122t107.5 -44q55 0 102.5 26.5t82.5 73t55.5 108t20.5 132.5zM683 439q0 -97 -31 -179t-84 -142t-124 -94t-152 -34q-125 0 -185 65t-60 181q0 91 30 173t82.5 143 t123.5 97t154 36q121 0 183.5 -64t62.5 -182zM583 745h-280l14 70h280z" />
<glyph unicode="&#x14d;" horiz-adv-x="542" d="M406 314q0 50 -22.5 76t-72.5 26q-38 0 -69 -20t-53 -52.5t-33.5 -74t-11.5 -84.5q0 -49 21 -76t72 -27q35 0 66 18t54 49.5t36 73.5t13 91zM517 326q0 -77 -24.5 -139t-66 -105.5t-94.5 -67.5t-110 -24q-99 0 -143.5 46.5t-44.5 131.5q0 76 23 138.5t63 107t93.5 69 t113.5 24.5q51 0 87 -13.5t59 -37.5t33.5 -57t10.5 -73zM476 609h-254l14 78h255z" />
<glyph unicode="&#x150;" horiz-adv-x="690" d="M568 427q0 74 -36 118t-112 44q-57 0 -104.5 -27.5t-81.5 -74t-52.5 -107.5t-18.5 -127q0 -78 36.5 -122t107.5 -44q55 0 102.5 26.5t82.5 73t55.5 108t20.5 132.5zM683 439q0 -97 -31 -179t-84 -142t-124 -94t-152 -34q-125 0 -185 65t-60 181q0 91 30 173t82.5 143 t123.5 97t154 36q121 0 183.5 -64t62.5 -182zM362 721l-31 51l158 108l40 -63zM561 720l-27 52l166 97l34 -66z" />
<glyph unicode="&#x151;" horiz-adv-x="542" d="M406 314q0 50 -22.5 76t-72.5 26q-38 0 -69 -20t-53 -52.5t-33.5 -74t-11.5 -84.5q0 -49 21 -76t72 -27q35 0 66 18t54 49.5t36 73.5t13 91zM517 326q0 -77 -24.5 -139t-66 -105.5t-94.5 -67.5t-110 -24q-99 0 -143.5 46.5t-44.5 131.5q0 76 23 138.5t63 107t93.5 69 t113.5 24.5q51 0 87 -13.5t59 -37.5t33.5 -57t10.5 -73zM279 566l-48 44l141 147l57 -55zM458 566l-47 44l151 140l54 -58z" />
<glyph unicode="&#x152;" horiz-adv-x="845" d="M499 575q-39 14 -79 14q-57 0 -104.5 -27.5t-81.5 -74t-52.5 -107.5t-18.5 -127q0 -78 36 -122t108 -44q29 0 54.5 4t48.5 11l89 473v0zM850 584h-242l-37 -192h230l-16 -89h-231l-39 -210h242l-19 -93h-339q-27 -5 -53.5 -7.5t-53.5 -2.5q-125 0 -185 65t-60 181 q0 91 30 173t82.5 143t123.5 97t154 36q57 0 100 -10h330z" />
<glyph unicode="&#x153;" horiz-adv-x="833" d="M406 314q0 50 -22.5 76t-72.5 26q-38 0 -69 -20t-53 -52.5t-33.5 -74t-11.5 -84.5q0 -49 21 -76t72 -27q35 0 66 18t54 49.5t36 73.5t13 91zM713 376q0 25 -16.5 38t-43.5 13t-49.5 -11.5t-40 -30.5t-30.5 -45t-21 -54q103 4 152 25.5t49 64.5zM817 390q0 -85 -81.5 -129 t-236.5 -49l-2.5 -24.5t-1.5 -25.5q0 -51 22 -68.5t78 -17.5q35 0 72 7.5t69 21.5l3 -83q-40 -15 -85 -23.5t-94 -8.5q-62 0 -99 20.5t-50 66.5q-36 -41 -85.5 -64t-103.5 -23q-99 0 -143.5 46.5t-44.5 131.5q0 76 23 138.5t63 107t93.5 69t113.5 24.5q62 0 101.5 -23 t58.5 -64q32 40 75.5 63.5t102.5 23.5q43 0 72 -10t47 -26.5t25.5 -37.5t7.5 -43z" />
<glyph unicode="&#x154;" horiz-adv-x="548" d="M426 510q0 41 -25.5 60.5t-84.5 19.5q-20 0 -36.5 -0.5t-28.5 -1.5l-40 -214q8 -1 20 -1.5t29 -0.5q35 0 65.5 9.5t53 27.5t35 43.5t12.5 57.5zM539 528q0 -47 -17.5 -85t-47.5 -66.5t-70.5 -47t-86.5 -25.5q11 -18 19.5 -36t18.5 -37l123 -231h-127l-144 292h-12 l-55 -292h-107l128 675q37 2 107 4h66q107 0 156 -39.5t49 -111.5zM274 721l-14 60l200 74l18 -79z" />
<glyph unicode="&#x155;" horiz-adv-x="386" d="M400 402q-24 9 -47 1t-44.5 -28.5t-41 -50.5t-35 -65.5t-27.5 -74t-19 -74.5l-21 -110h-105l80 414q-17 3 -39.5 5.5t-44.5 4.5l12 66q42 5 92.5 7t95.5 0q-6 -31 -17 -70t-31 -98l2 -1q21 43 42.5 79t46.5 60.5t55 35t68 2.5zM244 566l-38 58l166 124l46 -73z" />
<glyph unicode="&#x156;" horiz-adv-x="548" d="M426 510q0 41 -25.5 60.5t-84.5 19.5q-20 0 -36.5 -0.5t-28.5 -1.5l-40 -214q8 -1 20 -1.5t29 -0.5q35 0 65.5 9.5t53 27.5t35 43.5t12.5 57.5zM539 528q0 -47 -17.5 -85t-47.5 -66.5t-70.5 -47t-86.5 -25.5q11 -18 19.5 -36t18.5 -37l123 -231h-127l-144 292h-12 l-55 -292h-107l128 675q37 2 107 4h66q107 0 156 -39.5t49 -111.5zM231 -48q28 0 43 -22.5t8.5 -53.5t-39.5 -63.5t-101 -52.5l-17 42q42 20 53.5 42.5t3.5 42.5q-7 25 6.5 45t42.5 20z" />
<glyph unicode="&#x157;" horiz-adv-x="386" d="M400 402q-24 9 -47 1t-44.5 -28.5t-41 -50.5t-35 -65.5t-27.5 -74t-19 -74.5l-21 -110h-105l80 414q-17 3 -39.5 5.5t-44.5 4.5l12 66q42 5 92.5 7t95.5 0q-6 -31 -17 -70t-31 -98l2 -1q21 43 42.5 79t46.5 60.5t55 35t68 2.5zM102 -48q28 0 43 -22.5t8.5 -53.5 t-39.5 -63.5t-101 -52.5l-17 42q42 20 53.5 42.5t3.5 42.5q-7 25 6.5 45t42.5 20z" />
<glyph unicode="&#x158;" horiz-adv-x="548" d="M426 510q0 41 -25.5 60.5t-84.5 19.5q-20 0 -36.5 -0.5t-28.5 -1.5l-40 -214q8 -1 20 -1.5t29 -0.5q35 0 65.5 9.5t53 27.5t35 43.5t12.5 57.5zM539 528q0 -47 -17.5 -85t-47.5 -66.5t-70.5 -47t-86.5 -25.5q11 -18 19.5 -36t18.5 -37l123 -231h-127l-144 292h-12 l-55 -292h-107l128 675q37 2 107 4h66q107 0 156 -39.5t49 -111.5zM340 720l-148 84l32 56l123 -61l141 61l22 -54z" />
<glyph unicode="&#x159;" horiz-adv-x="386" d="M400 402q-24 9 -47 1t-44.5 -28.5t-41 -50.5t-35 -65.5t-27.5 -74t-19 -74.5l-21 -110h-105l80 414q-17 3 -39.5 5.5t-44.5 4.5l12 66q42 5 92.5 7t95.5 0q-6 -31 -17 -70t-31 -98l2 -1q21 43 42.5 79t46.5 60.5t55 35t68 2.5zM271 566l-120 132l49 50l85 -83l114 83 l37 -49z" />
<glyph unicode="&#x15a;" horiz-adv-x="457" d="M435 579q-25 8 -49.5 12t-44.5 4q-36 0 -61.5 -9t-42 -23t-24 -32t-7.5 -37q0 -28 15 -48.5t37 -38t48.5 -34t48.5 -38t37 -50t15 -68.5q0 -48 -20 -89.5t-56.5 -72t-86.5 -48t-110 -17.5q-29 0 -60 3t-57 11l20 104q23 -10 51 -16t54 -6q72 0 110.5 30.5t38.5 82.5 q0 27 -14.5 46.5t-37 36t-48 32.5t-48 37t-37 49.5t-14.5 68.5q0 44 16.5 83t48.5 68.5t80 47t111 17.5q27 0 52 -2t54 -7zM265 721l-14 60l200 74l18 -79z" />
<glyph unicode="&#x15b;" horiz-adv-x="379" d="M337 415q-17 6 -35 8.5t-36 2.5q-45 0 -67 -17.5t-22 -46.5q0 -27 22 -47t48.5 -41.5t48.5 -49t22 -68.5q0 -31 -13.5 -61t-41 -53t-69 -37.5t-96.5 -14.5q-25 0 -45.5 2t-39.5 6l18 93q39 -14 79 -14q45 0 71.5 17t26.5 51q0 18 -10.5 32t-26 27t-33.5 26.5t-33.5 30.5 t-26 38.5t-10.5 51.5q0 33 13 61.5t38.5 49.5t63.5 33t89 12q25 0 45.5 -2t39.5 -6zM224 556l-50 52l135 147l62 -64z" />
<glyph unicode="&#x15e;" horiz-adv-x="457" d="M435 579q-25 8 -49.5 12t-44.5 4q-36 0 -61.5 -9t-42 -23t-24 -32t-7.5 -37q0 -28 15 -48.5t37 -38t48.5 -34t48.5 -38t37 -50t15 -68.5q0 -48 -20 -89.5t-56.5 -72t-86.5 -48t-110 -17.5q-29 0 -60 3t-57 11l20 104q23 -10 51 -16t54 -6q72 0 110.5 30.5t38.5 82.5 q0 27 -14.5 46.5t-37 36t-48 32.5t-48 37t-37 49.5t-14.5 68.5q0 44 16.5 83t48.5 68.5t80 47t111 17.5q27 0 52 -2t54 -7zM214 -40q29 -52 15 -100t-62 -95h-87q44 46 56.5 83.5t-14.5 81.5l92 30v0z" />
<glyph unicode="&#x15f;" horiz-adv-x="379" d="M337 415q-17 6 -35 8.5t-36 2.5q-45 0 -67 -17.5t-22 -46.5q0 -27 22 -47t48.5 -41.5t48.5 -49t22 -68.5q0 -31 -13.5 -61t-41 -53t-69 -37.5t-96.5 -14.5q-25 0 -45.5 2t-39.5 6l18 93q39 -14 79 -14q45 0 71.5 17t26.5 51q0 18 -10.5 32t-26 27t-33.5 26.5t-33.5 30.5 t-26 38.5t-10.5 51.5q0 33 13 61.5t38.5 49.5t63.5 33t89 12q25 0 45.5 -2t39.5 -6zM169 -40q29 -52 15 -100t-62 -95h-87q44 46 56.5 83.5t-14.5 81.5l92 30v0z" />
<glyph unicode="&#x160;" horiz-adv-x="457" d="M435 579q-25 8 -49.5 12t-44.5 4q-36 0 -61.5 -9t-42 -23t-24 -32t-7.5 -37q0 -28 15 -48.5t37 -38t48.5 -34t48.5 -38t37 -50t15 -68.5q0 -48 -20 -89.5t-56.5 -72t-86.5 -48t-110 -17.5q-29 0 -60 3t-57 11l20 104q23 -10 51 -16t54 -6q72 0 110.5 30.5t38.5 82.5 q0 27 -14.5 46.5t-37 36t-48 32.5t-48 37t-37 49.5t-14.5 68.5q0 44 16.5 83t48.5 68.5t80 47t111 17.5q27 0 52 -2t54 -7zM324 720l-148 84l32 56l123 -61l141 61l22 -54z" />
<glyph unicode="&#x161;" horiz-adv-x="379" d="M337 415q-17 6 -35 8.5t-36 2.5q-45 0 -67 -17.5t-22 -46.5q0 -27 22 -47t48.5 -41.5t48.5 -49t22 -68.5q0 -31 -13.5 -61t-41 -53t-69 -37.5t-96.5 -14.5q-25 0 -45.5 2t-39.5 6l18 93q39 -14 79 -14q45 0 71.5 17t26.5 51q0 18 -10.5 32t-26 27t-33.5 26.5t-33.5 30.5 t-26 38.5t-10.5 51.5q0 33 13 61.5t38.5 49.5t63.5 33t89 12q25 0 45.5 -2t39.5 -6zM247 566l-120 132l49 50l85 -83l114 83l37 -49z" />
<glyph unicode="&#x162;" horiz-adv-x="503" d="M554 583h-182l-111 -583h-107l111 583h-182l17 92h183h107h181zM196 -48q28 0 43 -22.5t8.5 -53.5t-39.5 -63.5t-101 -52.5l-17 42q42 20 53.5 42.5t3.5 42.5q-7 25 6.5 45t42.5 20z" />
<glyph unicode="&#x21a;" horiz-adv-x="503" d="M554 583h-182l-111 -583h-107l111 583h-182l17 92h183h107h181zM196 -48q28 0 43 -22.5t8.5 -53.5t-39.5 -63.5t-101 -52.5l-17 42q42 20 53.5 42.5t3.5 42.5q-7 25 6.5 45t42.5 20z" />
<glyph unicode="&#x163;" horiz-adv-x="366" d="M363 414h-127l-46 -244q-10 -52 -1 -70t43 -18q20 0 36 2t30 5l-8 -87q-23 -5 -49 -8t-48 -3q-78 0 -102.5 39t-7.5 126l49 258h-94l17 83h93l30 158l109 23l-35 -181h128zM169 -48q28 0 43 -22.5t8.5 -53.5t-39.5 -63.5t-101 -52.5l-17 42q42 20 53.5 42.5t3.5 42.5 q-7 25 6.5 45t42.5 20z" />
<glyph unicode="&#x21b;" horiz-adv-x="366" d="M363 414h-127l-46 -244q-10 -52 -1 -70t43 -18q20 0 36 2t30 5l-8 -87q-23 -5 -49 -8t-48 -3q-78 0 -102.5 39t-7.5 126l49 258h-94l17 83h93l30 158l109 23l-35 -181h128zM169 -48q28 0 43 -22.5t8.5 -53.5t-39.5 -63.5t-101 -52.5l-17 42q42 20 53.5 42.5t3.5 42.5 q-7 25 6.5 45t42.5 20z" />
<glyph unicode="&#x164;" horiz-adv-x="503" d="M554 583h-182l-111 -583h-107l111 583h-182l17 92h183h107h181zM341 720l-148 84l32 56l123 -61l141 61l22 -54z" />
<glyph unicode="&#x165;" horiz-adv-x="369" d="M363 414h-127l-46 -244q-10 -52 -1 -70t43 -18q20 0 36 2t30 5l-8 -87q-23 -5 -49 -8t-48 -3q-78 0 -102.5 39t-7.5 126l49 258h-94l17 83h93l30 158l109 23l-35 -181h128zM476 747l-84 -188l-68 18l69 191z" />
<glyph unicode="&#x16a;" horiz-adv-x="673" d="M599 247q-26 -133 -105 -195t-207 -62q-75 0 -121 19.5t-69 53.5t-26.5 79.5t6.5 97.5l83 435h107l-85 -441q-14 -76 12 -115t108 -39q41 0 73 9.5t55.5 30.5t39.5 55t25 83l80 417h105zM568 745h-280l14 70h280z" />
<glyph unicode="&#x16b;" horiz-adv-x="612" d="M484 83q17 -3 40 -5.5t44 -4.5l-13 -66q-42 -5 -92 -7t-95 0q4 23 15 65t35 112l-2 1q-18 -37 -40.5 -71t-50 -60.5t-60.5 -42t-70 -15.5q-70 0 -94.5 46t-10.5 122l50 257q-17 3 -39.5 5.5t-44.5 4.5l12 66q43 5 95 7t97 0l-61 -315q-10 -54 -0.5 -77.5t38.5 -23.5 q30 0 62 29.5t60 74.5t49 97t29 97l22 118h105zM496 609h-254l14 78h255z" />
<glyph unicode="&#x16e;" horiz-adv-x="673" d="M599 247q-26 -133 -105 -195t-207 -62q-75 0 -121 19.5t-69 53.5t-26.5 79.5t6.5 97.5l83 435h107l-85 -441q-14 -76 12 -115t108 -39q41 0 73 9.5t55.5 30.5t39.5 55t25 83l80 417h105zM565 801q0 -30 -10.5 -54.5t-30 -42t-46 -27.5t-58.5 -10q-48 0 -76.5 23t-28.5 64 q0 29 11 53.5t30.5 42.5t46 28t57.5 10q48 0 76.5 -23.5t28.5 -63.5zM430 723q28 0 44 19.5t16 48.5q0 18 -10.5 29.5t-29.5 11.5q-28 0 -44 -20t-16 -49q0 -18 10.5 -29t29.5 -11z" />
<glyph unicode="&#x16f;" horiz-adv-x="612" d="M484 83q17 -3 40 -5.5t44 -4.5l-13 -66q-42 -5 -92 -7t-95 0q4 23 15 65t35 112l-2 1q-18 -37 -40.5 -71t-50 -60.5t-60.5 -42t-70 -15.5q-70 0 -94.5 46t-10.5 122l50 257q-17 3 -39.5 5.5t-44.5 4.5l12 66q43 5 95 7t97 0l-61 -315q-10 -54 -0.5 -77.5t38.5 -23.5 q30 0 62 29.5t60 74.5t49 97t29 97l22 118h105zM509 690q0 -30 -11 -55.5t-30.5 -44t-46.5 -29.5t-59 -11q-48 0 -74.5 24.5t-26.5 65.5q0 30 11 55t30.5 43.5t46.5 29t59 10.5q47 0 74 -23.5t27 -64.5zM374 608q27 0 43.5 20.5t16.5 47.5q0 20 -9.5 32t-29.5 12 q-28 0 -44 -19.5t-16 -47.5q0 -20 9.5 -32.5t29.5 -12.5z" />
<glyph unicode="&#x170;" horiz-adv-x="673" d="M599 247q-26 -133 -105 -195t-207 -62q-75 0 -121 19.5t-69 53.5t-26.5 79.5t6.5 97.5l83 435h107l-85 -441q-14 -76 12 -115t108 -39q41 0 73 9.5t55.5 30.5t39.5 55t25 83l80 417h105zM324 721l-31 51l158 108l40 -63zM523 720l-27 52l166 97l34 -66z" />
<glyph unicode="&#x171;" horiz-adv-x="612" d="M484 83q17 -3 40 -5.5t44 -4.5l-13 -66q-42 -5 -92 -7t-95 0q4 23 15 65t35 112l-2 1q-18 -37 -40.5 -71t-50 -60.5t-60.5 -42t-70 -15.5q-70 0 -94.5 46t-10.5 122l50 257q-17 3 -39.5 5.5t-44.5 4.5l12 66q43 5 95 7t97 0l-61 -315q-10 -54 -0.5 -77.5t38.5 -23.5 q30 0 62 29.5t60 74.5t49 97t29 97l22 118h105zM282 566l-48 44l141 147l57 -55zM461 566l-47 44l151 140l54 -58z" />
<glyph unicode="&#x172;" horiz-adv-x="673" d="M599 247q-26 -133 -105 -195t-207 -62q-75 0 -121 19.5t-69 53.5t-26.5 79.5t6.5 97.5l83 435h107l-85 -441q-14 -76 12 -115t108 -39q41 0 73 9.5t55.5 30.5t39.5 55t25 83l80 417h105zM382 0q-60 -32 -81 -61t-21 -49q0 -10 6.5 -17t20.5 -7q27 0 53 29l40 -48 q-26 -31 -59.5 -47.5t-71.5 -16.5q-50 0 -72.5 22.5t-22.5 56.5q0 35 25.5 73.5t67.5 64.5h115v0z" />
<glyph unicode="&#x173;" horiz-adv-x="612" d="M555 7l-25 -2t-26 -3q-31 -4 -55 -16t-40.5 -28t-25.5 -34t-9 -33q0 -11 7 -18t22 -7q13 0 27 7t27 22l40 -49q-26 -30 -60 -46.5t-73 -16.5q-50 0 -72 23t-22 56q0 35 24.5 72t73.5 70q6 26 16.5 65t33.5 108l-2 1q-18 -37 -40.5 -71t-50 -60.5t-60.5 -42t-70 -15.5 q-70 0 -94.5 46t-10.5 122l50 257q-17 3 -39.5 5.5t-44.5 4.5l12 66q43 5 95 7t97 0l-61 -315q-10 -54 -0.5 -77.5t38.5 -23.5q30 0 62 29.5t60 74.5t49 97t29 97l22 118h105l-80 -414q17 -3 40 -5.5t44 -4.5l-13 -66v0z" />
<glyph unicode="&#x178;" horiz-adv-x="536" d="M321 241l-46 -241h-106l45 241l-124 434h112l57 -213q8 -30 14.5 -58.5t11.5 -55.5h2q17 30 37 62l42 65l129 200h108h11zM526 784q0 -26 -18 -43t-42 -17t-39.5 16.5t-15.5 39.5q0 26 17.5 43.5t41.5 17.5t40 -17t16 -40zM317 784q0 -26 -18 -43t-42 -17t-40 16.5 t-16 39.5q0 26 18 43.5t42 17.5t40 -17t16 -40z" />
<glyph unicode="&#x179;" horiz-adv-x="519" d="M540 589l-345 -437l-21.5 -27t-23.5 -27q21 2 53 2h248l-20 -100h-431l16 83l327 423q16 20 31.5 37.5l32.5 35.5q-21 -1 -47 -1h-241l19 97h418zM297 721l-14 60l200 74l18 -79z" />
<glyph unicode="&#x17a;" horiz-adv-x="433" d="M417 422l-263 -326q18 1 52.5 1.5t65.5 0.5h88l-19 -98h-340l15 76l266 327q-19 -1 -46.5 -1.5t-65.5 -0.5h-87l19 96h330zM239 566l-38 58l166 124l46 -73z" />
<glyph unicode="&#x17b;" horiz-adv-x="519" d="M540 589l-345 -437l-21.5 -27t-23.5 -27q21 2 53 2h248l-20 -100h-431l16 83l327 423q16 20 31.5 37.5l32.5 35.5q-21 -1 -47 -1h-241l19 97h418zM417 788q0 -29 -19 -47t-45 -18t-42 17t-16 40q0 28 19 46t45 18t42 -17t16 -39z" />
<glyph unicode="&#x17c;" horiz-adv-x="433" d="M417 422l-263 -326q18 1 52.5 1.5t65.5 0.5h88l-19 -98h-340l15 76l266 327q-19 -1 -46.5 -1.5t-65.5 -0.5h-87l19 96h330zM355 657q0 -32 -21.5 -52t-50.5 -20t-46.5 18.5t-17.5 44.5q0 31 21 51t50 20t47 -19t18 -43z" />
<glyph unicode="&#x192;" d="M573 599q-21 8 -43 12t-41 4q-46 0 -75.5 -27t-46.5 -90l-37 -134h145l-13 -83h-153l-66 -240q-29 -105 -89 -153t-157 -48q-20 0 -43.5 3t-45.5 9l22 90q20 -6 43 -10.5t43 -4.5q44 0 73.5 26.5t46.5 88.5l66 239h-115l13 83h123l39 139q29 102 87.5 150.5t156.5 48.5 q21 0 44.5 -3.5t44.5 -8.5z" />
<glyph unicode="&#x218;" horiz-adv-x="457" d="M435 579q-25 8 -49.5 12t-44.5 4q-36 0 -61.5 -9t-42 -23t-24 -32t-7.5 -37q0 -28 15 -48.5t37 -38t48.5 -34t48.5 -38t37 -50t15 -68.5q0 -48 -20 -89.5t-56.5 -72t-86.5 -48t-110 -17.5q-29 0 -60 3t-57 11l20 104q23 -10 51 -16t54 -6q72 0 110.5 30.5t38.5 82.5 q0 27 -14.5 46.5t-37 36t-48 32.5t-48 37t-37 49.5t-14.5 68.5q0 44 16.5 83t48.5 68.5t80 47t111 17.5q27 0 52 -2t54 -7zM178 -48q28 0 43 -22.5t8.5 -53.5t-39.5 -63.5t-101 -52.5l-17 42q42 20 53.5 42.5t3.5 42.5q-7 25 6.5 45t42.5 20z" />
<glyph unicode="&#x219;" horiz-adv-x="379" d="M337 415q-17 6 -35 8.5t-36 2.5q-45 0 -67 -17.5t-22 -46.5q0 -27 22 -47t48.5 -41.5t48.5 -49t22 -68.5q0 -31 -13.5 -61t-41 -53t-69 -37.5t-96.5 -14.5q-25 0 -45.5 2t-39.5 6l18 93q39 -14 79 -14q45 0 71.5 17t26.5 51q0 18 -10.5 32t-26 27t-33.5 26.5t-33.5 30.5 t-26 38.5t-10.5 51.5q0 33 13 61.5t38.5 49.5t63.5 33t89 12q25 0 45.5 -2t39.5 -6zM144 -48q28 0 43 -22.5t8.5 -53.5t-39.5 -63.5t-101 -52.5l-17 42q42 20 53.5 42.5t3.5 42.5q-7 25 6.5 45t42.5 20z" />
<glyph unicode="&#x2c6;" horiz-adv-x="426" d="M358 566l-85 83l-113 -83l-38 49l166 133l119 -132z" />
<glyph unicode="&#x2c7;" horiz-adv-x="443" d="M247 566l-120 132l49 50l85 -83l114 83l37 -49z" />
<glyph unicode="&#x2d8;" horiz-adv-x="386" d="M415 721q-4 -28 -15 -54t-30 -45.5t-45.5 -31t-60.5 -11.5t-56.5 12t-35 31.5t-15.5 45.5t1 53h70q-4 -26 7 -44t40 -18q26 0 44 16t23 46h73v0z" />
<glyph unicode="&#x2d9;" horiz-adv-x="292" d="M288 657q0 -32 -21.5 -52t-50.5 -20t-46.5 18.5t-17.5 44.5q0 31 21 51t50 20t47 -19t18 -43z" />
<glyph unicode="&#x2da;" horiz-adv-x="392" d="M402 686q0 -30 -11 -55.5t-30.5 -44t-46.5 -29.5t-59 -11q-48 0 -74.5 24.5t-26.5 65.5q0 30 11 55t30.5 43.5t46.5 29t59 10.5q47 0 74 -23.5t27 -64.5zM267 604q27 0 43.5 20.5t16.5 47.5q0 20 -9.5 32t-29.5 12q-28 0 -44 -19.5t-16 -47.5q0 -20 9.5 -32.5t29.5 -12.5 z" />
<glyph unicode="&#x2db;" horiz-adv-x="296" d="M173 0q-60 -32 -81 -61t-21 -49q0 -10 6.5 -17t20.5 -7q27 0 53 29l40 -48q-26 -31 -59.5 -47.5t-71.5 -16.5q-50 0 -72.5 22.5t-22.5 56.5q0 35 25.5 73.5t67.5 64.5h115v0z" />
<glyph unicode="&#x2dc;" horiz-adv-x="475" d="M466 670q-21 -40 -51.5 -61t-65.5 -21q-24 0 -40.5 8t-29 18t-24 18t-26.5 8q-33 0 -60 -46l-51 41q22 40 51.5 61.5t65.5 21.5q24 0 40.5 -8.5t29.5 -18l24.5 -18t26.5 -8.5q32 0 60 46l50 -41v0z" />
<glyph unicode="&#x2dd;" horiz-adv-x="484" d="M190 566l-48 44l141 147l57 -55zM369 566l-47 44l151 140l54 -58z" />
<glyph unicode="&#x312;" horiz-adv-x="179" d="M396 714q-41 -20 -52.5 -42.5t-4.5 -42.5q8 -25 -6 -45t-43 -20q-18 0 -31.5 10.5t-18.5 27t-1 37.5t20.5 42.5t45.5 41t74 33.5l17 -42v0z" />
<glyph unicode="&#x315;" horiz-adv-x="353" d="M325 747l-84 -188l-68 18l69 191z" />
<glyph unicode="&#x326;" horiz-adv-x="200" d="M174 -48q28 0 43 -22.5t8.5 -53.5t-39.5 -63.5t-101 -52.5l-17 42q42 20 53.5 42.5t3.5 42.5q-7 25 6.5 45t42.5 20z" />
<glyph unicode="&#x394;" horiz-adv-x="599" d="M-16 0l16 81l318 594h130l95 -594l-14 -81h-545zM369 487q-2 19 -3.5 40t-2.5 42h-1l-18.5 -42t-20.5 -43l-205 -387h311z" />
<glyph unicode="&#x2206;" horiz-adv-x="599" d="M-16 0l16 81l318 594h130l95 -594l-14 -81h-545zM369 487q-2 19 -3.5 40t-2.5 42h-1l-18.5 -42t-20.5 -43l-205 -387h311z" />
<glyph unicode="&#x3a9;" horiz-adv-x="702" d="M372 0l17 87q95 66 138.5 155t43.5 188q0 75 -36 117t-112 42q-61 0 -107.5 -31t-78 -78t-47.5 -103.5t-16 -108.5q0 -56 20 -97.5t65 -82.5l-16 -88h-247l17 89h135q-40 32 -63 78t-23 109q0 66 24.5 138t72.5 132.5t119 99.5t164 39q112 0 178.5 -59t66.5 -179 q0 -111 -48 -205t-137 -153h134l-18 -89h-246z" />
<glyph unicode="&#x2126;" horiz-adv-x="702" d="M372 0l17 87q95 66 138.5 155t43.5 188q0 75 -36 117t-112 42q-61 0 -107.5 -31t-78 -78t-47.5 -103.5t-16 -108.5q0 -56 20 -97.5t65 -82.5l-16 -88h-247l17 89h135q-40 32 -63 78t-23 109q0 66 24.5 138t72.5 132.5t119 99.5t164 39q112 0 178.5 -59t66.5 -179 q0 -111 -48 -205t-137 -153h134l-18 -89h-246z" />
<glyph unicode="&#x3c0;" horiz-adv-x="619" d="M508 409q-17 -89 -24.5 -151.5t-7.5 -101.5q0 -44 9.5 -59.5t27.5 -15.5q15 0 37 5l-5 -86q-29 -8 -67 -8q-59 0 -84.5 31.5t-25.5 108.5q0 46 9 116t26 161h-147q-18 -103 -52 -211.5t-90 -211.5l-104 28q57 104 92.5 198.5t52.5 196.5h-111l17 88h578l-18 -88h-113z " />
<glyph unicode="&#x2013;" d="M553 251h-550l18 93h550z" />
<glyph unicode="&#x2014;" horiz-adv-x="1000" d="M889 251h-771l18 93h770z" />
<glyph unicode="&#x2018;" horiz-adv-x="249" d="M300 705q-42 -35 -60 -62.5t-18 -50.5q0 -17 10 -32.5t10 -34.5q0 -24 -18 -45t-48 -21q-29 0 -48.5 21t-19.5 56q0 41 34.5 97.5t119.5 116.5z" />
<glyph unicode="&#x2019;" horiz-adv-x="249" d="M211 741q29 0 48 -21t19 -56q0 -42 -34 -97.5t-119 -116.5l-39 46q43 34 60.5 61.5t17.5 50.5q0 18 -9.5 33t-9.5 33q0 26 17.5 46.5t48.5 20.5z" />
<glyph unicode="&#x201a;" horiz-adv-x="249" d="M92 129q29 0 48 -21.5t19 -55.5q0 -46 -34 -99.5t-119 -114.5l-39 45q42 35 60.5 62t18.5 50q0 18 -10 33.5t-10 33.5q0 26 17 46.5t49 20.5z" />
<glyph unicode="&#x201c;" horiz-adv-x="447" d="M300 707q-42 -35 -60 -62.5t-18 -50.5q0 -17 10 -32.5t10 -34.5q0 -24 -18 -45t-48 -21q-29 0 -48.5 21t-19.5 56q0 41 34.5 97.5t119.5 116.5zM504 707q-42 -36 -60 -63t-18 -50q0 -18 9.5 -33t9.5 -34q0 -24 -17 -45t-48 -21q-29 0 -49 21t-20 56q0 41 34.5 97.5 t119.5 116.5z" />
<glyph unicode="&#x201d;" horiz-adv-x="447" d="M211 745q29 0 48 -21t19 -56q0 -42 -34 -97.5t-119 -116.5l-39 45q42 35 60 62t18 50q0 17 -9.5 32.5t-9.5 33.5q0 26 17 47t49 21zM414 745q29 0 48.5 -21t19.5 -56q0 -42 -34.5 -97.5t-119.5 -116.5l-39 45q42 35 60 62t18 50q0 17 -9.5 32.5t-9.5 33.5q0 26 17.5 47 t48.5 21z" />
<glyph unicode="&#x201e;" horiz-adv-x="447" d="M92 129q29 0 48 -21t19 -56q0 -42 -34 -97.5t-119 -116.5l-39 45q42 35 60.5 62t18.5 50q0 18 -10 33.5t-10 33.5q0 26 17 46.5t49 20.5zM295 129q29 0 48.5 -21t19.5 -56q0 -41 -34 -97.5t-119 -116.5l-39 45q42 35 59.5 62.5t17.5 50.5q0 18 -9 33t-9 33q0 26 17 46.5 t48 20.5z" />
<glyph unicode="&#x2020;" horiz-adv-x="443" d="M459 546h-134v-93l-69 -253h-80l28 253l36 93h-135l15 83h136l7 137h121l-44 -137h135z" />
<glyph unicode="&#x2021;" horiz-adv-x="443" d="M461 557h-133l-1 -92l-35 -91h133l-15 -82h-134l-6 -127h-122l42 127h-134l16 82h134l-1 91l36 92h-134l16 82h134l6 127h121l-41 -127h134z" />
<glyph unicode="&#x2022;" horiz-adv-x="421" d="M355 301q0 -29 -10.5 -53.5t-29 -43.5t-43 -29.5t-52.5 -10.5q-27 0 -51 10.5t-41 28t-27 41t-10 49.5q0 28 10.5 53t29 44t43 29.5t52.5 10.5q27 0 51 -10.5t41 -28t27 -41t10 -49.5z" />
<glyph unicode="&#x2026;" horiz-adv-x="677" d="M156 61q0 -30 -21 -50.5t-49 -20.5t-46 19.5t-18 45.5q0 31 20.5 51.5t48.5 20.5t46.5 -20t18.5 -46zM374 61q0 -30 -20.5 -50.5t-48.5 -20.5q-29 0 -47 19.5t-18 45.5q0 31 21 51.5t49 20.5t46 -20t18 -46zM593 61q0 -30 -20.5 -50.5t-48.5 -20.5q-29 0 -47 19.5 t-18 45.5q0 31 20.5 51.5t49.5 20.5q28 0 46 -20t18 -46z" />
<glyph unicode="&#x2030;" horiz-adv-x="1020" d="M958 190q0 -42 -13 -78.5t-36 -63.5t-54.5 -42.5t-67.5 -15.5q-53 0 -83 26t-30 83q0 40 13 76.5t36 64t54 43.5t67 16q52 0 83 -25.5t31 -83.5zM380 576q0 -42 -13 -78.5t-36.5 -63.5t-54.5 -42.5t-67 -15.5q-53 0 -83 26.5t-30 83.5q0 40 13 76.5t35.5 63.5t54 43 t67.5 16q52 0 83 -25.5t31 -83.5zM75 -18l-54 53l640 657l53 -53zM641 190q0 -42 -13 -78.5t-36 -63.5t-54 -42.5t-67 -15.5q-54 0 -84 26t-30 83q0 40 13 76.5t36 64t54 43.5t67 16q52 0 83 -25.5t31 -83.5zM879 182q0 48 -43 48q-22 0 -37.5 -12.5t-25.5 -31t-15 -40.5 t-5 -40q0 -47 43 -47q22 0 38 12t26 30.5t14.5 40t4.5 40.5zM300 569q0 47 -42 47q-22 0 -37.5 -12.5t-25.5 -31t-15 -40t-5 -39.5q0 -48 43 -48q22 0 37.5 12.5t25.5 31t14.5 40t4.5 40.5zM562 182q0 48 -43 48q-22 0 -37.5 -12.5t-25.5 -31t-14.5 -40.5t-4.5 -40 q0 -47 42 -47q22 0 38 12t26 30.5t14.5 40t4.5 40.5z" />
<glyph unicode="&#x2039;" horiz-adv-x="307" d="M162 293l69 -144l-86 -41l-86 191l147 181l75 -44z" />
<glyph unicode="&#x203a;" horiz-adv-x="307" d="M127 108l-75 44l119 143l-68 144l85 41l86 -191z" />
<glyph unicode="&#x2044;" horiz-adv-x="418" d="M-12 -30l-66 58l569 672l67 -59z" />
<glyph unicode="&#x2215;" horiz-adv-x="418" d="M-12 -30l-66 58l569 672l67 -59z" />
<glyph unicode="&#x20ac;" d="M548 547q-23 13 -53.5 20.5t-59.5 7.5q-35 0 -63.5 -11t-51 -29.5t-40 -44t-29.5 -54.5h177l-13 -68h-191q-6 -21 -10 -42t-6 -41h192l-13 -68h-183q0 -33 6 -59t21 -44t40.5 -27.5t63.5 -9.5q33 0 66.5 8t62.5 20l15 -82q-40 -17 -84.5 -25t-84.5 -8q-61 0 -103 15.5 t-68 45t-37 71.5t-9 95h-85l12 68h79q2 19 6 40.5t10 42.5h-79l13 68h89q18 45 45.5 86t66 71.5t89 48.5t114.5 18q33 0 68 -7.5t62 -18.5z" />
<glyph unicode="&#x2122;" horiz-adv-x="681" d="M324 610h-68l-41 -216h-78l42 216h-71l13 65h215zM668 394h-79l6 136l3 50l-18 -45l-66 -141h-74l-12 144l-1 42l-10 -36l-49 -150h-72l95 281h96l12 -140l1 -44l15 41l68 143h94z" />
<glyph unicode="&#x2202;" horiz-adv-x="623" d="M583 463q0 -52 -10 -105.5t-28.5 -103.5t-44.5 -94.5t-58 -77.5q-38 -41 -89.5 -65.5t-110.5 -24.5q-46 0 -79.5 13.5t-56 37.5t-33.5 55.5t-11 67.5q0 57 21 108t57 88.5t85 59.5t105 22q51 0 86.5 -21t49.5 -56q0 17 5.5 44t3.5 66q-5 76 -52.5 123.5t-132.5 47.5 l30 89q64 -2 113 -23t82.5 -57.5t50.5 -86t17 -107.5zM422 258q0 19 -6 36t-18 30.5t-31.5 21.5t-46.5 8q-35 0 -63 -14.5t-48 -38t-31 -54t-11 -62.5q0 -47 24 -73.5t71 -26.5q37 0 67 16t50.5 40.5t31.5 55.5t11 61z" />
<glyph unicode="&#x220f;" horiz-adv-x="768" d="M805 639h-100l-170 -883h-99l170 883h-285l-170 -883h-100l170 883h-100l18 91h683z" />
<glyph unicode="&#x2211;" horiz-adv-x="596" d="M608 639h-355l203 -393l-361 -396h377l-18 -94h-509l16 83l373 413l-202 395l17 83h475z" />
<glyph unicode="&#x2212;" d="M512 251h-468l18 93h468z" />
<glyph unicode="&#x221a;" horiz-adv-x="599" d="M307 0h-121l-61 416h-88l16 81h171l34 -275q3 -26 5.5 -52.5t4.5 -53.5h2l21 49.5l22 49.5l250 543h116z" />
<glyph unicode="&#x221e;" horiz-adv-x="980" d="M408 300q-38 33 -72.5 57t-69.5 24q-45 0 -74.5 -29.5t-29.5 -71.5q0 -26 16.5 -44.5t51.5 -18.5t80 24.5t98 58.5zM824 319q0 26 -17.5 44t-52.5 18t-80 -25t-97 -59q37 -33 71.5 -56.5t69.5 -23.5q47 0 76.5 29.5t29.5 72.5zM928 336q0 -40 -15 -78t-43.5 -68t-70 -48 t-95.5 -18q-30 0 -58.5 9t-55.5 24t-53.5 35t-51.5 42l-67 -41t-67.5 -35.5t-66.5 -24.5t-64 -9q-85 0 -123.5 39t-38.5 99q0 48 18.5 87t49 66.5t69.5 43t81 15.5q31 0 60.5 -9.5t58 -25t55 -35.5t52.5 -42l68 42t68 35.5t66.5 25t62.5 9.5q43 0 73.5 -11t50 -30t28.5 -44 t9 -53z" />
<glyph unicode="&#x222b;" horiz-adv-x="338" d="M391 637q-10 3 -21 5.5t-24 2.5q-17 0 -30 -6.5t-24 -23.5t-20 -45.5t-19 -73.5q-11 -60 -20 -115.5l-18 -114l-18.5 -119t-25.5 -138.5q-13 -72 -31.5 -122.5t-43.5 -81.5t-57.5 -45t-72.5 -14q-13 0 -27.5 2t-25.5 5l18 93q10 -3 22 -5t23 -2q17 0 30.5 6.5t24.5 23 t20 45t18 72.5q11 57 19.5 112l17 110.5t19.5 121l25 143.5q15 73 34.5 123.5t45.5 83t58.5 45t72.5 12.5q11 0 24 -2t24 -5z" />
<glyph unicode="&#x2248;" d="M501 188q-27 -25 -64 -42t-74 -17q-35 0 -58.5 9t-43.5 20.5t-39.5 20.5t-47.5 9q-29 0 -55 -13.5t-46 -29.5l-37 73q26 21 61.5 40.5t76.5 19.5q34 0 57 -9.5t43.5 -20.5t41.5 -20.5t51 -9.5q49 0 100 42l34 -72v0zM536 374q-26 -25 -60.5 -43t-76.5 -18q-33 0 -56 9 t-42.5 20.5t-40 20.5t-50.5 9q-29 0 -56 -13t-47 -29l-35 73q28 23 65 41t77 18q33 0 57 -9.5t44.5 -20.5t40.5 -20.5t45 -9.5q26 0 50.5 12.5t49.5 32.5l35 -73v0z" />
<glyph unicode="&#x2260;" d="M521 343h-159l-55 -92h196l-16 -87h-230l-77 -131h-97l77 131h-124l17 87h158l54 92h-194l16 87h228l79 133h97l-79 -133h125z" />
<glyph unicode="&#x2264;" d="M436 0h-412l18 89h411zM229 387l237 -181l-74 -71l-307 258l387 246l56 -75z" />
<glyph unicode="&#x2265;" d="M436 0h-412l18 89h411zM134 135l-57 74l299 178l-237 182l73 70l309 -258z" />
<glyph unicode="&#x25ca;" horiz-adv-x="610" d="M365 567l-201 -227l120 -232l203 224zM294 -9h-65l-180 349l308 344h65l180 -349z" />
<glyph unicode="&#xe000;" horiz-adv-x="525" d="M0 525h525v-525h-525v525z" />
<glyph unicode="&#xe084;" horiz-adv-x="641" d="M742 641q-16 5 -33.5 7t-32.5 2q-50 0 -77.5 -27.5t-38.5 -92.5l-6 -33h125l-16 -83h-125l-82 -434q-12 -63 -35 -106.5t-56 -70.5t-76 -38.5t-94 -11.5q-77 0 -146 29q-27 -18 -57 -26t-67 -8q-21 0 -43.5 2t-42.5 7l25 90q16 -5 33.5 -7.5t32.5 -2.5q24 0 42.5 6.5 t33.5 23t26 43.5t19 68l82 436h-93l17 83h93l6 32q17 100 81 152t174 52q78 0 147 -27q49 31 126 31q41 0 83 -9zM492 628q-23 10 -46 14t-44 4q-63 0 -97.5 -30t-44.5 -87l-6 -32h195l7 36q5 29 14 52.5t22 42.5zM238 414l-82 -436q-13 -71 -42 -117q20 -10 45.5 -15 t49.5 -5q60 0 93 30t47 102l84 441h-195z" />
<glyph unicode="&#xe085;" horiz-adv-x="579" d="M532 630q-25 9 -56 14t-57 5q-72 0 -110 -31t-49 -92l-6 -29h299l-95 -497h-104l78 414h-194l-82 -436q-23 -122 -81 -176t-150 -54q-21 0 -43.5 2t-42.5 7l25 90q16 -5 33.5 -7.5t32.5 -2.5q24 0 42.5 6.5t33.5 23t26 43.5t19 68l83 436h-94l17 83h93l3 20 q17 106 83 163t189 57q42 0 76.5 -5t67.5 -14z" />
<glyph unicode="&#xe086;" horiz-adv-x="577" d="M459 0h-105l123 643q-20 4 -39 5.5t-36 1.5q-60 0 -94 -25t-45 -81l-9 -47h121l-17 -83h-120l-82 -436q-23 -122 -81 -176t-150 -54q-21 0 -43.5 2t-42.5 7l25 90q16 -5 33.5 -7.5t32.5 -2.5q24 0 42.5 6.5t33.5 23t26 43.5t19 68l83 436h-94l17 83h93l10 53 q35 187 255 187q47 0 93 -4t88 -12z" />
<glyph unicode="&#xe087;" horiz-adv-x="878" d="M831 631q-25 8 -56 13.5t-57 5.5q-69 0 -108.5 -30.5t-51.5 -96.5l-4 -26h298l-95 -497h-104l79 414h-194l-82 -434q-12 -63 -35 -106.5t-56 -70.5t-76 -38.5t-94 -11.5q-77 0 -146 29q-27 -18 -57 -26t-67 -8q-21 0 -43.5 2t-42.5 7l25 90q16 -5 33.5 -7.5t32.5 -2.5 q24 0 42.5 6.5t33.5 23t26 43.5t19 68l82 436h-93l17 83h93l6 32q17 100 81 152t174 52q39 0 79.5 -7.5t77.5 -23.5q62 36 156 36q42 0 76.5 -5t67.5 -14zM496 626q-24 11 -48 15.5t-46 4.5q-63 0 -97.5 -30t-44.5 -87l-6 -32h195l4 23q5 31 16 58.5t27 47.5zM238 414 l-82 -436q-13 -71 -42 -117q20 -10 45.5 -15t49.5 -5q60 0 93 30t47 102l84 441h-195z" />
<glyph unicode="&#xe088;" horiz-adv-x="878" d="M758 0h-104l122 644q-19 4 -38.5 5.5t-36.5 1.5q-60 0 -94 -25.5t-44 -81.5l-9 -47h126l-17 -83h-125l-82 -434q-12 -63 -35 -106.5t-56 -70.5t-76 -38.5t-94 -11.5q-77 0 -146 29q-27 -18 -57 -26t-67 -8q-21 0 -43.5 2t-42.5 7l25 90q16 -5 33.5 -7.5t32.5 -2.5 q24 0 42.5 6.5t33.5 23t26 43.5t19 68l83 436h-94l17 83h93l6 32q18 100 81.5 152t173.5 52q39 0 79.5 -7.5t73.5 -20.5q29 16 66.5 24.5t83.5 8.5q48 0 93.5 -4.5t87.5 -11.5zM491 628q-23 11 -45.5 14.5t-42.5 3.5q-63 0 -97.5 -30t-45.5 -87l-5 -32h194l10 53q9 46 32 78 zM239 414l-83 -436q-13 -71 -42 -117q20 -10 45.5 -15t49.5 -5q60 0 93 30t47 102l84 441h-194z" />
<glyph unicode="&#xe0a0;" horiz-adv-x="438" d="M439 720l-123 61l-141 -61l-22 54l170 86l148 -84z" />
<glyph unicode="&#xe0a1;" horiz-adv-x="392" d="M433 844q0 -30 -10.5 -54.5t-30 -42t-46 -27.5t-58.5 -10q-48 0 -76.5 23t-28.5 64q0 29 11 53.5t30.5 42.5t46 28t57.5 10q48 0 76.5 -23.5t28.5 -63.5zM298 766q28 0 44 19.5t16 48.5q0 18 -10.5 29.5t-29.5 11.5q-28 0 -44 -20t-16 -49q0 -18 10.5 -29t29.5 -11z" />
<glyph unicode="&#xe0a2;" horiz-adv-x="452" d="M530 809q-45 -77 -119 -77q-25 0 -42 8t-30.5 17l-25.5 17t-27 8q-18 0 -33 -11t-29 -33l-51 37q22 38 51.5 58t66.5 20q25 0 42 -8t30.5 -17l26 -17t27.5 -8q32 0 61 44l52 -38v0z" />
<glyph unicode="&#xe0a3;" horiz-adv-x="392" d="M480 855q-4 -25 -16.5 -48.5t-32 -41t-47 -28t-62.5 -10.5q-33 0 -56 10.5t-36.5 28.5t-17.5 41t1 48h64q-5 -25 9.5 -42.5t46.5 -17.5t52 16t25 44h70v0z" />
<glyph unicode="&#xe0a4;" horiz-adv-x="330" d="M393 788q0 -29 -19 -47t-45 -18t-42 17t-16 40q0 28 19 46t45 18t42 -17t16 -39z" />
<glyph unicode="&#xe0a5;" horiz-adv-x="387" d="M357 654q0 -27 -18.5 -45t-44.5 -18q-25 0 -41.5 17.5t-16.5 41.5q0 26 18.5 44t44.5 18q25 0 41.5 -17.5t16.5 -40.5zM182 654q0 -27 -18.5 -45t-44.5 -18q-25 0 -41.5 17.5t-16.5 41.5q0 26 18.5 44t44.5 18q25 0 41.5 -17.5t16.5 -40.5z" />
<glyph unicode="&#xe0a6;" horiz-adv-x="367" d="M210 556l-120 144l72 55l105 -153z" />
<glyph unicode="&#xe0a7;" horiz-adv-x="386" d="M178 556l-50 52l135 147l62 -64z" />
<glyph unicode="&#xe0a8;" horiz-adv-x="426" d="M279 566l-70 83l-99 -83l-38 48l151 134l106 -133z" />
<glyph unicode="&#xe0a9;" horiz-adv-x="473" d="M361 669q-21 -38 -48 -58.5t-62 -20.5q-18 0 -31 7t-23.5 16t-20.5 16t-20 7q-31 0 -53 -41l-45 39q44 80 108 80q19 0 32.5 -7.5t24 -16l19.5 -16t20 -7.5q17 0 30 11t24 31l45 -40v0z" />
<glyph unicode="&#xe0aa;" horiz-adv-x="387" d="M81 609l16 78h240l-16 -78h-240z" />
<glyph unicode="&#xe0ab;" horiz-adv-x="380" d="M342 719q-14 -69 -51.5 -106t-95.5 -37t-81.5 37.5t-10.5 105.5h68q-5 -26 4 -45.5t34 -19.5q23 0 40.5 17.5t22.5 47.5h70z" />
<glyph unicode="&#xe0ac;" horiz-adv-x="535" d="M486 784q0 -26 -18 -43t-42 -17t-40 16.5t-16 39.5q0 26 17.5 43.5t41.5 17.5q25 0 41 -17t16 -40zM292 784q0 -26 -18 -43t-42 -17t-40 16.5t-16 39.5q0 26 18 43.5t42 17.5t40 -17t16 -40z" />
<glyph unicode="&#xe0ae;" horiz-adv-x="333" d="M349 759l-129 -161l-58 36l114 168z" />
<glyph unicode="&#xea01;" horiz-adv-x="690" d="M568 427q0 74 -36 118t-112 44q-57 0 -104.5 -27.5t-81.5 -74t-52.5 -107.5t-18.5 -127q0 -78 36.5 -122t107.5 -44q55 0 102.5 26.5t82.5 73t55.5 108t20.5 132.5zM608 -189q-67 -10 -113.5 -4t-86.5 16t-80.5 17t-95.5 0l17 93q63 7 107 0.5t83.5 -16t82.5 -16t104 1.5 zM683 439q0 -97 -31 -179t-84 -142t-124 -94t-152 -34q-125 0 -185 65t-60 181q0 91 29.5 173t81.5 143t123 97t155 36q121 0 184 -64t63 -182z" />
<glyph unicode="&#xea43;" horiz-adv-x="1316" d="M1127 660q12 -19 14.5 -41.5t-2 -46.5t-14.5 -48t-23 -46q-20 -34 -52.5 -63.5t-71.5 -44.5q16 10 30.5 21.5t26.5 26.5q18 16 36.5 35t26.5 45q16 20 21 41t7 42q3 29 -4.5 58t-34.5 43q7 9 13.5 8t11.5 -6t8.5 -12.5t6.5 -11.5zM1025 544q5 -15 1.5 -31t-8.5 -33 q-5 -8 -12.5 -15.5t-16.5 -9.5q-7 2 -10 6.5l-7 10.5l5 14q5 -2 3.5 -8t4.5 -8q5 -2 10 3l8 8q8 23 9 45t-7 42l-7 -3l-26 -20.5t-22 -24.5l-9 -4q-16 -14 -29 -29.5t-27 -26.5q-6 -1 -8 1.5t-2.5 6.5t-0.5 9t-1 8q2 4 2.5 9t-2.5 8q-5 1 -6.5 -3.5t-5.5 -6.5 q-8 -8 -15.5 -11.5t-18.5 -4.5q-11 3 -12.5 9t1.5 13.5t7 16.5t6 17q7 15 17.5 26.5t24.5 23.5q11 2 23 6t18 -8l3 -6q-9 -17 -14 -35.5t-11 -36.5q0 -3 1 -6.5t5 -3.5q11 0 15.5 9t12.5 15q25 19 47.5 38.5l44.5 39.5q6 -2 7 -7.5t0.5 -11.5l-1 -12.5t1.5 -10.5q4 -3 1 -8z M921 676q-4 -5 -11.5 -10t-14.5 -4q-2 3 -3.5 7t-7.5 -1q-33 -23 -64.5 -48.5t-48.5 -59.5q-8 -20 -13.5 -42t-7 -43t3.5 -39.5t19 -31.5q8 -8 20.5 -6.5t23.5 0.5q7 4 12.5 8.5t12.5 8.5q-1 -9 -9.5 -13t-16.5 -10q-16 -6 -32.5 -2.5t-26.5 14.5q-18 21 -18 46q-4 2 -3.5 5 t2 6t2.5 6t-2 5q3 3 2.5 6.5t-1 7.5t0 7.5t3.5 8.5q5 30 19.5 55.5t34.5 48t44.5 42t49.5 36.5q4 0 9.5 1.5t10 1.5t8 -2t2.5 -9zM705 498q-10 -17 -27.5 -29.5t-36.5 -12.5q-20 0 -36 7.5t-21 24.5q-5 11 -3 23.5t7 26.5q3 9 10.5 15t9.5 15q33 24 66 12q3 -3 6.5 -4.5 t1.5 -7.5q-4 -4 -7 0t-8 4q-13 4 -26.5 -0.5t-25.5 -15.5q-10 -12 -17 -26.5t-4 -28.5q16 -30 47 -34q10 4 20.5 4t19.5 10q7 4 12 12.5t12 4.5zM547 470q-8 -12 -14 -24.5t-17 -23.5q-7 -3 -12 0.5t-7 9.5q-4 17 -3 36.5t8 38.5q-1 1 1 8l4.5 16t4 18t-0.5 13 q-9 -15 -13 -31t-7.5 -31.5t-9.5 -30t-20 -27.5q-2 -2 -8 -3.5t-12 1.5t-10 11.5t-3 28.5q6 19 10.5 36.5t10.5 35.5q3 7 1 14.5t7 13.5q8 4 12 -4q-2 -15 -7 -31.5t-9 -32t-6 -29t1 -23.5q6 -5 10 -2t7 9t5 12.5t5 8.5q8 20 11 42t13 42q3 3 6 7.5t6 8t6.5 5t8.5 -2.5 q3 -20 0 -38.5t-7.5 -37.5t-8 -38t-1.5 -38q1 -3 4 -4t7 3l3 5.5l6.5 11.5t8 11t9.5 5zM387 440q-2 -2 -4.5 -4t-10.5 -4t-24.5 -4.5t-46.5 -4.5q-35 -3 -66.5 -8.5t-64.5 -16.5q-8 -11 -15.5 -8t-12.5 6q0 9 8.5 12.5t11.5 11.5q8 12 15 24l14 24q-1 6 4 13t10 13 l60.5 102.5t52.5 105.5q0 6 1 11.5t6 9.5q7 2 8 -2t3 -7q-14 -39 -34 -75l-41.5 -71.5l-43 -71.5t-38.5 -74l1 -2q38 6 74.5 13t76.5 8q11 -2 26 -2t28 5zM724 209q-18 -3 -36 -8l-35.5 -10t-35 -8.5t-35.5 -1.5q-4 -3 -7 -11t-3.5 -16t3 -13t12.5 -2q4 4 6.5 11.5t9.5 9.5 q3 -9 -2 -17.5t-12 -15.5q-3 -2 -10.5 -2.5t-13.5 4t-8.5 15.5t3.5 32q-2 3 -3.5 6t1.5 8q13 8 16 20.5t8 25.5q-2 1 -1.5 2t-1.5 2q-20 -11 -31.5 -29t-28.5 -32q-1 -7 -6 -12.5t-10.5 -11t-10 -11.5t-4.5 -14q-3 -3 -4.5 -8t-3 -9.5t-4 -8t-9.5 -4.5q-9 2 -11 7.5t-1 12 t3.5 13.5t3.5 13q0 19 7 35t8 33q-10 -5 -14.5 -14t-12.5 -17q-6 -6 -12 -14t-12.5 -15t-14 -10.5t-17.5 -1.5q-8 17 2.5 36t23.5 36q6 5 12 11.5t12.5 11.5t13.5 7.5t15 -0.5q4 -3 10 0q13 21 22 44t15 46l11 8q6 -2 6.5 -5t-1.5 -7t-4.5 -8t-2.5 -8q-9 -28 -19.5 -55.5 t-18.5 -54.5q-4 -15 -10 -29t-4 -29q20 21 39 46t45 46q17 18 37 30q7 -6 12.5 -14.5t11.5 -13.5q-2 -9 -5 -20t-2 -20q28 6 53 10t52 12q3 -2 4.5 -5t-0.5 -8zM891 -34q-6 -6 -12.5 -8t-14 -3l-14.5 -2t-13 -5q-17 -2 -33 -6.5t-26 -21.5q-6 -10 -13.5 -19.5t-14.5 -19.5 t-11.5 -20.5t-4.5 -22.5q0 -9 9.5 -8.5t15.5 2.5q4 0 7 4.5t8 1.5q4 -3 -1 -6t-7 -7q-9 -5 -19 -7.5t-19 2.5q-6 8 -8.5 16.5t2.5 19.5q3 8 13 24t36 50q-7 4 -15 3t-16 -2.5t-16 -2.5t-15 2q5 6 13.5 9t15.5 5q14 3 28 2t24 12q9 11 9.5 22.5t4.5 23.5q-5 2 -4 6t2 6 q-3 11 -11 17t-18 8.5t-21 3t-21 0.5q-23 -2 -45 -17t-34 -35q-10 -16 -12 -32t2 -33q-4 -12 -1.5 -23t5.5 -21.5t3.5 -22.5t-8.5 -25q-6 -5 -13.5 -4t-12.5 3q-12 7 -11 22t-1 28q9 6 10 16.5t9 18.5q2 5 2.5 13t-5.5 11q-17 -2 -37 -2t-37 -12q-1 -11 -1.5 -22t-3.5 -22 t-8.5 -21t-16.5 -17q-12 -3 -23 4q-9 9 -5.5 21.5t6.5 24.5l20.5 31.5t29.5 22.5q6 -5 15.5 -3t17.5 4l48 1q5 5 6.5 12.5t4.5 13.5q15 29 41.5 51.5t58.5 24.5q17 2 32.5 1t29.5 -9q0 -5 2.5 -8t6 -5t6.5 -5t3 -8q6 -14 0 -33t-13 -35q23 0 45.5 4zM485 -54 q-5 -3 -8.5 -1.5t-7 3.5t-7.5 3.5t-9 -1.5q-15 -9 -18.5 -23.5t-14.5 -24.5q-4 -14 -10 -26.5t-8 -25.5q-3 -2 -6.5 -4t-8.5 0q-5 8 0 18t6 18q10 9 10 21.5t8 22.5q-2 5 0 12.5t1 12.5q-5 2 -8 -2t-7 1q4 10 17 18q8 0 10.5 -6t4.5 -12q4 1 8.5 5.5t9 8t9 4.5t8.5 -4z M365 8q-6 -5 -3 -8.5t0 -8.5q-8 -38 -12.5 -76t-14 -74.5t-27 -69.5t-51.5 -61q-35 -20 -74 -24.5t-73 5.5q-4 2 -7.5 5.5t-1.5 8.5q4 10 9.5 20t18.5 14l-10 -16t-8 -17q11 -8 26.5 -11t32.5 -2t34.5 6t31.5 12q15 5 25 14t17.5 20t13.5 22.5t13 22.5q13 35 21.5 75.5 t13.5 70.5q5 11 4.5 24t4.5 24q-1 5 -5.5 3.5t-6.5 -2.5q-9 -8 -14 -17.5t-14 -15.5q0 -8 -4.5 -12t-9.5 -7.5t-9.5 -7.5t-5.5 -11q-25 -23 -47 -46.5l-43 -47.5q-5 -6 -9 -12t-12 -5q-3 7 -2.5 14.5t3 15l5 15.5t2.5 16q8 17 15.5 35.5t23.5 34.5q14 25 35 48t48 38 q14 4 23.5 -2.5t18.5 -13.5q11 11 16 24q11 -4 8 -20zM891 575q-3 4 -6 -0.5t-6 -2.5q-25 -11 -36.5 -34t-15.5 -46q6 -2 12.5 4t12.5 4q4 7 11.5 14.5t13.5 15t8.5 16t-2.5 16.5q6 0 7 5.5t1 7.5zM586 203q5 1 5 2t2 3q4 5 7.5 13.5t-4.5 10.5zM461 230q-6 2 -13 -3 t-12 -11q-14 -14 -25.5 -30t-7.5 -33q5 -2 7.5 1t4.5 6q13 11 23.5 23t20.5 27zM630 -100q-6 -6 -9 -13t-5 -14q0 -8 1.5 -16.5t11.5 -10.5q8 13 7 28t-6 26zM526 -115q2 4 4.5 11t3.5 13.5t-0.5 11.5t-7.5 6l-18 -19l-8 -23t-2 -23q3 -3 8 -2.5t10.5 3.5t8.5 8.5t1 13.5z M327 -6q-1 11 -12.5 13t-20.5 -2q-13 -9 -25 -19t-23 -21q-8 -15 -17.5 -30l-18.5 -30t-15.5 -30.5t-7.5 -32.5q2 -1 3 0.5t3 3.5q17 18 35.5 35l36.5 35t34 37t28 41z" />
<glyph unicode="&#xeeee;" horiz-adv-x="175" d="M175 980v-1300h-175v1300h175z" />
<glyph unicode="&#xeeef;" d="M450 100v350h-350v-350h350zM250 350v50h150v-250h-50v100h-100v50h100v50h-100zM50 50v450h450v-450h-450zM150 150v250h50v-200h100v-50h-150z" />
<glyph unicode="&#xf000;" horiz-adv-x="960" d="M887 571q-2 -4 -3 -4q-11 2 -21.5 0.5t-21.5 -2.5q-34 -2 -53 -3t-37 -4q-8 -7 -8.5 -16t-5.5 -17q-1 -5 0.5 -8t1.5 -7q2 -3 6 -4.5t7 -2.5q8 1 14.5 4t10.5 9q0 7 -5 12q-5 4 -10.5 3t-9.5 4q4 5 10.5 4t12.5 -1q8 -3 13 -16q-4 -15 -21 -27q-5 -2 -10.5 -2.5 t-11.5 -2.5q-11 3 -23.5 8t-18.5 16q-3 12 1.5 22.5t6.5 21.5q-2 5 -6 4t-8 0l-34 -1q0 2 -1 2t-1 2q4 2 8 2t7 1q9 -2 19 -1t19 1q5 3 5.5 7.5t1.5 9.5q4 7 5 16t8 14q5 3 7.5 -1t4.5 -6q5 -8 2 -17.5t0 -18.5q2 -6 9 -4t12 0q23 2 49 1.5t65 4.5q3 -2 4 -3zM646 502 q-12 0 -25.5 -0.5t-26.5 -4.5q-3 2 -6 2.5t-5 5.5q4 14 6.5 28t0.5 28q-2 3 -6.5 0.5t-7.5 -4.5q-15 -8 -29.5 -19.5t-17.5 -28.5q-4 -4 -9.5 -5.5t-9.5 0.5q-5 7 -1.5 15t1.5 16l3 31q-3 3 -8 1.5t-10 0.5q-2 2 -6.5 1t-3.5 4q13 -1 25.5 1t26.5 0q3 -3 2.5 -7t-1.5 -8 t0 -7t5 -5q14 6 27 14.5t27 13.5q3 -2 7 -1.5t7 0.5q4 0 6.5 -1.5t3.5 -6.5q1 -11 -0.5 -21.5t-2.5 -21.5q1 -3 0.5 -6.5t1.5 -5.5q9 -2 13 0q4 0 8 -1t9 -1q3 -2 0 -5zM452 559q1 -18 -10 -31q-12 -7 -22 -15.5t-24 -10.5q-3 1 -4 -0.5t-2.5 -3t-3 -2.5t-4.5 1q-5 4 -12 2 t-13 -1q-6 0 -10.5 0.5t-9.5 2.5q-7 7 -13.5 15.5t0.5 20.5q8 20 27 30l23 10.5t25 2.5q16 -1 31.5 -4t21.5 -17zM469 664q-13 -13 -30 -8l-7.5 11.5t-3.5 12.5q-10 20 -31.5 25t-42.5 11l-31 2q-2 -2 -6 -1t-7 -1q-18 -5 -31 -10t-26 -11q-7 -8 -17.5 -13.5t-13.5 -16.5 q-8 -15 -12 -34t-7 -36q5 -4 11 -2.5t11 0.5q22 2 42 2h44q5 -2 0 -7q-9 -6 -15.5 -0.5t-14.5 2.5q-10 1 -21 -0.5t-21 -0.5q-9 -2 -19 -2t-18 -5l-3 -4q-4 -19 -5 -31t-1 -32q1 -7 -1.5 -14t2.5 -14q13 -1 20.5 -0.5t14 1t14 1.5t20.5 1q4 2 7 1l6 -2q1 -1 0.5 -2t0.5 -2 l-5 -2q-11 2 -20 1.5t-18.5 -1.5t-20.5 -2t-26 0l-23 -2t-24 0q-15 -1 -32 -1t-31 4l-1 3q3 3 9 5q8 -4 18 -4.5t20 -2.5q8 1 14.5 0.5t12.5 3.5q2 26 9 46t12 47l-2 4q-15 1 -29 0t-27 5q0 5 4 5q13 -4 27 -4q15 0 29 1l2 3l10 34.5t13 31.5l1 3q25 26 56.5 42t69.5 20 q17 2 35 -2t32 -11q5 -2 10 -2q6 0 11 -2q17 -4 32.5 -12t25.5 -23q1 -2 0 -4.5t-2 -4.5zM767 -62q-22 2 -49 -2.5t-48 -1.5q-56 2 -109 -4t-108 0q-25 -4 -48.5 -1.5t-47.5 4.5q-29 2 -59.5 1.5t-61.5 -0.5q-21 0 -50 -1.5t-50 -6.5q-4 -1 -9 -1q-4 0 -6 5q0 16 -1 32.5 t4 32.5q2 20 1 40t2 40q-4 23 -0.5 44.5t-0.5 44.5q0 32 2.5 64.5t4.5 66.5q2 36 0.5 71.5t0.5 71.5q4 8 11.5 6.5t14.5 0.5q8 -5 18.5 -2.5t18.5 1.5q3 3 7.5 5.5t5.5 -4.5q2 -2 0.5 -6t2.5 -6q-2 -14 -1.5 -38t2 -52t3.5 -57.5t3 -53.5q32 10 58.5 27.5t57.5 28.5 q5 2 9.5 6t11.5 6q2 1 4 3t6 0q5 -2 4 -7t-1 -10q-10 -29 -5 -61q2 -5 6.5 -3t7.5 2q8 7 17 11.5t17 10.5l20 11.5t21 9.5l23.5 16t24.5 13l20 16q1 4 6 7q3 0 5.5 -2t5.5 -4q0 -14 3 -28.5t3 -28.5q1 -3 3 -2.5t3 -1.5q4 -5 2 -10l-4 -10l2 -2q17 4 31.5 13t29 19t29 19 t31.5 13q5 5 11 6.5t11 6.5q5 1 9 4.5t8.5 6.5t9.5 4.5t11 -3.5q2 0 4 -1t3 -3q-1 -4 0.5 -6.5t3.5 -5.5q-2 -8 0 -14.5t-2 -12.5q1 -13 0 -25t5 -23q-2 -7 2.5 -12.5t-0.5 -10.5q1 -8 0 -14.5t4 -12.5q1 -5 1.5 -9.5t-2.5 -8.5q2 -11 2.5 -23t4.5 -23q-2 -4 -1 -8t1 -8 q0 -38 5.5 -73.5t6.5 -73.5q0 -2 1.5 -4.5t-0.5 -4.5zM428 539q-2 11 -6 21.5t-16 12.5q-2 -5 -6.5 -3.5t-8.5 0.5q-13 6 -27 -6q-12 -15 -6.5 -29t12.5 -27q1 -4 4.5 -3t7.5 0q6 -2 12.5 1.5t12.5 5.5q7 6 15 11t6 16zM720 -10q-2 8 -4.5 16.5t-7.5 15.5q-5 11 -10 20.5 t-4 22.5q-1 5 -3 8.5t0 8.5q9 8 20 13t19 13l-7 17q-9 -1 -16.5 -4.5t-15.5 -5.5q-5 -2 -10.5 -6t-9.5 1q5 20 9 39.5t7 38.5l-2 3q-8 0 -13.5 2.5t-12.5 4.5l-6.5 -23.5t-5.5 -24.5q-4 -8 -4 -20q0 -11 -5 -19q-5 -31 -11.5 -52t-9.5 -51l-2 -7h24q3 1 6 -1t6 1 q2 7 2.5 13.5t2.5 14.5t0 16.5t9 11.5q6 -2 5 -6.5t1 -8.5q-1 -7 2.5 -12t3.5 -11q9 -6 12.5 -16t11.5 -17q3 1 5 -1.5t7 -0.5q7 0 7 6zM625 179q-1 5 -3 9t-7 6q-2 2 -5 2.5t-5 -2.5q-5 -6 -8.5 -15t-0.5 -15q1 -5 7 -5.5t11 1.5q11 6 11 19zM595 15q4 20 7 39l6 37 q5 15 5 26q-6 5 -13 2t-15 -2q-9 -11 -10 -24t-4 -26q-4 -5 -5.5 -12t-3.5 -14q2 -10 -2.5 -22t0.5 -22q14 0 31 5q4 5 4 13zM567 123q-8 -1 -17 -2.5t-16 -10.5q-5 -4 -7.5 -11.5t-10.5 -5.5q-2 8 -0.5 14.5l3.5 14.5q-4 2 -7.5 0t-7.5 0q-9 -4 -14 -13l-10 -55.5t-7 -55.5 l3 -4q5 -4 11.5 -1.5t11.5 0.5q-2 11 2.5 20.5t2.5 20.5l10 22.5t15 21.5q6 5 13 6.5t15 6.5q2 8 6 16t4 16zM447 30q12 17 13 35t0 38q2 3 -1 6t-7 5t-8 4.5t-5 3.5q-2 2 -5 2q-2 0 -3 -3q-11 1 -20 -4q-6 -3 -9 -8t-8 -7q-2 -2 -4.5 -0.5t-3.5 3.5q7 18 8.5 36.5t2.5 37.5 l-1 7h-8q-9 -3 -9.5 -11t-3.5 -14q-6 -17 -8.5 -34t-8.5 -34q-2 -17 -6.5 -33t-5.5 -31q-2 -9 -5 -17.5t-4 -18.5q6 -4 15 -1t16 6q5 2 8 1t5.5 -4t4 -6t4.5 -5q8 0 13 1q12 6 27 19.5t17 25.5zM322 34q-1 11 2 23.5l6 24.5t5 24t-2 21q-5 4 -12 6.5t-9 -2.5l-2 -6 q-8 -2 -18.5 2t-19.5 -2q-8 -4 -10.5 -8t-4.5 -12q1 -3 -1.5 -4.5t-6 -3t-6 -4.5t-1.5 -9q-2 -4 -0.5 -6.5t-2.5 -6.5q-2 -5 -5.5 -13t-6.5 -10q-10 -6 -8.5 -20t5.5 -22q-2 -7 2.5 -11t9.5 -6q2 2 4 3t4 -1q8 -2 19 7.5t19 14.5q6 1 6 -1t-1.5 -5t-2.5 -7t1 -6 q5 -2 6.5 -3.5t6.5 -1.5q4 2 8 2.5t8 3.5l8 39v0zM266 181q-12 2 -25.5 1.5t-26.5 -1.5q-8 -1 -15.5 -2.5t-13.5 -5.5l-10 -32.5t-9 -32.5q-3 -26 -9.5 -54.5t-10.5 -55.5q4 0 8 1.5t6 -0.5q7 2 12 -0.5t11 0.5q5 16 7.5 31.5t7.5 31.5q3 5 8 7.5t10 4.5t8.5 0t7.5 3l4 28 q-3 5 -9 4.5t-12 -0.5q-4 -4 -7 -4q-8 2 -5.5 9.5t0.5 12.5q-1 3 1.5 5.5l4.5 4.5q11 3 21 4.5t20 3.5l6 4q1 9 4.5 16.5t5.5 15.5zM428 77q4 -14 -2.5 -29t-17.5 -26q-3 -4 -6.5 -4.5t-7.5 -2.5q-12 2 -11.5 13t0.5 20q4 8 6 16.5t7 15.5q8 4 13 11t13 7l2 -3 q-4 -7 -0.5 -10t4.5 -8zM291 57q-1 -8 -8.5 -20t-15.5 -18q-4 -1 -8.5 -4t-9.5 0q-6 2 -2.5 7.5t5.5 10.5q0 2 1.5 10t6 18t11 20.5t15.5 16.5q9 1 11 1q3 0 6 2q2 -3 0 -9l-4.5 -13l-5 -13.5t-2.5 -8.5z" />
<glyph unicode="&#xf6c9;" horiz-adv-x="420" d="M198 721l-14 60l200 74l18 -79z" />
<glyph unicode="&#xf6ca;" horiz-adv-x="429" d="M306 720l-148 84l32 56l123 -61l141 61l22 -54z" />
<glyph unicode="&#xf6cb;" horiz-adv-x="436" d="M526 784q0 -26 -18 -43t-42 -17t-39.5 16.5t-15.5 39.5q0 26 17.5 43.5t41.5 17.5t40 -17t16 -40zM317 784q0 -26 -18 -43t-42 -17t-40 16.5t-16 39.5q0 26 18 43.5t42 17.5t40 -17t16 -40z" />
<glyph unicode="&#xf6ce;" horiz-adv-x="330" d="M368 721l-198 55l35 79l188 -74z" />
<glyph unicode="&#xf6cf;" horiz-adv-x="532" d="M236 721l-31 51l158 108l40 -63zM435 720l-27 52l166 97l34 -66z" />
<glyph unicode="&#xf6d0;" horiz-adv-x="421" d="M465 745h-280l14 70h280z" />
<glyph unicode="&#xf8ff;" horiz-adv-x="1042" d="M157 362q-2 -26 0 -50l-138 -12q-3 37 0 74zM529 355q2 0 3.5 5t-0.5 5q2 -5 -3 -10zM527 357q5 0 2.5 2t0.5 2v1q-4 0 -2 -2t-1 -2v-1v0zM525 361q-3 -6 -2.5 -2t2.5 2zM524 357h1l1 5q-4 1 -4.5 -3.5t3.5 0.5zM520 355q-2 5 3 10q-2 0 -3.5 -5t0.5 -5zM517 358 q-2 -1 -1.5 1.5t2.5 1.5v1q-2 1 -3.5 -2.5t2.5 -2.5v1zM513 362l-1 -3q-1 -2 -1 0l1 3h-1l-1 -3q-1 -2 0 -2q2 0 3 2l1 3h-1zM509 358h-2l2 6h-1l-2 -6q0 -1 1 -1h2v1zM633 -12l-238 -61l24 -59h205l13 30l-6 12l-72 -19l-13 37l102 26zM632 71l-238 -61l15 -36l238 60z M397 145v-51l15 -36l233 59v28h-248zM563 333q-12 2 -22 2h-19h-21q-10 0 -22 -2l14 -141h56l14 141v0zM452 192l-15 134q-14 -3 -22.5 -7t-15.5 -6t-11 5.5t-5 17.5t1 19t7 11q29 8 63 14t68 6q35 0 68 -6t63 -14q4 -1 6 -10.5t1.5 -19.5t-5 -17.5t-11.5 -4.5q-14 6 -39 12 l-14 -134h55q26 24 46 61t20 84q0 39 -15 74t-41 61t-60.5 41t-73.5 15q-40 0 -74.5 -15t-60.5 -41t-41 -61t-15 -74q0 -42 17.5 -80t49.5 -65h54zM770 337q0 -51 -19 -95.5t-48 -74.5v-78l-16 -5l32 -75l-31 -8l31 -72l-32 -8l10 -25l-30 -69h-54q-3 -20 -29 -33t-62 -13 q-38 0 -64 13t-28 33h-54l-52 125l31 9l-32 75l35 9l-19 45v78q-29 32 -47.5 75.5t-18.5 93.5q0 51 19.5 96.5t53 79t79 53t97.5 19.5q51 0 96 -19.5t79 -53t53.5 -79t19.5 -96.5zM1023 373q2 -19 2 -37q0 -17 -1 -35l-136 11q2 25 0 50l135 11v0zM846 713q14 -12 27 -24.5 t24 -27.5l-102 -86q-8 9 -18 18.5l-18 16.5zM547 691q-13 2 -25.5 1.5t-25.5 -1.5l-11 133q18 2 37 2t36 -2l-11 -133v0zM145 663q12 14 25 27t27 24l88 -105q-9 -7 -18.5 -16.5t-17.5 -18.5l-104 89v0z" />
</font>
</defs>
</svg>
